<?xml version="1.0" encoding="utf-8" standalone="no"?>
<!DOCTYPE svg PUBLIC "-//W3C//DTD SVG 1.1//EN"
  "http://www.w3.org/Graphics/SVG/1.1/DTD/svg11.dtd">
<!-- Created with matplotlib (https://matplotlib.org/) -->
<svg height="288pt" version="1.1" viewBox="0 0 432 288" width="432pt" xmlns="http://www.w3.org/2000/svg" xmlns:xlink="http://www.w3.org/1999/xlink">
 <defs>
  <style type="text/css">
*{stroke-linecap:butt;stroke-linejoin:round;}
  </style>
 </defs>
 <g id="figure_1">
  <g id="patch_1">
   <path d="M 0 288 
L 432 288 
L 432 0 
L 0 0 
z
" style="fill:#ffffff;"/>
  </g>
  <g id="axes_1">
   <g id="patch_2">
    <path d="M 54 252 
L 388.8 252 
L 388.8 34.56 
L 54 34.56 
z
" style="fill:#ffffff;"/>
   </g>
   <g id="matplotlib.axis_1">
    <g id="xtick_1">
     <g id="line2d_1">
      <path clip-path="url(#p93dd6ba8d7)" d="M 69.218182 252 
L 69.218182 34.56 
" style="fill:none;stroke:#cccccc;stroke-linecap:round;"/>
     </g>
     <g id="text_1">
      <!-- 0.0 -->
      <defs>
       <path d="M 31.78125 66.40625 
Q 24.171875 66.40625 20.328125 58.90625 
Q 16.5 51.421875 16.5 36.375 
Q 16.5 21.390625 20.328125 13.890625 
Q 24.171875 6.390625 31.78125 6.390625 
Q 39.453125 6.390625 43.28125 13.890625 
Q 47.125 21.390625 47.125 36.375 
Q 47.125 51.421875 43.28125 58.90625 
Q 39.453125 66.40625 31.78125 66.40625 
z
M 31.78125 74.21875 
Q 44.046875 74.21875 50.515625 64.515625 
Q 56.984375 54.828125 56.984375 36.375 
Q 56.984375 17.96875 50.515625 8.265625 
Q 44.046875 -1.421875 31.78125 -1.421875 
Q 19.53125 -1.421875 13.0625 8.265625 
Q 6.59375 17.96875 6.59375 36.375 
Q 6.59375 54.828125 13.0625 64.515625 
Q 19.53125 74.21875 31.78125 74.21875 
z
" id="DejaVuSans-48"/>
       <path d="M 10.6875 12.40625 
L 21 12.40625 
L 21 0 
L 10.6875 0 
z
" id="DejaVuSans-46"/>
      </defs>
      <g style="fill:#262626;" transform="translate(60.471463 269.858281)scale(0.11 -0.11)">
       <use xlink:href="#DejaVuSans-48"/>
       <use x="63.623047" xlink:href="#DejaVuSans-46"/>
       <use x="95.410156" xlink:href="#DejaVuSans-48"/>
      </g>
     </g>
    </g>
    <g id="xtick_2">
     <g id="line2d_2">
      <path clip-path="url(#p93dd6ba8d7)" d="M 107.216139 252 
L 107.216139 34.56 
" style="fill:none;stroke:#cccccc;stroke-linecap:round;"/>
     </g>
     <g id="text_2">
      <!-- 0.5 -->
      <defs>
       <path d="M 10.796875 72.90625 
L 49.515625 72.90625 
L 49.515625 64.59375 
L 19.828125 64.59375 
L 19.828125 46.734375 
Q 21.96875 47.46875 24.109375 47.828125 
Q 26.265625 48.1875 28.421875 48.1875 
Q 40.625 48.1875 47.75 41.5 
Q 54.890625 34.8125 54.890625 23.390625 
Q 54.890625 11.625 47.5625 5.09375 
Q 40.234375 -1.421875 26.90625 -1.421875 
Q 22.3125 -1.421875 17.546875 -0.640625 
Q 12.796875 0.140625 7.71875 1.703125 
L 7.71875 11.625 
Q 12.109375 9.234375 16.796875 8.0625 
Q 21.484375 6.890625 26.703125 6.890625 
Q 35.15625 6.890625 40.078125 11.328125 
Q 45.015625 15.765625 45.015625 23.390625 
Q 45.015625 31 40.078125 35.4375 
Q 35.15625 39.890625 26.703125 39.890625 
Q 22.75 39.890625 18.8125 39.015625 
Q 14.890625 38.140625 10.796875 36.28125 
z
" id="DejaVuSans-53"/>
      </defs>
      <g style="fill:#262626;" transform="translate(98.46942 269.858281)scale(0.11 -0.11)">
       <use xlink:href="#DejaVuSans-48"/>
       <use x="63.623047" xlink:href="#DejaVuSans-46"/>
       <use x="95.410156" xlink:href="#DejaVuSans-53"/>
      </g>
     </g>
    </g>
    <g id="xtick_3">
     <g id="line2d_3">
      <path clip-path="url(#p93dd6ba8d7)" d="M 145.214096 252 
L 145.214096 34.56 
" style="fill:none;stroke:#cccccc;stroke-linecap:round;"/>
     </g>
     <g id="text_3">
      <!-- 1.0 -->
      <defs>
       <path d="M 12.40625 8.296875 
L 28.515625 8.296875 
L 28.515625 63.921875 
L 10.984375 60.40625 
L 10.984375 69.390625 
L 28.421875 72.90625 
L 38.28125 72.90625 
L 38.28125 8.296875 
L 54.390625 8.296875 
L 54.390625 0 
L 12.40625 0 
z
" id="DejaVuSans-49"/>
      </defs>
      <g style="fill:#262626;" transform="translate(136.467377 269.858281)scale(0.11 -0.11)">
       <use xlink:href="#DejaVuSans-49"/>
       <use x="63.623047" xlink:href="#DejaVuSans-46"/>
       <use x="95.410156" xlink:href="#DejaVuSans-48"/>
      </g>
     </g>
    </g>
    <g id="xtick_4">
     <g id="line2d_4">
      <path clip-path="url(#p93dd6ba8d7)" d="M 183.212053 252 
L 183.212053 34.56 
" style="fill:none;stroke:#cccccc;stroke-linecap:round;"/>
     </g>
     <g id="text_4">
      <!-- 1.5 -->
      <g style="fill:#262626;" transform="translate(174.465334 269.858281)scale(0.11 -0.11)">
       <use xlink:href="#DejaVuSans-49"/>
       <use x="63.623047" xlink:href="#DejaVuSans-46"/>
       <use x="95.410156" xlink:href="#DejaVuSans-53"/>
      </g>
     </g>
    </g>
    <g id="xtick_5">
     <g id="line2d_5">
      <path clip-path="url(#p93dd6ba8d7)" d="M 221.21001 252 
L 221.21001 34.56 
" style="fill:none;stroke:#cccccc;stroke-linecap:round;"/>
     </g>
     <g id="text_5">
      <!-- 2.0 -->
      <defs>
       <path d="M 19.1875 8.296875 
L 53.609375 8.296875 
L 53.609375 0 
L 7.328125 0 
L 7.328125 8.296875 
Q 12.9375 14.109375 22.625 23.890625 
Q 32.328125 33.6875 34.8125 36.53125 
Q 39.546875 41.84375 41.421875 45.53125 
Q 43.3125 49.21875 43.3125 52.78125 
Q 43.3125 58.59375 39.234375 62.25 
Q 35.15625 65.921875 28.609375 65.921875 
Q 23.96875 65.921875 18.8125 64.3125 
Q 13.671875 62.703125 7.8125 59.421875 
L 7.8125 69.390625 
Q 13.765625 71.78125 18.9375 73 
Q 24.125 74.21875 28.421875 74.21875 
Q 39.75 74.21875 46.484375 68.546875 
Q 53.21875 62.890625 53.21875 53.421875 
Q 53.21875 48.921875 51.53125 44.890625 
Q 49.859375 40.875 45.40625 35.40625 
Q 44.1875 33.984375 37.640625 27.21875 
Q 31.109375 20.453125 19.1875 8.296875 
z
" id="DejaVuSans-50"/>
      </defs>
      <g style="fill:#262626;" transform="translate(212.463291 269.858281)scale(0.11 -0.11)">
       <use xlink:href="#DejaVuSans-50"/>
       <use x="63.623047" xlink:href="#DejaVuSans-46"/>
       <use x="95.410156" xlink:href="#DejaVuSans-48"/>
      </g>
     </g>
    </g>
    <g id="xtick_6">
     <g id="line2d_6">
      <path clip-path="url(#p93dd6ba8d7)" d="M 259.207967 252 
L 259.207967 34.56 
" style="fill:none;stroke:#cccccc;stroke-linecap:round;"/>
     </g>
     <g id="text_6">
      <!-- 2.5 -->
      <g style="fill:#262626;" transform="translate(250.461249 269.858281)scale(0.11 -0.11)">
       <use xlink:href="#DejaVuSans-50"/>
       <use x="63.623047" xlink:href="#DejaVuSans-46"/>
       <use x="95.410156" xlink:href="#DejaVuSans-53"/>
      </g>
     </g>
    </g>
    <g id="xtick_7">
     <g id="line2d_7">
      <path clip-path="url(#p93dd6ba8d7)" d="M 297.205924 252 
L 297.205924 34.56 
" style="fill:none;stroke:#cccccc;stroke-linecap:round;"/>
     </g>
     <g id="text_7">
      <!-- 3.0 -->
      <defs>
       <path d="M 40.578125 39.3125 
Q 47.65625 37.796875 51.625 33 
Q 55.609375 28.21875 55.609375 21.1875 
Q 55.609375 10.40625 48.1875 4.484375 
Q 40.765625 -1.421875 27.09375 -1.421875 
Q 22.515625 -1.421875 17.65625 -0.515625 
Q 12.796875 0.390625 7.625 2.203125 
L 7.625 11.71875 
Q 11.71875 9.328125 16.59375 8.109375 
Q 21.484375 6.890625 26.8125 6.890625 
Q 36.078125 6.890625 40.9375 10.546875 
Q 45.796875 14.203125 45.796875 21.1875 
Q 45.796875 27.640625 41.28125 31.265625 
Q 36.765625 34.90625 28.71875 34.90625 
L 20.21875 34.90625 
L 20.21875 43.015625 
L 29.109375 43.015625 
Q 36.375 43.015625 40.234375 45.921875 
Q 44.09375 48.828125 44.09375 54.296875 
Q 44.09375 59.90625 40.109375 62.90625 
Q 36.140625 65.921875 28.71875 65.921875 
Q 24.65625 65.921875 20.015625 65.03125 
Q 15.375 64.15625 9.8125 62.3125 
L 9.8125 71.09375 
Q 15.4375 72.65625 20.34375 73.4375 
Q 25.25 74.21875 29.59375 74.21875 
Q 40.828125 74.21875 47.359375 69.109375 
Q 53.90625 64.015625 53.90625 55.328125 
Q 53.90625 49.265625 50.4375 45.09375 
Q 46.96875 40.921875 40.578125 39.3125 
z
" id="DejaVuSans-51"/>
      </defs>
      <g style="fill:#262626;" transform="translate(288.459206 269.858281)scale(0.11 -0.11)">
       <use xlink:href="#DejaVuSans-51"/>
       <use x="63.623047" xlink:href="#DejaVuSans-46"/>
       <use x="95.410156" xlink:href="#DejaVuSans-48"/>
      </g>
     </g>
    </g>
    <g id="xtick_8">
     <g id="line2d_8">
      <path clip-path="url(#p93dd6ba8d7)" d="M 335.203882 252 
L 335.203882 34.56 
" style="fill:none;stroke:#cccccc;stroke-linecap:round;"/>
     </g>
     <g id="text_8">
      <!-- 3.5 -->
      <g style="fill:#262626;" transform="translate(326.457163 269.858281)scale(0.11 -0.11)">
       <use xlink:href="#DejaVuSans-51"/>
       <use x="63.623047" xlink:href="#DejaVuSans-46"/>
       <use x="95.410156" xlink:href="#DejaVuSans-53"/>
      </g>
     </g>
    </g>
    <g id="xtick_9">
     <g id="line2d_9">
      <path clip-path="url(#p93dd6ba8d7)" d="M 373.201839 252 
L 373.201839 34.56 
" style="fill:none;stroke:#cccccc;stroke-linecap:round;"/>
     </g>
     <g id="text_9">
      <!-- 4.0 -->
      <defs>
       <path d="M 37.796875 64.3125 
L 12.890625 25.390625 
L 37.796875 25.390625 
z
M 35.203125 72.90625 
L 47.609375 72.90625 
L 47.609375 25.390625 
L 58.015625 25.390625 
L 58.015625 17.1875 
L 47.609375 17.1875 
L 47.609375 0 
L 37.796875 0 
L 37.796875 17.1875 
L 4.890625 17.1875 
L 4.890625 26.703125 
z
" id="DejaVuSans-52"/>
      </defs>
      <g style="fill:#262626;" transform="translate(364.45512 269.858281)scale(0.11 -0.11)">
       <use xlink:href="#DejaVuSans-52"/>
       <use x="63.623047" xlink:href="#DejaVuSans-46"/>
       <use x="95.410156" xlink:href="#DejaVuSans-48"/>
      </g>
     </g>
    </g>
    <g id="text_10">
     <!-- Episode ($10^3$) -->
     <defs>
      <path d="M 9.8125 72.90625 
L 55.90625 72.90625 
L 55.90625 64.59375 
L 19.671875 64.59375 
L 19.671875 43.015625 
L 54.390625 43.015625 
L 54.390625 34.71875 
L 19.671875 34.71875 
L 19.671875 8.296875 
L 56.78125 8.296875 
L 56.78125 0 
L 9.8125 0 
z
" id="DejaVuSans-69"/>
      <path d="M 18.109375 8.203125 
L 18.109375 -20.796875 
L 9.078125 -20.796875 
L 9.078125 54.6875 
L 18.109375 54.6875 
L 18.109375 46.390625 
Q 20.953125 51.265625 25.265625 53.625 
Q 29.59375 56 35.59375 56 
Q 45.5625 56 51.78125 48.09375 
Q 58.015625 40.1875 58.015625 27.296875 
Q 58.015625 14.40625 51.78125 6.484375 
Q 45.5625 -1.421875 35.59375 -1.421875 
Q 29.59375 -1.421875 25.265625 0.953125 
Q 20.953125 3.328125 18.109375 8.203125 
z
M 48.6875 27.296875 
Q 48.6875 37.203125 44.609375 42.84375 
Q 40.53125 48.484375 33.40625 48.484375 
Q 26.265625 48.484375 22.1875 42.84375 
Q 18.109375 37.203125 18.109375 27.296875 
Q 18.109375 17.390625 22.1875 11.75 
Q 26.265625 6.109375 33.40625 6.109375 
Q 40.53125 6.109375 44.609375 11.75 
Q 48.6875 17.390625 48.6875 27.296875 
z
" id="DejaVuSans-112"/>
      <path d="M 9.421875 54.6875 
L 18.40625 54.6875 
L 18.40625 0 
L 9.421875 0 
z
M 9.421875 75.984375 
L 18.40625 75.984375 
L 18.40625 64.59375 
L 9.421875 64.59375 
z
" id="DejaVuSans-105"/>
      <path d="M 44.28125 53.078125 
L 44.28125 44.578125 
Q 40.484375 46.53125 36.375 47.5 
Q 32.28125 48.484375 27.875 48.484375 
Q 21.1875 48.484375 17.84375 46.4375 
Q 14.5 44.390625 14.5 40.28125 
Q 14.5 37.15625 16.890625 35.375 
Q 19.28125 33.59375 26.515625 31.984375 
L 29.59375 31.296875 
Q 39.15625 29.25 43.1875 25.515625 
Q 47.21875 21.78125 47.21875 15.09375 
Q 47.21875 7.46875 41.1875 3.015625 
Q 35.15625 -1.421875 24.609375 -1.421875 
Q 20.21875 -1.421875 15.453125 -0.5625 
Q 10.6875 0.296875 5.421875 2 
L 5.421875 11.28125 
Q 10.40625 8.6875 15.234375 7.390625 
Q 20.0625 6.109375 24.8125 6.109375 
Q 31.15625 6.109375 34.5625 8.28125 
Q 37.984375 10.453125 37.984375 14.40625 
Q 37.984375 18.0625 35.515625 20.015625 
Q 33.0625 21.96875 24.703125 23.78125 
L 21.578125 24.515625 
Q 13.234375 26.265625 9.515625 29.90625 
Q 5.8125 33.546875 5.8125 39.890625 
Q 5.8125 47.609375 11.28125 51.796875 
Q 16.75 56 26.8125 56 
Q 31.78125 56 36.171875 55.265625 
Q 40.578125 54.546875 44.28125 53.078125 
z
" id="DejaVuSans-115"/>
      <path d="M 30.609375 48.390625 
Q 23.390625 48.390625 19.1875 42.75 
Q 14.984375 37.109375 14.984375 27.296875 
Q 14.984375 17.484375 19.15625 11.84375 
Q 23.34375 6.203125 30.609375 6.203125 
Q 37.796875 6.203125 41.984375 11.859375 
Q 46.1875 17.53125 46.1875 27.296875 
Q 46.1875 37.015625 41.984375 42.703125 
Q 37.796875 48.390625 30.609375 48.390625 
z
M 30.609375 56 
Q 42.328125 56 49.015625 48.375 
Q 55.71875 40.765625 55.71875 27.296875 
Q 55.71875 13.875 49.015625 6.21875 
Q 42.328125 -1.421875 30.609375 -1.421875 
Q 18.84375 -1.421875 12.171875 6.21875 
Q 5.515625 13.875 5.515625 27.296875 
Q 5.515625 40.765625 12.171875 48.375 
Q 18.84375 56 30.609375 56 
z
" id="DejaVuSans-111"/>
      <path d="M 45.40625 46.390625 
L 45.40625 75.984375 
L 54.390625 75.984375 
L 54.390625 0 
L 45.40625 0 
L 45.40625 8.203125 
Q 42.578125 3.328125 38.25 0.953125 
Q 33.9375 -1.421875 27.875 -1.421875 
Q 17.96875 -1.421875 11.734375 6.484375 
Q 5.515625 14.40625 5.515625 27.296875 
Q 5.515625 40.1875 11.734375 48.09375 
Q 17.96875 56 27.875 56 
Q 33.9375 56 38.25 53.625 
Q 42.578125 51.265625 45.40625 46.390625 
z
M 14.796875 27.296875 
Q 14.796875 17.390625 18.875 11.75 
Q 22.953125 6.109375 30.078125 6.109375 
Q 37.203125 6.109375 41.296875 11.75 
Q 45.40625 17.390625 45.40625 27.296875 
Q 45.40625 37.203125 41.296875 42.84375 
Q 37.203125 48.484375 30.078125 48.484375 
Q 22.953125 48.484375 18.875 42.84375 
Q 14.796875 37.203125 14.796875 27.296875 
z
" id="DejaVuSans-100"/>
      <path d="M 56.203125 29.59375 
L 56.203125 25.203125 
L 14.890625 25.203125 
Q 15.484375 15.921875 20.484375 11.0625 
Q 25.484375 6.203125 34.421875 6.203125 
Q 39.59375 6.203125 44.453125 7.46875 
Q 49.3125 8.734375 54.109375 11.28125 
L 54.109375 2.78125 
Q 49.265625 0.734375 44.1875 -0.34375 
Q 39.109375 -1.421875 33.890625 -1.421875 
Q 20.796875 -1.421875 13.15625 6.1875 
Q 5.515625 13.8125 5.515625 26.8125 
Q 5.515625 40.234375 12.765625 48.109375 
Q 20.015625 56 32.328125 56 
Q 43.359375 56 49.78125 48.890625 
Q 56.203125 41.796875 56.203125 29.59375 
z
M 47.21875 32.234375 
Q 47.125 39.59375 43.09375 43.984375 
Q 39.0625 48.390625 32.421875 48.390625 
Q 24.90625 48.390625 20.390625 44.140625 
Q 15.875 39.890625 15.1875 32.171875 
z
" id="DejaVuSans-101"/>
      <path id="DejaVuSans-32"/>
      <path d="M 31 75.875 
Q 24.46875 64.65625 21.28125 53.65625 
Q 18.109375 42.671875 18.109375 31.390625 
Q 18.109375 20.125 21.3125 9.0625 
Q 24.515625 -2 31 -13.1875 
L 23.1875 -13.1875 
Q 15.875 -1.703125 12.234375 9.375 
Q 8.59375 20.453125 8.59375 31.390625 
Q 8.59375 42.28125 12.203125 53.3125 
Q 15.828125 64.359375 23.1875 75.875 
z
" id="DejaVuSans-40"/>
      <path d="M 8.015625 75.875 
L 15.828125 75.875 
Q 23.140625 64.359375 26.78125 53.3125 
Q 30.421875 42.28125 30.421875 31.390625 
Q 30.421875 20.453125 26.78125 9.375 
Q 23.140625 -1.703125 15.828125 -13.1875 
L 8.015625 -13.1875 
Q 14.5 -2 17.703125 9.0625 
Q 20.90625 20.125 20.90625 31.390625 
Q 20.90625 42.671875 17.703125 53.65625 
Q 14.5 64.65625 8.015625 75.875 
z
" id="DejaVuSans-41"/>
     </defs>
     <g style="fill:#262626;" transform="translate(180.66 287.065938)scale(0.12 -0.12)">
      <use transform="translate(0 0.765625)" xlink:href="#DejaVuSans-69"/>
      <use transform="translate(63.183594 0.765625)" xlink:href="#DejaVuSans-112"/>
      <use transform="translate(126.660156 0.765625)" xlink:href="#DejaVuSans-105"/>
      <use transform="translate(154.443359 0.765625)" xlink:href="#DejaVuSans-115"/>
      <use transform="translate(206.542969 0.765625)" xlink:href="#DejaVuSans-111"/>
      <use transform="translate(267.724609 0.765625)" xlink:href="#DejaVuSans-100"/>
      <use transform="translate(331.201172 0.765625)" xlink:href="#DejaVuSans-101"/>
      <use transform="translate(392.724609 0.765625)" xlink:href="#DejaVuSans-32"/>
      <use transform="translate(424.511719 0.765625)" xlink:href="#DejaVuSans-40"/>
      <use transform="translate(463.525391 0.765625)" xlink:href="#DejaVuSans-49"/>
      <use transform="translate(527.148438 0.765625)" xlink:href="#DejaVuSans-48"/>
      <use transform="translate(591.728516 39.046875)scale(0.7)" xlink:href="#DejaVuSans-51"/>
      <use transform="translate(638.999023 0.765625)" xlink:href="#DejaVuSans-41"/>
     </g>
    </g>
   </g>
   <g id="matplotlib.axis_2">
    <g id="ytick_1">
     <g id="line2d_10">
      <path clip-path="url(#p93dd6ba8d7)" d="M 54 251.762614 
L 388.8 251.762614 
" style="fill:none;stroke:#cccccc;stroke-linecap:round;"/>
     </g>
     <g id="text_11">
      <!-- 0 -->
      <g style="fill:#262626;" transform="translate(37.50125 255.941755)scale(0.11 -0.11)">
       <use xlink:href="#DejaVuSans-48"/>
      </g>
     </g>
    </g>
    <g id="ytick_2">
     <g id="line2d_11">
      <path clip-path="url(#p93dd6ba8d7)" d="M 54 208.708272 
L 388.8 208.708272 
" style="fill:none;stroke:#cccccc;stroke-linecap:round;"/>
     </g>
     <g id="text_12">
      <!-- 50 -->
      <g style="fill:#262626;" transform="translate(30.5025 212.887412)scale(0.11 -0.11)">
       <use xlink:href="#DejaVuSans-53"/>
       <use x="63.623047" xlink:href="#DejaVuSans-48"/>
      </g>
     </g>
    </g>
    <g id="ytick_3">
     <g id="line2d_12">
      <path clip-path="url(#p93dd6ba8d7)" d="M 54 165.653929 
L 388.8 165.653929 
" style="fill:none;stroke:#cccccc;stroke-linecap:round;"/>
     </g>
     <g id="text_13">
      <!-- 100 -->
      <g style="fill:#262626;" transform="translate(23.50375 169.83307)scale(0.11 -0.11)">
       <use xlink:href="#DejaVuSans-49"/>
       <use x="63.623047" xlink:href="#DejaVuSans-48"/>
       <use x="127.246094" xlink:href="#DejaVuSans-48"/>
      </g>
     </g>
    </g>
    <g id="ytick_4">
     <g id="line2d_13">
      <path clip-path="url(#p93dd6ba8d7)" d="M 54 122.599587 
L 388.8 122.599587 
" style="fill:none;stroke:#cccccc;stroke-linecap:round;"/>
     </g>
     <g id="text_14">
      <!-- 150 -->
      <g style="fill:#262626;" transform="translate(23.50375 126.778728)scale(0.11 -0.11)">
       <use xlink:href="#DejaVuSans-49"/>
       <use x="63.623047" xlink:href="#DejaVuSans-53"/>
       <use x="127.246094" xlink:href="#DejaVuSans-48"/>
      </g>
     </g>
    </g>
    <g id="ytick_5">
     <g id="line2d_14">
      <path clip-path="url(#p93dd6ba8d7)" d="M 54 79.545245 
L 388.8 79.545245 
" style="fill:none;stroke:#cccccc;stroke-linecap:round;"/>
     </g>
     <g id="text_15">
      <!-- 200 -->
      <g style="fill:#262626;" transform="translate(23.50375 83.724385)scale(0.11 -0.11)">
       <use xlink:href="#DejaVuSans-50"/>
       <use x="63.623047" xlink:href="#DejaVuSans-48"/>
       <use x="127.246094" xlink:href="#DejaVuSans-48"/>
      </g>
     </g>
    </g>
    <g id="ytick_6">
     <g id="line2d_15">
      <path clip-path="url(#p93dd6ba8d7)" d="M 54 36.490902 
L 388.8 36.490902 
" style="fill:none;stroke:#cccccc;stroke-linecap:round;"/>
     </g>
     <g id="text_16">
      <!-- 250 -->
      <g style="fill:#262626;" transform="translate(23.50375 40.670043)scale(0.11 -0.11)">
       <use xlink:href="#DejaVuSans-50"/>
       <use x="63.623047" xlink:href="#DejaVuSans-53"/>
       <use x="127.246094" xlink:href="#DejaVuSans-48"/>
      </g>
     </g>
    </g>
    <g id="text_17">
     <!-- Episode Length -->
     <defs>
      <path d="M 9.8125 72.90625 
L 19.671875 72.90625 
L 19.671875 8.296875 
L 55.171875 8.296875 
L 55.171875 0 
L 9.8125 0 
z
" id="DejaVuSans-76"/>
      <path d="M 54.890625 33.015625 
L 54.890625 0 
L 45.90625 0 
L 45.90625 32.71875 
Q 45.90625 40.484375 42.875 44.328125 
Q 39.84375 48.1875 33.796875 48.1875 
Q 26.515625 48.1875 22.3125 43.546875 
Q 18.109375 38.921875 18.109375 30.90625 
L 18.109375 0 
L 9.078125 0 
L 9.078125 54.6875 
L 18.109375 54.6875 
L 18.109375 46.1875 
Q 21.34375 51.125 25.703125 53.5625 
Q 30.078125 56 35.796875 56 
Q 45.21875 56 50.046875 50.171875 
Q 54.890625 44.34375 54.890625 33.015625 
z
" id="DejaVuSans-110"/>
      <path d="M 45.40625 27.984375 
Q 45.40625 37.75 41.375 43.109375 
Q 37.359375 48.484375 30.078125 48.484375 
Q 22.859375 48.484375 18.828125 43.109375 
Q 14.796875 37.75 14.796875 27.984375 
Q 14.796875 18.265625 18.828125 12.890625 
Q 22.859375 7.515625 30.078125 7.515625 
Q 37.359375 7.515625 41.375 12.890625 
Q 45.40625 18.265625 45.40625 27.984375 
z
M 54.390625 6.78125 
Q 54.390625 -7.171875 48.1875 -13.984375 
Q 42 -20.796875 29.203125 -20.796875 
Q 24.46875 -20.796875 20.265625 -20.09375 
Q 16.0625 -19.390625 12.109375 -17.921875 
L 12.109375 -9.1875 
Q 16.0625 -11.328125 19.921875 -12.34375 
Q 23.78125 -13.375 27.78125 -13.375 
Q 36.625 -13.375 41.015625 -8.765625 
Q 45.40625 -4.15625 45.40625 5.171875 
L 45.40625 9.625 
Q 42.625 4.78125 38.28125 2.390625 
Q 33.9375 0 27.875 0 
Q 17.828125 0 11.671875 7.65625 
Q 5.515625 15.328125 5.515625 27.984375 
Q 5.515625 40.671875 11.671875 48.328125 
Q 17.828125 56 27.875 56 
Q 33.9375 56 38.28125 53.609375 
Q 42.625 51.21875 45.40625 46.390625 
L 45.40625 54.6875 
L 54.390625 54.6875 
z
" id="DejaVuSans-103"/>
      <path d="M 18.3125 70.21875 
L 18.3125 54.6875 
L 36.8125 54.6875 
L 36.8125 47.703125 
L 18.3125 47.703125 
L 18.3125 18.015625 
Q 18.3125 11.328125 20.140625 9.421875 
Q 21.96875 7.515625 27.59375 7.515625 
L 36.8125 7.515625 
L 36.8125 0 
L 27.59375 0 
Q 17.1875 0 13.234375 3.875 
Q 9.28125 7.765625 9.28125 18.015625 
L 9.28125 47.703125 
L 2.6875 47.703125 
L 2.6875 54.6875 
L 9.28125 54.6875 
L 9.28125 70.21875 
z
" id="DejaVuSans-116"/>
      <path d="M 54.890625 33.015625 
L 54.890625 0 
L 45.90625 0 
L 45.90625 32.71875 
Q 45.90625 40.484375 42.875 44.328125 
Q 39.84375 48.1875 33.796875 48.1875 
Q 26.515625 48.1875 22.3125 43.546875 
Q 18.109375 38.921875 18.109375 30.90625 
L 18.109375 0 
L 9.078125 0 
L 9.078125 75.984375 
L 18.109375 75.984375 
L 18.109375 46.1875 
Q 21.34375 51.125 25.703125 53.5625 
Q 30.078125 56 35.796875 56 
Q 45.21875 56 50.046875 50.171875 
Q 54.890625 44.34375 54.890625 33.015625 
z
" id="DejaVuSans-104"/>
     </defs>
     <g style="fill:#262626;" transform="translate(17.008125 189.448125)rotate(-90)scale(0.12 -0.12)">
      <use xlink:href="#DejaVuSans-69"/>
      <use x="63.183594" xlink:href="#DejaVuSans-112"/>
      <use x="126.660156" xlink:href="#DejaVuSans-105"/>
      <use x="154.443359" xlink:href="#DejaVuSans-115"/>
      <use x="206.542969" xlink:href="#DejaVuSans-111"/>
      <use x="267.724609" xlink:href="#DejaVuSans-100"/>
      <use x="331.201172" xlink:href="#DejaVuSans-101"/>
      <use x="392.724609" xlink:href="#DejaVuSans-32"/>
      <use x="424.511719" xlink:href="#DejaVuSans-76"/>
      <use x="478.474609" xlink:href="#DejaVuSans-101"/>
      <use x="539.998047" xlink:href="#DejaVuSans-110"/>
      <use x="603.376953" xlink:href="#DejaVuSans-103"/>
      <use x="666.853516" xlink:href="#DejaVuSans-116"/>
      <use x="706.0625" xlink:href="#DejaVuSans-104"/>
     </g>
    </g>
   </g>
   <g id="PolyCollection_1">
    <defs>
     <path d="M 69.218182 -209.315842 
L 69.218182 -209.315842 
L 69.598161 -209.315842 
L 69.978141 -209.315842 
L 70.358121 -209.315842 
L 70.7381 -209.315842 
L 71.11808 -209.315842 
L 71.498059 -209.315842 
L 71.878039 -209.315842 
L 72.258018 -209.315842 
L 72.637998 -209.315842 
L 73.017978 -209.315842 
L 73.397957 -209.315842 
L 73.777937 -209.315842 
L 74.157916 -209.315842 
L 74.537896 -209.315842 
L 74.917875 -209.315842 
L 75.297855 -209.315842 
L 75.677835 -209.315842 
L 76.057814 -209.315842 
L 76.437794 -209.315842 
L 77.197753 -209.315842 
L 77.957712 -209.315842 
L 78.717671 -209.315842 
L 79.47763 -209.315842 
L 80.237589 -209.315842 
L 80.997549 -209.315842 
L 81.757508 -209.315842 
L 82.517467 -209.315842 
L 83.277426 -209.315842 
L 84.037385 -209.315842 
L 84.797344 -209.315842 
L 85.557303 -209.315842 
L 86.317263 -209.315842 
L 87.077222 -209.315842 
L 87.837181 -209.315842 
L 88.59714 -209.315842 
L 89.357099 -209.315842 
L 90.117058 -209.315842 
L 90.877017 -209.315842 
L 91.636977 -209.315842 
L 92.396936 -209.315842 
L 93.156895 -209.315842 
L 93.916854 -209.315842 
L 94.676813 -209.315842 
L 95.436772 -209.315842 
L 96.196731 -209.315842 
L 96.956691 -209.315842 
L 97.71665 -209.315842 
L 98.476609 -209.315842 
L 99.236568 -209.315842 
L 99.996527 -207.198075 
L 100.756486 -205.971999 
L 101.516445 -205.971999 
L 102.276404 -205.971999 
L 103.036364 -205.080308 
L 103.796323 -202.015119 
L 104.556282 -199.78589 
L 105.316241 -198.225431 
L 106.0762 -196.274856 
L 106.836159 -193.265397 
L 107.596118 -189.921555 
L 108.356078 -186.494116 
L 109.116037 -182.92735 
L 109.875996 -179.834296 
L 110.635955 -179.834296 
L 111.395914 -176.62978 
L 112.155873 -172.589303 
L 112.915832 -169.496249 
L 113.675792 -166.43106 
L 114.435751 -166.43106 
L 115.19571 -164.954196 
L 115.955669 -166.180271 
L 116.715628 -163.003621 
L 117.475587 -159.074606 
L 118.235546 -156.23234 
L 118.995506 -156.510993 
L 119.755465 -154.783341 
L 120.515424 -152.498382 
L 121.275383 -150.714999 
L 122.035342 -150.018365 
L 122.795301 -149.62825 
L 123.55526 -149.126674 
L 124.31522 -148.903751 
L 125.075179 -148.736559 
L 125.835138 -145.253389 
L 126.595097 -144.584621 
L 127.355056 -145.141928 
L 128.115015 -144.584621 
L 128.874974 -143.609333 
L 129.634934 -139.513126 
L 130.394893 -139.150876 
L 131.154852 -135.082535 
L 131.914811 -134.720285 
L 132.67477 -135.1104 
L 133.434729 -134.859612 
L 134.194688 -133.772863 
L 134.954648 -133.800728 
L 135.714607 -134.051516 
L 136.474566 -137.785474 
L 137.234525 -137.729743 
L 137.994484 -138.119858 
L 138.754443 -138.593569 
L 139.514402 -138.23132 
L 140.274362 -137.172436 
L 141.034321 -136.531533 
L 141.79428 -136.615129 
L 142.554239 -135.807034 
L 143.314198 -135.444784 
L 144.074157 -135.500515 
L 144.834116 -135.779168 
L 145.594076 -135.500515 
L 146.354035 -135.249727 
L 147.113994 -134.33017 
L 147.873953 -134.441631 
L 148.633912 -134.274439 
L 149.393871 -133.828594 
L 150.15383 -133.410613 
L 150.91379 -132.686114 
L 151.673749 -129.091483 
L 152.433708 -128.784964 
L 153.193667 -127.726081 
L 153.953626 -127.168774 
L 154.713585 -131.320712 
L 155.473544 -131.404308 
L 156.233504 -131.125654 
L 156.993463 -130.819135 
L 157.753422 -130.874866 
L 158.513381 -131.404308 
L 159.27334 -131.348577 
L 160.033299 -130.763404 
L 160.793258 -130.540482 
L 161.553218 -130.317559 
L 162.313177 -130.902731 
L 163.073136 -129.983174 
L 163.833095 -129.871713 
L 164.593054 -129.955309 
L 165.353013 -130.122501 
L 166.112972 -129.955309 
L 166.872932 -129.23081 
L 167.632891 -129.063618 
L 168.39285 -129.286541 
L 169.152809 -128.924291 
L 169.912768 -124.493699 
L 170.672727 -128.729233 
L 171.432686 -128.673503 
L 172.192646 -128.589907 
L 172.952605 -128.534176 
L 173.712564 -127.893273 
L 174.472523 -127.558889 
L 175.232482 -127.363831 
L 175.992441 -127.503158 
L 176.7524 -128.562041 
L 177.51236 -128.171926 
L 178.272319 -128.227657 
L 179.032278 -128.896426 
L 179.792237 -128.645637 
L 180.552196 -128.534176 
L 181.312155 -129.063618 
L 182.072114 -129.147214 
L 182.832074 -129.007887 
L 183.592033 -128.673503 
L 184.351992 -128.980022 
L 185.111951 -128.952156 
L 185.87191 -124.54943 
L 186.631869 -124.605161 
L 187.391828 -124.437969 
L 188.151788 -128.729233 
L 188.911747 -128.534176 
L 189.671706 -128.645637 
L 190.431665 -129.063618 
L 191.191624 -128.980022 
L 191.951583 -128.060465 
L 192.711542 -127.837542 
L 193.471502 -127.447427 
L 194.231461 -126.47214 
L 194.99142 -126.52787 
L 195.751379 -126.52787 
L 196.511338 -130.484751 
L 197.271297 -130.233963 
L 198.031256 -130.596212 
L 198.791216 -130.651943 
L 199.551175 -130.317559 
L 200.311134 -134.776016 
L 201.071093 -134.636689 
L 201.831052 -134.525227 
L 202.591011 -134.218709 
L 203.35097 -129.732386 
L 204.11093 -129.676656 
L 204.870889 -129.425867 
L 205.630848 -129.091483 
L 206.390807 -129.258675 
L 207.150766 -129.147214 
L 207.910725 -129.119348 
L 208.670684 -129.481598 
L 209.430644 -129.537329 
L 210.190603 -129.871713 
L 210.950562 -129.899578 
L 211.710521 -125.32966 
L 212.47048 -125.218199 
L 213.230439 -124.660892 
L 213.990398 -124.660892 
L 214.750358 -124.54943 
L 215.510317 -119.923781 
L 216.270276 -119.840185 
L 217.030235 -119.672993 
L 217.790194 -119.979512 
L 218.550153 -120.453223 
L 219.310112 -119.997903 
L 220.070072 -119.970043 
L 220.830031 -119.914321 
L 221.58999 -124.149117 
L 222.349949 -124.204838 
L 223.109908 -124.149117 
L 223.869867 -123.786933 
L 224.629826 -124.037676 
L 225.389785 -123.192036 
L 226.149745 -122.370406 
L 226.909704 -122.30975 
L 227.669663 -121.738423 
L 228.429622 -121.433675 
L 229.189581 -120.515073 
L 229.94954 -119.373512 
L 230.709499 -118.983071 
L 231.469459 -118.470762 
L 232.229418 -122.169889 
L 232.989377 -121.929401 
L 233.749336 -119.960669 
L 234.509295 -120.562338 
L 235.269254 -119.230053 
L 236.029213 -117.95612 
L 236.789173 -112.570391 
L 237.549132 -110.628932 
L 238.309091 -108.869449 
L 239.06905 -107.222897 
L 239.829009 -104.99823 
L 240.588968 -104.157699 
L 241.348927 -104.363179 
L 242.108887 -103.010087 
L 242.868846 -102.692324 
L 243.628805 -102.976059 
L 244.388764 -102.572103 
L 245.148723 -103.394841 
L 245.908682 -102.961421 
L 246.668641 -104.160688 
L 247.428601 -99.211127 
L 248.18856 -97.446584 
L 248.948519 -97.063302 
L 249.708478 -94.639898 
L 250.468437 -94.908572 
L 251.228396 -95.652874 
L 251.988355 -95.235253 
L 252.748315 -97.661704 
L 253.508274 -97.477127 
L 254.268233 -97.158585 
L 255.028192 -96.94901 
L 255.788151 -97.255548 
L 256.54811 -96.495302 
L 257.308069 -96.384002 
L 258.068029 -96.951595 
L 258.827988 -96.855736 
L 259.587947 -97.175093 
L 260.347906 -95.87649 
L 261.107865 -95.190409 
L 261.867824 -94.879708 
L 262.627783 -97.317971 
L 263.387743 -97.100554 
L 264.147702 -96.994086 
L 264.907661 -97.160112 
L 265.66762 -96.516317 
L 266.427579 -95.296177 
L 267.187538 -94.840921 
L 267.947497 -92.979202 
L 268.707457 -95.602882 
L 269.467416 -96.797932 
L 270.227375 -100.764288 
L 270.987334 -100.286403 
L 271.747293 -100.095409 
L 272.507252 -98.988129 
L 273.267211 -98.147834 
L 274.027171 -95.564083 
L 274.78713 -94.791751 
L 275.547089 -98.785422 
L 276.307048 -98.052379 
L 277.067007 -95.313473 
L 277.826966 -92.481506 
L 278.586925 -92.764076 
L 279.346885 -94.783153 
L 280.106844 -94.680471 
L 280.866803 -94.236612 
L 281.626762 -94.220425 
L 282.386721 -94.757484 
L 283.14668 -93.665629 
L 283.906639 -90.290854 
L 284.666599 -89.373368 
L 285.426558 -85.392689 
L 286.186517 -87.062036 
L 286.946476 -89.868183 
L 287.706435 -90.116294 
L 288.466394 -89.794659 
L 289.226353 -89.319668 
L 289.986313 -89.409514 
L 290.746272 -85.185104 
L 291.506231 -85.477327 
L 292.26619 -85.215261 
L 293.026149 -84.956689 
L 293.786108 -84.83839 
L 294.546067 -82.908204 
L 295.306027 -82.360787 
L 296.065986 -82.63294 
L 296.825945 -82.385279 
L 297.585904 -82.432785 
L 298.345863 -82.495063 
L 299.105822 -82.08757 
L 299.865781 -81.31567 
L 300.625741 -81.393916 
L 301.3857 -79.610977 
L 302.145659 -76.362675 
L 302.905618 -77.05528 
L 303.665577 -76.879502 
L 304.425536 -77.205658 
L 305.185495 -80.627123 
L 305.945455 -81.18622 
L 306.705414 -81.231172 
L 307.465373 -81.271473 
L 308.225332 -81.332807 
L 308.985291 -80.782097 
L 309.74525 -83.842792 
L 310.505209 -87.129082 
L 311.265169 -86.618988 
L 312.025128 -86.246725 
L 312.785087 -85.437383 
L 313.545046 -86.375045 
L 314.305005 -86.340412 
L 315.064964 -86.522781 
L 315.824923 -86.921992 
L 316.584883 -87.356352 
L 317.344842 -90.541407 
L 318.104801 -89.607226 
L 318.86476 -89.833105 
L 319.624719 -89.551537 
L 320.384678 -85.750498 
L 321.144637 -88.143697 
L 321.904597 -87.656474 
L 322.664556 -87.683353 
L 323.424515 -90.242342 
L 324.184474 -93.016015 
L 324.944433 -92.968223 
L 325.704392 -90.277053 
L 326.464351 -90.396871 
L 327.224311 -90.534504 
L 327.98427 -90.74883 
L 328.744229 -89.777923 
L 329.504188 -90.022402 
L 330.264147 -89.917622 
L 331.024106 -92.074209 
L 331.784065 -91.500089 
L 332.544025 -88.652477 
L 333.303984 -88.445347 
L 334.063943 -88.086937 
L 334.823902 -88.213938 
L 335.583861 -88.357377 
L 336.34382 -85.52979 
L 337.103779 -85.223604 
L 337.863739 -85.247882 
L 338.623698 -82.896165 
L 339.383657 -79.851123 
L 340.143616 -76.54375 
L 340.903575 -76.794133 
L 341.663534 -77.136787 
L 342.423493 -77.960196 
L 343.183453 -77.490596 
L 343.943412 -78.24421 
L 344.703371 -81.786065 
L 345.46333 -82.132989 
L 346.223289 -79.006384 
L 346.983248 -78.964038 
L 347.743207 -78.922449 
L 348.503166 -79.166415 
L 349.263126 -82.464664 
L 350.023085 -82.301624 
L 350.783044 -82.057063 
L 351.543003 -83.717552 
L 352.302962 -83.918771 
L 353.062921 -83.441226 
L 353.82288 -85.793472 
L 354.58284 -85.746525 
L 355.342799 -85.812249 
L 356.102758 -85.220841 
L 356.862717 -88.500676 
L 357.622676 -90.785472 
L 358.382635 -92.273449 
L 359.142594 -94.794849 
L 359.902554 -90.964588 
L 360.662513 -90.221003 
L 361.422472 -90.034084 
L 362.182431 -90.087247 
L 362.94239 -90.417878 
L 363.702349 -90.162673 
L 364.462308 -90.071391 
L 365.222268 -90.12427 
L 365.982227 -90.055755 
L 366.742186 -91.330096 
L 367.502145 -94.080368 
L 368.262104 -94.960787 
L 369.022063 -92.172323 
L 369.782022 -92.23389 
L 370.541982 -92.259135 
L 371.301941 -92.291133 
L 372.0619 -90.943178 
L 372.821859 -90.918978 
L 373.581818 -89.628169 
L 373.581818 -230.047415 
L 373.581818 -230.047415 
L 372.821859 -230.134345 
L 372.0619 -230.127366 
L 371.301941 -228.831076 
L 370.541982 -228.863074 
L 369.782022 -228.836654 
L 369.022063 -228.829334 
L 368.262104 -228.899678 
L 367.502145 -228.832902 
L 366.742186 -228.758809 
L 365.982227 -228.775964 
L 365.222268 -228.759114 
L 364.462308 -228.760328 
L 363.702349 -228.737933 
L 362.94239 -228.70661 
L 362.182431 -228.710029 
L 361.422472 -228.711526 
L 360.662513 -228.662381 
L 359.902554 -228.607665 
L 359.142594 -227.670656 
L 358.382635 -227.884343 
L 357.622676 -228.029025 
L 356.862717 -228.264435 
L 356.102758 -228.978231 
L 355.342799 -228.886253 
L 354.58284 -228.900311 
L 353.82288 -228.887808 
L 353.062921 -229.104559 
L 352.302962 -229.057558 
L 351.543003 -229.086559 
L 350.783044 -229.265978 
L 350.023085 -229.228078 
L 349.263126 -229.202812 
L 348.503166 -229.625031 
L 347.743207 -229.662336 
L 346.983248 -229.655191 
L 346.223289 -229.647288 
L 345.46333 -229.258939 
L 344.703371 -229.295872 
L 343.943412 -229.99614 
L 343.183453 -230.060885 
L 342.423493 -229.987385 
L 341.663534 -230.070259 
L 340.903575 -230.102922 
L 340.143616 -230.146644 
L 339.383657 -229.818632 
L 338.623698 -229.615176 
L 337.863739 -229.502285 
L 337.103779 -229.440454 
L 336.34382 -229.392595 
L 335.583861 -229.337707 
L 334.823902 -229.343372 
L 334.063943 -229.367043 
L 333.303984 -229.284181 
L 332.544025 -229.26649 
L 331.784065 -229.346573 
L 331.024106 -229.392436 
L 330.264147 -229.292975 
L 329.504188 -229.308747 
L 328.744229 -229.363787 
L 327.98427 -229.150636 
L 327.224311 -229.192745 
L 326.464351 -229.209826 
L 325.704392 -229.260757 
L 324.944433 -229.359508 
L 324.184474 -229.34616 
L 323.424515 -229.226581 
L 322.664556 -229.202309 
L 321.904597 -229.229189 
L 321.144637 -229.18973 
L 320.384678 -229.137443 
L 319.624719 -228.298543 
L 318.86476 -228.258079 
L 318.104801 -228.311741 
L 317.344842 -228.255869 
L 316.584883 -228.530449 
L 315.824923 -228.551488 
L 315.064964 -228.589042 
L 314.305005 -228.616416 
L 313.545046 -228.616227 
L 312.785087 -228.796132 
L 312.025128 -228.710103 
L 311.265169 -228.63061 
L 310.505209 -228.533837 
L 309.74525 -228.926875 
L 308.985291 -229.352645 
L 308.225332 -229.266921 
L 307.465373 -229.27659 
L 306.705414 -229.282448 
L 305.945455 -229.292957 
L 305.185495 -229.387067 
L 304.425536 -230.001388 
L 303.665577 -230.051996 
L 302.905618 -230.013993 
L 302.145659 -230.103837 
L 301.3857 -229.731565 
L 300.625741 -229.584691 
L 299.865781 -229.59405 
L 299.105822 -229.511019 
L 298.345863 -229.430739 
L 297.585904 -229.42413 
L 296.825945 -229.368306 
L 296.065986 -229.378971 
L 295.306027 -229.427241 
L 294.546067 -229.362033 
L 293.786108 -229.15402 
L 293.026149 -229.156273 
L 292.26619 -229.104362 
L 291.506231 -229.083401 
L 290.746272 -229.082854 
L 289.986313 -228.233905 
L 289.226353 -228.237643 
L 288.466394 -228.193194 
L 287.706435 -228.164329 
L 286.946476 -228.171336 
L 286.186517 -228.46311 
L 285.426558 -228.668608 
L 284.666599 -228.011725 
L 283.906639 -227.869217 
L 283.14668 -227.387694 
L 282.386721 -227.208591 
L 281.626762 -227.297885 
L 280.866803 -227.298919 
L 280.106844 -227.25116 
L 279.346885 -227.234587 
L 278.586925 -227.514269 
L 277.826966 -227.555734 
L 277.067007 -227.220919 
L 276.307048 -226.979165 
L 275.547089 -226.934992 
L 274.78713 -227.828749 
L 274.027171 -227.831396 
L 273.267211 -227.779241 
L 272.507252 -227.662258 
L 271.747293 -227.622726 
L 270.987334 -227.586728 
L 270.227375 -227.642716 
L 269.467416 -228.698599 
L 268.707457 -228.825902 
L 267.947497 -228.831878 
L 267.187538 -229.122875 
L 266.427579 -229.132606 
L 265.66762 -229.23854 
L 264.907661 -229.231949 
L 264.147702 -229.174092 
L 263.387743 -229.205399 
L 262.627783 -229.280751 
L 261.867824 -229.049645 
L 261.107865 -228.962826 
L 260.347906 -228.810619 
L 259.587947 -228.803646 
L 258.827988 -228.778569 
L 258.068029 -228.751597 
L 257.308069 -228.905869 
L 256.54811 -228.932342 
L 255.788151 -228.740413 
L 255.028192 -228.650851 
L 254.268233 -228.665159 
L 253.508274 -228.5705 
L 252.748315 -228.55814 
L 251.988355 -228.487439 
L 251.228396 -228.328144 
L 250.468437 -228.280246 
L 249.708478 -228.273372 
L 248.948519 -228.381564 
L 248.18856 -228.37716 
L 247.428601 -228.248682 
L 246.668641 -227.208455 
L 245.908682 -227.219422 
L 245.148723 -227.35432 
L 244.388764 -227.384858 
L 243.628805 -227.342558 
L 242.868846 -227.419632 
L 242.108887 -227.411861 
L 241.348927 -227.522616 
L 240.588968 -227.728096 
L 239.829009 -227.83476 
L 239.06905 -228.038359 
L 238.309091 -228.475637 
L 237.549132 -228.937758 
L 236.789173 -229.493451 
L 236.029213 -228.998696 
L 235.269254 -229.670818 
L 234.509295 -230.474028 
L 233.749336 -229.939064 
L 232.989377 -230.605257 
L 232.229418 -231.243077 
L 231.469459 -233.685018 
L 230.709499 -234.223234 
L 229.94954 -234.797211 
L 229.189581 -235.980584 
L 228.429622 -237.231922 
L 227.669663 -237.116612 
L 226.909704 -238.405233 
L 226.149745 -238.534016 
L 225.389785 -239.865103 
L 224.629826 -240.827745 
L 223.869867 -240.923492 
L 223.109908 -240.785191 
L 222.349949 -240.763914 
L 221.58999 -240.785191 
L 220.830031 -242.402283 
L 220.070072 -242.381005 
L 219.310112 -242.370366 
L 218.550153 -243.258342 
L 217.790194 -243.439284 
L 217.030235 -243.556364 
L 216.270276 -243.492502 
L 215.510317 -243.460571 
L 214.750358 -241.69373 
L 213.990398 -241.651156 
L 213.230439 -241.651156 
L 212.47048 -241.438284 
L 211.710521 -241.395709 
L 210.950562 -239.650156 
L 210.190603 -239.660799 
L 209.430644 -239.788523 
L 208.670684 -239.80981 
L 207.910725 -239.948177 
L 207.150766 -239.937533 
L 206.390807 -239.894959 
L 205.630848 -239.95882 
L 204.870889 -239.831097 
L 204.11093 -239.735305 
L 203.35097 -239.714017 
L 202.591011 -238.000395 
L 201.831052 -237.883315 
L 201.071093 -237.84074 
L 200.311134 -237.787522 
L 199.551175 -239.490501 
L 198.791216 -239.362778 
L 198.031256 -239.384065 
L 197.271297 -239.522432 
L 196.511338 -239.42664 
L 195.751379 -240.938033 
L 194.99142 -240.938033 
L 194.231461 -240.959321 
L 193.471502 -240.586794 
L 192.711542 -240.437783 
L 191.951583 -240.352634 
L 191.191624 -240.001395 
L 190.431665 -239.969464 
L 189.671706 -240.129118 
L 188.911747 -240.171693 
L 188.151788 -240.097188 
L 187.391828 -241.736305 
L 186.631869 -241.672443 
L 185.87191 -241.69373 
L 185.111951 -240.012039 
L 184.351992 -240.001395 
L 183.592033 -240.118475 
L 182.832074 -239.990751 
L 182.072114 -239.937533 
L 181.312155 -239.969464 
L 180.552196 -240.171693 
L 179.792237 -240.129118 
L 179.032278 -240.033326 
L 178.272319 -240.288773 
L 177.51236 -240.31006 
L 176.7524 -240.161049 
L 175.992441 -240.565507 
L 175.232482 -240.618725 
L 174.472523 -240.54422 
L 173.712564 -240.416496 
L 172.952605 -240.171693 
L 172.192646 -240.150406 
L 171.432686 -240.118475 
L 170.672727 -240.097188 
L 169.912768 -241.715018 
L 169.152809 -240.022682 
L 168.39285 -239.884315 
L 167.632891 -239.969464 
L 166.872932 -239.905602 
L 166.112972 -239.628868 
L 165.353013 -239.565007 
L 164.593054 -239.628868 
L 163.833095 -239.660799 
L 163.073136 -239.618225 
L 162.313177 -239.266985 
L 161.553218 -239.490501 
L 160.793258 -239.405352 
L 160.033299 -239.320203 
L 159.27334 -239.096687 
L 158.513381 -239.0754 
L 157.753422 -239.277629 
L 156.993463 -239.298916 
L 156.233504 -239.181836 
L 155.473544 -239.0754 
L 154.713585 -239.107331 
L 153.953626 -240.69323 
L 153.193667 -240.480358 
L 152.433708 -240.0759 
L 151.673749 -239.95882 
L 150.91379 -238.585794 
L 150.15383 -238.30906 
L 149.393871 -238.149405 
L 148.633912 -237.979107 
L 147.873953 -237.915246 
L 147.113994 -237.95782 
L 146.354035 -237.606581 
L 145.594076 -237.510788 
L 144.834116 -237.404352 
L 144.074157 -237.510788 
L 143.314198 -237.532075 
L 142.554239 -237.393708 
L 141.79428 -237.085043 
L 141.034321 -237.116974 
L 140.274362 -236.872171 
L 139.514402 -236.467714 
L 138.754443 -236.329346 
L 137.994484 -236.510288 
L 137.234525 -236.659299 
L 136.474566 -236.638011 
L 135.714607 -238.064256 
L 134.954648 -238.160049 
L 134.194688 -238.170693 
L 133.434729 -237.755591 
L 132.67477 -237.659799 
L 131.914811 -237.80881 
L 131.154852 -237.670442 
L 130.394893 -236.116474 
L 129.634934 -235.978107 
L 128.874974 -234.413495 
L 128.115015 -234.040968 
L 127.355056 -233.828096 
L 126.595097 -234.040968 
L 125.835138 -233.785522 
L 125.075179 -232.455069 
L 124.31522 -232.391208 
L 123.55526 -232.306059 
L 122.795301 -232.114473 
L 122.035342 -231.965463 
L 121.275383 -231.699372 
L 120.515424 -231.018181 
L 119.755465 -230.145404 
L 118.995506 -229.4855 
L 118.235546 -229.591936 
L 117.475587 -228.506287 
L 116.715628 -227.005536 
L 115.955669 -225.792164 
L 115.19571 -226.260483 
L 114.435751 -225.696371 
L 113.675792 -225.696371 
L 112.915832 -224.525573 
L 112.155873 -223.344132 
L 111.395914 -221.800807 
L 110.635955 -220.576791 
L 109.875996 -220.576791 
L 109.116037 -219.395349 
L 108.356078 -218.032966 
L 107.596118 -216.723801 
L 106.836159 -215.446566 
L 106.0762 -214.297056 
L 105.316241 -213.552002 
L 104.556282 -212.95596 
L 103.796323 -212.10447 
L 103.036364 -210.933672 
L 102.276404 -210.593076 
L 101.516445 -210.593076 
L 100.756486 -210.593076 
L 99.996527 -210.124757 
L 99.236568 -209.315842 
L 98.476609 -209.315842 
L 97.71665 -209.315842 
L 96.956691 -209.315842 
L 96.196731 -209.315842 
L 95.436772 -209.315842 
L 94.676813 -209.315842 
L 93.916854 -209.315842 
L 93.156895 -209.315842 
L 92.396936 -209.315842 
L 91.636977 -209.315842 
L 90.877017 -209.315842 
L 90.117058 -209.315842 
L 89.357099 -209.315842 
L 88.59714 -209.315842 
L 87.837181 -209.315842 
L 87.077222 -209.315842 
L 86.317263 -209.315842 
L 85.557303 -209.315842 
L 84.797344 -209.315842 
L 84.037385 -209.315842 
L 83.277426 -209.315842 
L 82.517467 -209.315842 
L 81.757508 -209.315842 
L 80.997549 -209.315842 
L 80.237589 -209.315842 
L 79.47763 -209.315842 
L 78.717671 -209.315842 
L 77.957712 -209.315842 
L 77.197753 -209.315842 
L 76.437794 -209.315842 
L 76.057814 -209.315842 
L 75.677835 -209.315842 
L 75.297855 -209.315842 
L 74.917875 -209.315842 
L 74.537896 -209.315842 
L 74.157916 -209.315842 
L 73.777937 -209.315842 
L 73.397957 -209.315842 
L 73.017978 -209.315842 
L 72.637998 -209.315842 
L 72.258018 -209.315842 
L 71.878039 -209.315842 
L 71.498059 -209.315842 
L 71.11808 -209.315842 
L 70.7381 -209.315842 
L 70.358121 -209.315842 
L 69.978141 -209.315842 
L 69.598161 -209.315842 
L 69.218182 -209.315842 
z
" id="m964b3f2dbc" style="stroke:#4c72b0;stroke-opacity:0.2;"/>
    </defs>
    <g clip-path="url(#p93dd6ba8d7)">
     <use style="fill:#4c72b0;fill-opacity:0.2;stroke:#4c72b0;stroke-opacity:0.2;" x="0" xlink:href="#m964b3f2dbc" y="288"/>
    </g>
   </g>
   <g id="PolyCollection_2">
    <defs>
     <path d="M 69.218182 -180.867642 
L 69.218182 -71.746498 
L 69.598161 -85.801297 
L 69.978141 -82.266277 
L 70.358121 -86.433127 
L 70.7381 -83.431738 
L 71.11808 -80.704547 
L 71.498059 -78.975087 
L 71.878039 -76.834603 
L 72.258018 -75.13828 
L 72.637998 -73.2259 
L 73.017978 -72.474392 
L 73.397957 -72.830936 
L 73.777937 -73.011967 
L 74.157916 -73.21136 
L 74.537896 -73.340273 
L 74.917875 -73.374502 
L 75.297855 -72.964687 
L 75.677835 -72.785591 
L 76.057814 -72.597146 
L 76.437794 -72.313476 
L 77.197753 -72.338866 
L 77.957712 -70.869365 
L 78.717671 -70.37058 
L 79.47763 -69.214182 
L 80.237589 -69.062288 
L 80.997549 -68.955012 
L 81.757508 -68.93014 
L 82.517467 -68.847077 
L 83.277426 -68.443241 
L 84.037385 -67.650003 
L 84.797344 -66.095481 
L 85.557303 -65.034826 
L 86.317263 -64.384501 
L 87.077222 -63.403345 
L 87.837181 -62.748701 
L 88.59714 -62.375938 
L 89.357099 -61.466409 
L 90.117058 -59.811602 
L 90.877017 -62.601035 
L 91.636977 -62.250233 
L 92.396936 -61.763127 
L 93.156895 -62.875733 
L 93.916854 -63.552495 
L 94.676813 -63.175856 
L 95.436772 -63.027074 
L 96.196731 -62.424695 
L 96.956691 -61.625999 
L 97.71665 -60.704034 
L 98.476609 -61.562786 
L 99.236568 -61.799264 
L 99.996527 -61.562948 
L 100.756486 -61.45981 
L 101.516445 -60.751795 
L 102.276404 -60.4931 
L 103.036364 -60.417026 
L 103.796323 -60.192019 
L 104.556282 -59.213713 
L 105.316241 -59.817011 
L 106.0762 -58.182688 
L 106.836159 -60.625755 
L 107.596118 -60.096383 
L 108.356078 -57.678808 
L 109.116037 -57.17236 
L 109.875996 -55.621186 
L 110.635955 -54.149079 
L 111.395914 -56.22229 
L 112.155873 -56.061362 
L 112.915832 -58.866584 
L 113.675792 -58.864037 
L 114.435751 -57.164871 
L 115.19571 -59.806965 
L 115.955669 -59.573557 
L 116.715628 -60.519276 
L 117.475587 -61.405106 
L 118.235546 -62.871496 
L 118.995506 -63.346028 
L 119.755465 -63.389047 
L 120.515424 -63.233068 
L 121.275383 -63.15818 
L 122.035342 -62.338268 
L 122.795301 -61.497053 
L 123.55526 -61.429684 
L 124.31522 -61.395256 
L 125.075179 -61.369508 
L 125.835138 -61.644523 
L 126.595097 -61.185103 
L 127.355056 -60.568828 
L 128.115015 -59.253298 
L 128.874974 -58.473344 
L 129.634934 -58.401867 
L 130.394893 -55.246359 
L 131.154852 -55.306149 
L 131.914811 -60.322743 
L 132.67477 -60.289706 
L 133.434729 -58.556753 
L 134.194688 -55.61093 
L 134.954648 -56.920605 
L 135.714607 -57.117944 
L 136.474566 -56.255718 
L 137.234525 -57.826066 
L 137.994484 -58.354019 
L 138.754443 -57.382332 
L 139.514402 -57.746065 
L 140.274362 -59.07504 
L 141.034321 -58.196658 
L 141.79428 -59.091786 
L 142.554239 -58.71972 
L 143.314198 -58.703808 
L 144.074157 -58.858693 
L 144.834116 -58.89692 
L 145.594076 -58.926031 
L 146.354035 -59.016144 
L 147.113994 -54.832705 
L 147.873953 -58.254764 
L 148.633912 -58.631177 
L 149.393871 -58.579627 
L 150.15383 -58.589171 
L 150.91379 -57.530215 
L 151.673749 -56.825301 
L 152.433708 -57.770212 
L 153.193667 -57.947668 
L 153.953626 -57.279702 
L 154.713585 -56.898225 
L 155.473544 -56.696117 
L 156.233504 -56.645973 
L 156.993463 -55.823662 
L 157.753422 -55.59696 
L 158.513381 -55.515392 
L 159.27334 -53.06377 
L 160.033299 -53.123351 
L 160.793258 -55.763054 
L 161.553218 -55.648891 
L 162.313177 -55.653334 
L 163.073136 -52.871872 
L 163.833095 -52.476081 
L 164.593054 -52.388421 
L 165.353013 -51.50578 
L 166.112972 -50.699221 
L 166.872932 -50.635744 
L 167.632891 -53.755304 
L 168.39285 -53.834474 
L 169.152809 -53.741549 
L 169.912768 -53.763772 
L 170.672727 -50.783297 
L 171.432686 -50.853034 
L 172.192646 -50.853873 
L 172.952605 -50.834578 
L 173.712564 -50.726742 
L 174.472523 -51.501153 
L 175.232482 -56.579046 
L 175.992441 -56.422494 
L 176.7524 -56.381235 
L 177.51236 -56.138983 
L 178.272319 -56.417793 
L 179.032278 -58.549321 
L 179.792237 -58.493546 
L 180.552196 -55.461606 
L 181.312155 -52.352897 
L 182.072114 -52.296262 
L 182.832074 -51.145648 
L 183.592033 -50.97536 
L 184.351992 -51.14173 
L 185.111951 -51.098029 
L 185.87191 -51.114025 
L 186.631869 -51.605456 
L 187.391828 -50.30377 
L 188.151788 -53.567375 
L 188.911747 -53.631427 
L 189.671706 -52.599741 
L 190.431665 -49.585637 
L 191.191624 -49.758175 
L 191.951583 -49.660988 
L 192.711542 -48.901794 
L 193.471502 -47.594899 
L 194.231461 -48.800073 
L 194.99142 -48.839636 
L 195.751379 -48.38983 
L 196.511338 -47.299487 
L 197.271297 -50.512193 
L 198.031256 -49.995116 
L 198.791216 -51.392597 
L 199.551175 -51.305369 
L 200.311134 -51.395877 
L 201.071093 -49.997225 
L 201.831052 -51.419808 
L 202.591011 -50.134445 
L 203.35097 -50.451946 
L 204.11093 -50.474329 
L 204.870889 -48.726619 
L 205.630848 -50.221262 
L 206.390807 -51.3793 
L 207.150766 -51.378465 
L 207.910725 -51.322092 
L 208.670684 -51.997814 
L 209.430644 -52.572811 
L 210.190603 -52.424423 
L 210.950562 -52.344899 
L 211.710521 -55.384598 
L 212.47048 -52.712998 
L 213.230439 -52.746531 
L 213.990398 -50.279149 
L 214.750358 -50.085032 
L 215.510317 -50.076434 
L 216.270276 -51.491837 
L 217.030235 -53.849556 
L 217.790194 -57.830896 
L 218.550153 -59.923491 
L 219.310112 -62.678611 
L 220.070072 -60.27055 
L 220.830031 -60.292154 
L 221.58999 -60.333514 
L 222.349949 -60.353465 
L 223.109908 -60.356196 
L 223.869867 -60.32722 
L 224.629826 -56.012858 
L 225.389785 -56.075378 
L 226.149745 -56.067628 
L 226.909704 -55.13175 
L 227.669663 -55.197057 
L 228.429622 -55.184012 
L 229.189581 -55.099637 
L 229.94954 -54.863718 
L 230.709499 -54.784049 
L 231.469459 -54.792567 
L 232.229418 -54.354618 
L 232.989377 -54.43771 
L 233.749336 -52.687982 
L 234.509295 -52.513085 
L 235.269254 -54.893807 
L 236.029213 -54.901072 
L 236.789173 -54.829224 
L 237.549132 -54.105515 
L 238.309091 -54.156662 
L 239.06905 -54.044485 
L 239.829009 -51.471139 
L 240.588968 -51.455017 
L 241.348927 -53.571494 
L 242.108887 -53.632409 
L 242.868846 -53.761906 
L 243.628805 -57.092276 
L 244.388764 -59.037352 
L 245.148723 -57.538886 
L 245.908682 -57.578712 
L 246.668641 -57.784319 
L 247.428601 -57.749079 
L 248.18856 -57.639806 
L 248.948519 -59.307268 
L 249.708478 -55.507203 
L 250.468437 -53.495352 
L 251.228396 -55.327212 
L 251.988355 -55.281701 
L 252.748315 -55.340394 
L 253.508274 -54.716859 
L 254.268233 -55.141135 
L 255.028192 -55.480323 
L 255.788151 -55.865696 
L 256.54811 -54.893561 
L 257.308069 -58.669967 
L 258.068029 -58.498274 
L 258.827988 -53.513263 
L 259.587947 -51.401171 
L 260.347906 -49.902458 
L 261.107865 -49.98986 
L 261.867824 -49.716894 
L 262.627783 -51.274227 
L 263.387743 -51.266665 
L 264.147702 -47.627475 
L 264.907661 -45.953126 
L 265.66762 -45.883636 
L 266.427579 -47.372354 
L 267.187538 -50.304229 
L 267.947497 -51.713492 
L 268.707457 -52.827126 
L 269.467416 -52.62302 
L 270.227375 -53.500742 
L 270.987334 -51.955745 
L 271.747293 -51.932817 
L 272.507252 -49.033951 
L 273.267211 -49.066323 
L 274.027171 -50.293877 
L 274.78713 -50.227983 
L 275.547089 -50.227993 
L 276.307048 -49.971797 
L 277.067007 -50.008224 
L 277.826966 -53.020015 
L 278.586925 -53.012494 
L 279.346885 -53.816193 
L 280.106844 -53.17979 
L 280.866803 -53.221587 
L 281.626762 -53.282222 
L 282.386721 -50.770623 
L 283.14668 -50.998386 
L 283.906639 -51.03074 
L 284.666599 -51.077035 
L 285.426558 -51.186503 
L 286.186517 -51.45222 
L 286.946476 -51.665239 
L 287.706435 -51.542767 
L 288.466394 -50.671808 
L 289.226353 -53.869548 
L 289.986313 -53.956568 
L 290.746272 -54.02952 
L 291.506231 -54.868215 
L 292.26619 -53.965785 
L 293.026149 -50.953573 
L 293.786108 -51.028924 
L 294.546067 -48.273479 
L 295.306027 -48.329527 
L 296.065986 -48.379861 
L 296.825945 -48.321882 
L 297.585904 -48.824709 
L 298.345863 -48.826217 
L 299.105822 -48.810755 
L 299.865781 -48.751928 
L 300.625741 -48.715221 
L 301.3857 -48.408674 
L 302.145659 -50.254818 
L 302.905618 -50.374222 
L 303.665577 -49.020806 
L 304.425536 -46.11805 
L 305.185495 -46.066372 
L 305.945455 -45.958547 
L 306.705414 -48.315775 
L 307.465373 -48.357228 
L 308.225332 -48.331906 
L 308.985291 -48.330987 
L 309.74525 -50.032139 
L 310.505209 -50.085361 
L 311.265169 -48.180309 
L 312.025128 -46.290561 
L 312.785087 -46.04233 
L 313.545046 -47.894021 
L 314.305005 -47.950092 
L 315.064964 -48.392839 
L 315.824923 -48.343371 
L 316.584883 -48.328353 
L 317.344842 -48.414707 
L 318.104801 -48.313666 
L 318.86476 -45.986019 
L 319.624719 -47.834175 
L 320.384678 -48.112798 
L 321.144637 -48.637192 
L 321.904597 -46.503958 
L 322.664556 -50.498563 
L 323.424515 -50.470644 
L 324.184474 -50.41278 
L 324.944433 -50.459471 
L 325.704392 -50.609097 
L 326.464351 -51.903367 
L 327.224311 -52.317576 
L 327.98427 -51.765613 
L 328.744229 -51.338002 
L 329.504188 -51.265491 
L 330.264147 -51.15209 
L 331.024106 -51.132063 
L 331.784065 -51.120835 
L 332.544025 -50.992511 
L 333.303984 -50.939753 
L 334.063943 -51.007575 
L 334.823902 -50.936683 
L 335.583861 -50.721182 
L 336.34382 -49.208714 
L 337.103779 -49.256041 
L 337.863739 -48.713302 
L 338.623698 -48.568738 
L 339.383657 -48.685081 
L 340.143616 -48.756179 
L 340.903575 -48.597488 
L 341.663534 -48.611313 
L 342.423493 -48.589336 
L 343.183453 -48.760937 
L 343.943412 -51.182855 
L 344.703371 -51.15919 
L 345.46333 -51.172921 
L 346.223289 -51.136417 
L 346.983248 -51.160705 
L 347.743207 -51.094787 
L 348.503166 -51.13633 
L 349.263126 -51.074325 
L 350.023085 -51.122876 
L 350.783044 -51.152225 
L 351.543003 -51.797709 
L 352.302962 -50.551691 
L 353.062921 -50.509254 
L 353.82288 -50.26921 
L 354.58284 -50.230579 
L 355.342799 -50.240216 
L 356.102758 -50.274094 
L 356.862717 -53.885726 
L 357.622676 -54.046379 
L 358.382635 -58.741486 
L 359.142594 -51.285616 
L 359.902554 -51.278374 
L 360.662513 -50.561939 
L 361.422472 -50.640789 
L 362.182431 -50.697646 
L 362.94239 -50.717867 
L 363.702349 -50.993024 
L 364.462308 -51.030545 
L 365.222268 -51.069242 
L 365.982227 -51.157076 
L 366.742186 -51.150408 
L 367.502145 -51.22937 
L 368.262104 -51.143712 
L 369.022063 -51.135703 
L 369.782022 -51.046414 
L 370.541982 -51.0623 
L 371.301941 -54.021438 
L 372.0619 -53.835341 
L 372.821859 -53.721908 
L 373.581818 -51.47234 
L 373.581818 -59.958001 
L 373.581818 -59.958001 
L 372.821859 -60.842789 
L 372.0619 -60.918795 
L 371.301941 -67.139185 
L 370.541982 -66.99841 
L 369.782022 -67.134848 
L 369.022063 -67.114445 
L 368.262104 -67.106437 
L 367.502145 -67.124109 
L 366.742186 -67.134184 
L 365.982227 -67.248068 
L 365.222268 -67.370346 
L 364.462308 -67.374599 
L 363.702349 -67.377677 
L 362.94239 -64.501256 
L 362.182431 -64.504255 
L 361.422472 -64.509447 
L 360.662513 -64.502188 
L 359.902554 -60.685841 
L 359.142594 -60.816373 
L 358.382635 -59.611993 
L 357.622676 -61.276074 
L 356.862717 -61.247288 
L 356.102758 -58.417991 
L 355.342799 -58.331317 
L 354.58284 -58.392619 
L 353.82288 -58.371209 
L 353.062921 -58.389492 
L 352.302962 -58.312611 
L 351.543003 -60.235393 
L 350.783044 -64.032455 
L 350.023085 -63.958473 
L 349.263126 -63.938138 
L 348.503166 -63.910576 
L 347.743207 -63.900454 
L 346.983248 -63.903423 
L 346.223289 -63.979376 
L 345.46333 -63.977315 
L 344.703371 -63.956603 
L 343.943412 -63.881273 
L 343.183453 -63.117169 
L 342.423493 -63.219883 
L 341.663534 -63.301237 
L 340.903575 -63.401171 
L 340.143616 -63.483584 
L 339.383657 -63.451352 
L 338.623698 -63.378255 
L 337.863739 -62.940922 
L 337.103779 -66.014747 
L 336.34382 -62.910497 
L 335.583861 -64.480719 
L 334.823902 -65.109084 
L 334.063943 -65.141522 
L 333.303984 -65.140457 
L 332.544025 -65.070478 
L 331.784065 -65.079927 
L 331.024106 -65.085921 
L 330.264147 -65.169224 
L 329.504188 -65.434701 
L 328.744229 -65.465521 
L 327.98427 -61.937997 
L 327.224311 -61.816578 
L 326.464351 -65.313478 
L 325.704392 -69.673217 
L 324.944433 -69.667847 
L 324.184474 -69.645651 
L 323.424515 -69.62223 
L 322.664556 -69.68042 
L 321.904597 -73.244482 
L 321.144637 -74.228383 
L 320.384678 -68.484064 
L 319.624719 -67.987709 
L 318.86476 -72.987443 
L 318.104801 -73.897482 
L 317.344842 -73.88255 
L 316.584883 -73.934461 
L 315.824923 -73.867777 
L 315.064964 -73.766644 
L 314.305005 -73.813291 
L 313.545046 -73.852141 
L 312.785087 -78.838188 
L 312.025128 -78.796618 
L 311.265169 -73.824178 
L 310.505209 -68.853657 
L 309.74525 -68.82077 
L 308.985291 -73.845718 
L 308.225332 -74.017016 
L 307.465373 -73.940029 
L 306.705414 -73.929816 
L 305.945455 -73.101023 
L 305.185495 -73.182638 
L 304.425536 -73.165403 
L 303.665577 -70.520973 
L 302.905618 -69.133113 
L 302.145659 -69.114743 
L 301.3857 -73.95747 
L 300.625741 -74.219241 
L 299.865781 -74.320307 
L 299.105822 -74.330368 
L 298.345863 -74.297684 
L 297.585904 -74.316414 
L 296.825945 -74.233701 
L 296.065986 -74.261831 
L 295.306027 -74.294943 
L 294.546067 -74.247661 
L 293.786108 -71.440551 
L 293.026149 -71.481458 
L 292.26619 -71.706933 
L 291.506231 -67.670147 
L 290.746272 -71.677641 
L 289.986313 -71.733371 
L 289.226353 -71.751504 
L 288.466394 -71.504897 
L 287.706435 -67.430695 
L 286.946476 -67.532105 
L 286.186517 -64.645212 
L 285.426558 -67.563076 
L 284.666599 -67.362553 
L 283.906639 -67.357183 
L 283.14668 -67.32065 
L 282.386721 -64.500166 
L 281.626762 -65.1057 
L 280.866803 -65.01134 
L 280.106844 -64.967028 
L 279.346885 -67.740529 
L 278.586925 -71.678585 
L 277.826966 -71.567733 
L 277.067007 -74.441751 
L 276.307048 -74.512621 
L 275.547089 -71.380395 
L 274.78713 -71.32874 
L 274.027171 -71.280067 
L 273.267211 -75.693643 
L 272.507252 -75.743236 
L 271.747293 -75.927061 
L 270.987334 -75.904133 
L 270.227375 -72.171976 
L 269.467416 -79.490627 
L 268.707457 -79.648178 
L 267.947497 -83.896168 
L 267.187538 -88.353678 
L 266.427579 -87.996201 
L 265.66762 -92.722606 
L 264.907661 -92.670337 
L 264.147702 -88.03385 
L 263.387743 -81.380856 
L 262.627783 -81.442181 
L 261.867824 -79.830715 
L 261.107865 -79.695522 
L 260.347906 -79.64515 
L 259.587947 -81.263571 
L 258.827988 -82.320279 
L 258.068029 -77.249159 
L 257.308069 -77.284127 
L 256.54811 -77.926177 
L 255.788151 -86.408776 
L 255.028192 -85.795288 
L 254.268233 -79.83132 
L 253.508274 -79.89394 
L 252.748315 -76.187714 
L 251.988355 -76.229185 
L 251.228396 -76.252561 
L 250.468437 -74.915621 
L 249.708478 -76.141457 
L 248.948519 -75.320752 
L 248.18856 -76.936549 
L 247.428601 -76.930607 
L 246.668641 -76.947032 
L 245.908682 -76.997643 
L 245.148723 -76.916918 
L 244.388764 -72.318539 
L 243.628805 -71.129259 
L 242.868846 -71.39416 
L 242.108887 -71.420325 
L 241.348927 -71.412354 
L 240.588968 -64.160206 
L 239.829009 -64.299079 
L 239.06905 -64.928977 
L 238.309091 -64.851243 
L 237.549132 -64.90239 
L 236.789173 -61.113212 
L 236.029213 -61.144694 
L 235.269254 -61.15196 
L 234.509295 -60.294995 
L 233.749336 -60.171763 
L 232.989377 -61.521948 
L 232.229418 -64.946057 
L 231.469459 -67.728573 
L 230.709499 -67.805977 
L 229.94954 -67.829639 
L 229.189581 -67.903712 
L 228.429622 -67.905445 
L 227.669663 -67.961287 
L 226.909704 -67.940485 
L 226.149745 -70.121742 
L 225.389785 -70.09677 
L 224.629826 -69.969851 
L 223.869867 -68.807067 
L 223.109908 -68.812534 
L 222.349949 -68.901373 
L 221.58999 -68.86966 
L 220.830031 -68.807689 
L 220.070072 -68.829294 
L 219.310112 -69.779471 
L 218.550153 -69.417457 
L 217.790194 -65.327447 
L 217.030235 -65.847219 
L 216.270276 -65.156691 
L 215.510317 -69.792558 
L 214.750358 -69.921734 
L 213.990398 -69.417625 
L 213.230439 -70.050156 
L 212.47048 -70.014802 
L 211.710521 -73.784132 
L 210.950562 -73.775584 
L 210.190603 -73.730503 
L 209.430644 -73.73711 
L 208.670684 -67.940065 
L 207.910725 -71.767365 
L 207.150766 -71.745435 
L 206.390807 -71.796266 
L 205.630848 -76.295321 
L 204.870889 -81.010429 
L 204.11093 -82.362631 
L 203.35097 -82.350571 
L 202.591011 -88.90234 
L 201.831052 -90.82022 
L 201.071093 -95.325494 
L 200.311134 -90.792487 
L 199.551175 -90.693555 
L 198.791216 -90.675214 
L 198.031256 -88.955561 
L 197.271297 -89.006801 
L 196.511338 -85.795799 
L 195.751379 -87.805369 
L 194.99142 -90.541584 
L 194.231461 -90.512261 
L 193.471502 -95.041229 
L 192.711542 -90.703308 
L 191.951583 -93.76734 
L 191.191624 -93.73904 
L 190.431665 -93.722139 
L 189.671706 -93.859613 
L 188.911747 -86.628102 
L 188.151788 -86.606045 
L 187.391828 -83.549273 
L 186.631869 -79.182117 
L 185.87191 -76.676966 
L 185.111951 -76.641297 
L 184.351992 -76.632039 
L 183.592033 -76.677857 
L 182.832074 -76.610899 
L 182.072114 -78.353538 
L 181.312155 -78.451898 
L 180.552196 -78.563653 
L 179.792237 -75.548936 
L 179.032278 -75.596492 
L 178.272319 -74.559219 
L 177.51236 -81.141185 
L 176.7524 -76.972377 
L 175.992441 -76.965561 
L 175.232482 -76.981227 
L 174.472523 -75.893738 
L 173.712564 -79.768062 
L 172.952605 -79.797999 
L 172.192646 -79.916479 
L 171.432686 -79.934539 
L 170.672727 -79.918168 
L 169.912768 -80.209823 
L 169.152809 -80.214824 
L 168.39285 -80.242451 
L 167.632891 -80.269956 
L 166.872932 -80.169052 
L 166.112972 -80.243348 
L 165.353013 -73.150855 
L 164.593054 -69.116637 
L 163.833095 -69.201194 
L 163.073136 -75.02245 
L 162.313177 -69.123853 
L 161.553218 -69.197183 
L 160.793258 -69.169128 
L 160.033299 -68.898358 
L 159.27334 -68.854609 
L 158.513381 -66.454652 
L 157.753422 -66.407527 
L 156.993463 -69.229073 
L 156.233504 -74.675474 
L 155.473544 -74.797547 
L 154.713585 -77.695353 
L 153.953626 -77.847749 
L 153.193667 -80.314139 
L 152.433708 -83.71206 
L 151.673749 -87.739662 
L 150.91379 -90.186325 
L 150.15383 -92.537273 
L 149.393871 -92.684591 
L 148.633912 -92.633042 
L 147.873953 -86.861295 
L 147.113994 -87.26955 
L 146.354035 -89.492597 
L 145.594076 -89.651596 
L 144.834116 -89.422382 
L 144.074157 -93.094395 
L 143.314198 -93.300945 
L 142.554239 -93.371142 
L 141.79428 -93.222959 
L 141.034321 -91.104283 
L 140.274362 -93.325813 
L 139.514402 -88.437741 
L 138.754443 -88.543148 
L 137.994484 -84.747096 
L 137.234525 -82.41624 
L 136.474566 -80.903898 
L 135.714607 -76.993425 
L 134.954648 -73.970299 
L 134.194688 -78.534882 
L 133.434729 -78.67175 
L 132.67477 -80.193705 
L 131.914811 -80.384551 
L 131.154852 -85.625028 
L 130.394893 -85.719261 
L 129.634934 -88.953017 
L 128.874974 -88.760989 
L 128.115015 -88.773234 
L 127.355056 -90.712612 
L 126.595097 -87.065311 
L 125.835138 -86.829775 
L 125.075179 -84.125429 
L 124.31522 -87.354589 
L 123.55526 -87.561265 
L 122.795301 -87.63167 
L 122.035342 -92.852506 
L 121.275383 -95.494164 
L 120.515424 -95.643158 
L 119.755465 -95.814392 
L 118.995506 -95.857411 
L 118.235546 -93.714239 
L 117.475587 -92.528482 
L 116.715628 -96.583111 
L 115.955669 -91.449557 
L 115.19571 -91.767245 
L 114.435751 -88.795053 
L 113.675792 -84.736509 
L 112.915832 -84.372305 
L 112.155873 -87.40141 
L 111.395914 -87.688246 
L 110.635955 -87.00598 
L 109.875996 -89.081551 
L 109.116037 -84.826564 
L 108.356078 -87.798907 
L 107.596118 -89.049562 
L 106.836159 -82.76813 
L 106.0762 -82.782931 
L 105.316241 -84.799617 
L 104.556282 -88.847263 
L 103.796323 -85.268474 
L 103.036364 -85.456789 
L 102.276404 -85.656262 
L 101.516445 -85.91422 
L 100.756486 -85.981183 
L 99.996527 -86.343032 
L 99.236568 -86.675033 
L 98.476609 -87.152615 
L 97.71665 -85.686433 
L 96.956691 -82.525643 
L 96.196731 -82.811915 
L 95.436772 -82.984515 
L 94.676813 -80.614129 
L 93.916854 -81.959664 
L 93.156895 -80.10483 
L 92.396936 -79.391932 
L 91.636977 -80.248122 
L 90.877017 -80.327863 
L 90.117058 -81.136796 
L 89.357099 -78.483128 
L 88.59714 -78.813565 
L 87.837181 -80.025202 
L 87.077222 -81.041065 
L 86.317263 -78.751058 
L 85.557303 -80.064011 
L 84.797344 -81.293847 
L 84.037385 -83.700324 
L 83.277426 -87.40196 
L 82.517467 -92.044092 
L 81.757508 -95.939251 
L 80.997549 -101.115343 
L 80.237589 -104.814071 
L 79.47763 -110.655341 
L 78.717671 -116.301529 
L 77.957712 -121.382587 
L 77.197753 -126.870668 
L 76.437794 -132.252018 
L 76.057814 -135.548657 
L 75.677835 -138.687733 
L 75.297855 -141.315893 
L 74.917875 -145.140599 
L 74.537896 -149.216196 
L 74.157916 -153.939212 
L 73.777937 -159.227534 
L 73.397957 -164.57067 
L 73.017978 -170.526888 
L 72.637998 -172.947311 
L 72.258018 -173.687078 
L 71.878039 -173.885146 
L 71.498059 -177.132606 
L 71.11808 -177.076114 
L 70.7381 -183.579774 
L 70.358121 -182.886098 
L 69.978141 -180.336471 
L 69.598161 -185.756754 
L 69.218182 -180.867642 
z
" id="m28f9aa57f4" style="stroke:#dd8452;stroke-opacity:0.2;"/>
    </defs>
    <g clip-path="url(#p93dd6ba8d7)">
     <use style="fill:#dd8452;fill-opacity:0.2;stroke:#dd8452;stroke-opacity:0.2;" x="0" xlink:href="#m28f9aa57f4" y="288"/>
    </g>
   </g>
   <g id="line2d_16">
    <path clip-path="url(#p93dd6ba8d7)" d="M 69.218182 78.684158 
L 99.236568 78.684158 
L 99.996527 79.338584 
L 100.756486 79.717462 
L 102.276404 79.717462 
L 103.036364 79.99301 
L 103.796323 80.940205 
L 104.556282 81.629075 
L 106.0762 82.714044 
L 107.596118 84.677322 
L 109.875996 87.794457 
L 110.635955 87.794457 
L 111.395914 88.784707 
L 112.155873 90.033283 
L 113.675792 91.936284 
L 114.435751 91.936284 
L 115.19571 92.392661 
L 115.955669 92.013782 
L 116.715628 92.995421 
L 117.475587 94.209554 
L 118.235546 95.087862 
L 118.995506 95.001754 
L 119.755465 95.535627 
L 120.515424 96.241719 
L 121.275383 96.792814 
L 122.795301 97.128638 
L 124.31522 97.352521 
L 125.075179 97.404186 
L 125.835138 98.480545 
L 126.595097 98.687205 
L 127.355056 98.514988 
L 128.115015 98.687205 
L 128.874974 98.988586 
L 129.634934 100.254383 
L 130.394893 100.366325 
L 131.154852 101.623511 
L 131.914811 101.735453 
L 132.67477 101.614901 
L 133.434729 101.692398 
L 134.194688 102.028222 
L 135.714607 101.942114 
L 136.474566 100.788257 
L 137.234525 100.805479 
L 138.754443 100.538542 
L 139.514402 100.650483 
L 140.274362 100.977696 
L 141.034321 101.175746 
L 141.79428 101.149914 
L 142.554239 101.399629 
L 143.314198 101.51157 
L 145.594076 101.494348 
L 146.354035 101.571846 
L 147.113994 101.856005 
L 148.633912 101.873227 
L 150.91379 102.364046 
L 151.673749 103.474848 
L 152.433708 103.569568 
L 153.193667 103.896781 
L 153.953626 104.068998 
L 154.713585 102.785979 
L 155.473544 102.760146 
L 157.753422 102.923753 
L 158.513381 102.760146 
L 159.27334 102.777368 
L 160.793258 103.027083 
L 161.553218 103.09597 
L 162.313177 102.915142 
L 163.073136 103.1993 
L 164.593054 103.207911 
L 166.112972 103.207911 
L 166.872932 103.431794 
L 167.632891 103.483459 
L 168.39285 103.414572 
L 169.152809 103.526513 
L 169.912768 104.895642 
L 170.672727 103.586789 
L 172.952605 103.647066 
L 174.472523 103.948446 
L 175.992441 103.965668 
L 176.7524 103.638455 
L 177.51236 103.759007 
L 178.272319 103.741785 
L 179.032278 103.535124 
L 180.552196 103.647066 
L 181.312155 103.483459 
L 182.832074 103.500681 
L 183.592033 103.604011 
L 185.111951 103.517903 
L 185.87191 104.87842 
L 187.391828 104.912863 
L 188.151788 103.586789 
L 189.671706 103.612622 
L 190.431665 103.483459 
L 191.191624 103.509292 
L 191.951583 103.79345 
L 193.471502 103.982889 
L 194.231461 104.28427 
L 195.751379 104.267048 
L 196.511338 103.044305 
L 197.271297 103.121803 
L 198.791216 102.99264 
L 199.551175 103.09597 
L 200.311134 101.718231 
L 202.591011 101.890448 
L 203.35097 103.276798 
L 204.870889 103.371518 
L 205.630848 103.474848 
L 207.150766 103.457626 
L 207.910725 103.466237 
L 210.190603 103.233744 
L 210.950562 103.225133 
L 211.710521 104.637315 
L 212.47048 104.671759 
L 213.230439 104.843976 
L 214.750358 104.87842 
L 215.510317 106.307824 
L 217.790194 106.290602 
L 218.550153 106.144217 
L 219.310112 106.815865 
L 220.830031 106.841698 
L 221.58999 105.532846 
L 223.109908 105.532846 
L 223.869867 105.644787 
L 224.629826 105.567289 
L 226.149745 107.547789 
L 226.909704 107.642509 
L 227.669663 108.572482 
L 228.429622 108.667202 
L 229.94954 110.914639 
L 231.469459 111.92211 
L 232.229418 111.293517 
L 232.989377 111.732671 
L 233.749336 113.050134 
L 234.509295 112.481817 
L 236.029213 114.522592 
L 236.789173 116.968079 
L 238.309091 119.327457 
L 239.829009 121.583505 
L 240.588968 122.057102 
L 241.348927 122.057102 
L 242.108887 122.789026 
L 242.868846 122.944022 
L 243.628805 122.840691 
L 244.388764 123.02152 
L 245.148723 122.62542 
L 245.908682 122.909578 
L 246.668641 122.315428 
L 247.428601 124.270096 
L 248.18856 125.088128 
L 248.948519 125.277567 
L 249.708478 126.543365 
L 250.468437 126.405591 
L 251.228396 126.009491 
L 251.988355 126.138654 
L 252.748315 124.890078 
L 255.028192 125.200069 
L 255.788151 125.002019 
L 256.54811 125.286178 
L 257.308069 125.355065 
L 258.068029 125.148404 
L 258.827988 125.182848 
L 259.587947 125.01063 
L 260.347906 125.656445 
L 261.107865 125.923382 
L 261.867824 126.035324 
L 262.627783 124.700639 
L 264.147702 124.915911 
L 264.907661 124.803969 
L 265.66762 125.122572 
L 266.427579 125.785608 
L 267.187538 126.018102 
L 267.947497 127.09446 
L 268.707457 125.785608 
L 269.467416 125.251735 
L 270.227375 123.796498 
L 270.987334 124.063435 
L 271.747293 124.140933 
L 272.507252 124.674806 
L 273.267211 125.036463 
L 274.027171 126.30226 
L 274.78713 126.68975 
L 275.547089 125.139793 
L 276.307048 125.484228 
L 277.826966 127.98138 
L 278.586925 127.860828 
L 279.346885 126.99113 
L 280.106844 127.034184 
L 280.866803 127.232234 
L 281.626762 127.240845 
L 282.386721 127.016963 
L 283.14668 127.473339 
L 283.906639 128.919965 
L 284.666599 129.307454 
L 285.426558 130.969351 
L 286.186517 130.237427 
L 286.946476 128.980241 
L 287.706435 128.859688 
L 289.226353 129.221345 
L 289.986313 129.178291 
L 290.746272 130.866021 
L 291.506231 130.719636 
L 293.786108 131.003795 
L 294.546067 131.864882 
L 295.306027 132.105986 
L 296.065986 131.994045 
L 296.825945 132.123208 
L 298.345863 132.037099 
L 299.105822 132.200705 
L 299.865781 132.54514 
L 300.625741 132.510697 
L 301.3857 133.328729 
L 302.145659 134.766744 
L 302.905618 134.465364 
L 303.665577 134.534251 
L 304.425536 134.396477 
L 305.185495 132.992905 
L 305.945455 132.760412 
L 308.225332 132.700136 
L 308.985291 132.932629 
L 310.505209 130.16854 
L 312.785087 130.883243 
L 313.545046 130.504364 
L 315.064964 130.444088 
L 316.584883 130.056599 
L 317.344842 128.601362 
L 318.104801 129.040517 
L 318.86476 128.954408 
L 319.624719 129.07496 
L 320.384678 130.55603 
L 321.144637 129.333286 
L 321.904597 129.557169 
L 322.664556 129.557169 
L 324.184474 126.818913 
L 324.944433 126.836134 
L 325.704392 128.231095 
L 327.98427 128.050267 
L 328.744229 128.429145 
L 329.504188 128.334425 
L 330.264147 128.394702 
L 331.024106 127.266678 
L 331.784065 127.576669 
L 332.544025 129.040517 
L 334.823902 129.221345 
L 335.583861 129.152458 
L 336.34382 130.538808 
L 337.103779 130.667971 
L 337.863739 130.624916 
L 338.623698 131.744329 
L 340.143616 134.654803 
L 341.663534 134.396477 
L 342.423493 134.026209 
L 343.183453 134.224259 
L 343.943412 133.879825 
L 344.703371 132.459031 
L 345.46333 132.304036 
L 346.223289 133.673164 
L 347.743207 133.707607 
L 348.503166 133.604277 
L 349.263126 132.166262 
L 350.783044 132.338479 
L 351.543003 131.597945 
L 352.302962 131.511836 
L 353.062921 131.727108 
L 353.82288 130.65936 
L 355.342799 130.650749 
L 356.102758 130.900464 
L 356.862717 129.617445 
L 357.622676 128.592752 
L 358.382635 127.921104 
L 359.142594 126.767247 
L 359.902554 128.213873 
L 360.662513 128.558308 
L 362.182431 128.601362 
L 362.94239 128.437756 
L 364.462308 128.584141 
L 365.982227 128.584141 
L 366.742186 127.955547 
L 367.502145 126.543365 
L 368.262104 126.069767 
L 369.022063 127.499171 
L 372.0619 127.464728 
L 372.821859 127.473339 
L 373.581818 128.162208 
L 373.581818 128.162208 
" style="fill:none;stroke:#4c72b0;stroke-linecap:round;stroke-width:1.5;"/>
   </g>
   <g id="line2d_17">
    <path clip-path="url(#p93dd6ba8d7)" d="M 69.218182 161.69293 
L 69.598161 152.220975 
L 69.978141 156.698626 
L 70.358121 153.340387 
L 70.7381 154.494244 
L 71.11808 159.109669 
L 71.498059 159.946154 
L 71.878039 162.640125 
L 72.258018 163.587321 
L 73.017978 166.49936 
L 74.157916 174.424714 
L 75.297855 180.85971 
L 76.057814 183.927099 
L 76.437794 185.717253 
L 77.197753 188.395233 
L 77.957712 191.874024 
L 78.717671 194.663945 
L 80.237589 201.06182 
L 80.997549 202.964822 
L 81.757508 205.565305 
L 82.517467 207.554415 
L 84.037385 212.324836 
L 84.797344 214.305336 
L 86.317263 216.432221 
L 87.077222 215.777795 
L 88.59714 217.405249 
L 89.357099 218.025231 
L 90.117058 217.525801 
L 90.877017 216.535551 
L 91.636977 216.750823 
L 92.396936 217.422471 
L 93.156895 216.509718 
L 93.916854 215.243921 
L 94.676813 216.105008 
L 95.436772 214.994206 
L 96.196731 215.381695 
L 96.956691 215.924179 
L 98.476609 213.642299 
L 99.236568 213.762851 
L 102.276404 214.925319 
L 103.796323 215.269753 
L 104.556282 213.969512 
L 106.0762 217.51719 
L 106.836159 216.303058 
L 107.596118 213.427028 
L 109.116037 217.000538 
L 109.875996 215.648632 
L 110.635955 217.422471 
L 111.395914 216.044732 
L 112.915832 216.380555 
L 113.675792 216.199727 
L 114.435751 215.020038 
L 115.19571 212.212895 
L 115.955669 212.488443 
L 116.715628 209.448806 
L 117.475587 211.033206 
L 118.995506 208.39828 
L 119.755465 208.39828 
L 121.275383 208.673828 
L 122.035342 210.404613 
L 122.795301 213.435638 
L 124.31522 213.625078 
L 125.075179 215.252532 
L 125.835138 213.762851 
L 126.595097 213.874793 
L 127.355056 212.35928 
L 128.115015 213.986734 
L 128.874974 214.382834 
L 129.634934 214.322558 
L 130.394893 217.51719 
L 131.914811 217.646353 
L 132.67477 217.758294 
L 134.954648 222.554548 
L 137.234525 217.878847 
L 138.754443 215.03726 
L 139.514402 214.908097 
L 140.274362 211.799573 
L 141.034321 213.34953 
L 141.79428 211.842628 
L 143.314198 211.997623 
L 144.074157 212.023456 
L 144.834116 213.840349 
L 145.594076 213.711186 
L 146.354035 213.74563 
L 147.113994 216.948873 
L 147.873953 215.441971 
L 148.633912 212.367891 
L 150.15383 212.436778 
L 151.673749 215.717519 
L 153.953626 220.436274 
L 154.713585 220.703211 
L 155.473544 222.253168 
L 156.233504 222.339276 
L 156.993463 225.473633 
L 157.753422 226.997756 
L 160.033299 226.989145 
L 160.793258 225.533909 
L 162.313177 225.611406 
L 163.073136 224.052839 
L 163.833095 227.161363 
L 164.593054 227.247471 
L 165.353013 225.671683 
L 166.112972 222.528716 
L 166.872932 222.597602 
L 167.632891 220.98737 
L 169.912768 221.013203 
L 170.672727 222.649268 
L 172.192646 222.614824 
L 173.712564 222.752598 
L 174.472523 224.302554 
L 175.232482 221.219864 
L 176.7524 221.323194 
L 177.51236 219.359916 
L 178.272319 222.511494 
L 179.032278 220.927094 
L 180.552196 220.98737 
L 181.312155 222.597602 
L 182.072114 222.6751 
L 182.832074 224.121726 
L 183.592033 224.173391 
L 185.111951 224.130337 
L 185.87191 224.104504 
L 187.391828 221.073479 
L 188.151788 217.91329 
L 188.911747 217.870236 
L 189.671706 214.770323 
L 190.431665 216.346112 
L 191.191624 216.251392 
L 191.951583 216.285836 
L 192.711542 218.197449 
L 193.471502 216.681936 
L 194.231461 218.343833 
L 194.99142 218.30939 
L 196.511338 221.452357 
L 197.271297 218.240503 
L 198.031256 218.524662 
L 198.791216 216.966094 
L 199.551175 217.000538 
L 200.311134 216.905818 
L 201.071093 215.33864 
L 202.591011 218.481607 
L 203.35097 221.598742 
L 204.11093 221.58152 
L 206.390807 226.412217 
L 207.910725 226.455272 
L 208.670684 228.03106 
L 209.430644 224.845039 
L 210.950562 224.939759 
L 211.710521 223.415635 
L 212.47048 226.6361 
L 213.230439 226.601656 
L 213.990398 228.151613 
L 214.750358 227.996617 
L 215.510317 228.065504 
L 216.270276 229.675736 
L 217.790194 226.420828 
L 218.550153 223.329526 
L 219.310112 221.770959 
L 220.070072 223.450078 
L 223.869867 223.432857 
L 224.629826 225.008646 
L 226.149745 224.905315 
L 226.909704 226.463882 
L 228.429622 226.455272 
L 229.189581 226.498326 
L 230.709499 226.704987 
L 231.469459 226.73943 
L 233.749336 231.570127 
L 234.509295 231.59596 
L 235.269254 229.977117 
L 236.789173 230.028782 
L 237.549132 228.496047 
L 239.06905 228.513269 
L 239.829009 230.114891 
L 240.588968 230.192388 
L 241.348927 225.508076 
L 242.868846 225.421967 
L 245.148723 220.772098 
L 247.428601 220.660157 
L 248.948519 220.68599 
L 250.468437 223.794513 
L 251.228396 222.210113 
L 252.748315 222.235946 
L 253.508274 220.694601 
L 254.268233 220.513772 
L 255.028192 217.362194 
L 255.788151 216.862764 
L 256.54811 221.590131 
L 257.308069 220.022953 
L 258.068029 220.126283 
L 258.827988 220.083229 
L 260.347906 223.226196 
L 261.107865 223.157309 
L 261.867824 223.226196 
L 262.627783 221.641796 
L 263.387743 221.67624 
L 264.907661 218.688268 
L 265.66762 218.696879 
L 266.427579 220.315722 
L 267.187538 218.671046 
L 268.707457 221.762348 
L 269.467416 221.943176 
L 270.227375 225.163641 
L 270.987334 224.070061 
L 271.747293 224.070061 
L 272.507252 225.611406 
L 273.267211 225.620017 
L 274.027171 227.213028 
L 275.547089 227.195806 
L 276.307048 225.757791 
L 277.826966 225.706126 
L 278.586925 225.654461 
L 280.106844 228.926591 
L 281.626762 228.806039 
L 282.386721 230.364606 
L 283.14668 228.840482 
L 284.666599 228.780206 
L 285.426558 228.62521 
L 286.186517 229.951284 
L 286.946476 228.401328 
L 287.706435 228.513269 
L 289.226353 225.189474 
L 290.746272 225.14642 
L 291.506231 226.730819 
L 292.26619 225.163641 
L 293.026149 226.782485 
L 296.825945 226.722208 
L 297.585904 226.429439 
L 300.625741 226.532769 
L 301.3857 226.816928 
L 302.145659 228.315219 
L 303.665577 228.22911 
L 305.185495 228.375495 
L 305.945455 228.470215 
L 306.705414 226.877204 
L 308.225332 226.825539 
L 308.985291 226.911648 
L 309.74525 228.573545 
L 310.505209 228.530491 
L 312.025128 225.456411 
L 312.785087 225.559741 
L 313.545046 227.126919 
L 314.305005 227.118308 
L 315.064964 226.920258 
L 318.104801 226.894426 
L 319.624719 230.089058 
L 320.384678 229.701569 
L 321.144637 226.567213 
L 321.904597 228.12578 
L 322.664556 227.910508 
L 324.944433 227.936341 
L 325.704392 227.858843 
L 327.224311 230.932923 
L 327.98427 231.148195 
L 328.744229 229.598239 
L 329.504188 229.649904 
L 330.264147 229.839343 
L 333.303984 229.959895 
L 334.823902 229.977117 
L 335.583861 230.399049 
L 336.34382 231.940395 
L 337.103779 230.364606 
L 337.863739 232.172888 
L 339.383657 231.931784 
L 340.143616 231.880119 
L 341.663534 232.043725 
L 343.183453 232.060947 
L 343.943412 230.467936 
L 346.983248 230.467936 
L 349.263126 230.493769 
L 350.783044 230.40766 
L 352.302962 233.567849 
L 353.062921 233.550627 
L 353.82288 233.67979 
L 356.102758 233.653958 
L 356.862717 230.433493 
L 357.622676 230.338773 
L 358.382635 228.82326 
L 359.142594 231.949006 
L 359.902554 232.017893 
L 360.662513 230.467936 
L 362.94239 230.390438 
L 363.702349 228.814649 
L 365.982227 228.797428 
L 368.262104 228.874926 
L 370.541982 228.969645 
L 371.301941 227.419689 
L 372.0619 230.622932 
L 372.821859 230.717651 
L 373.581818 232.284829 
L 373.581818 232.284829 
" style="fill:none;stroke:#dd8452;stroke-linecap:round;stroke-width:1.5;"/>
   </g>
   <g id="line2d_18"/>
   <g id="line2d_19"/>
   <g id="line2d_20"/>
   <g id="patch_3">
    <path d="M 54 252 
L 54 34.56 
" style="fill:none;stroke:#cccccc;stroke-linecap:square;stroke-linejoin:miter;stroke-width:1.25;"/>
   </g>
   <g id="patch_4">
    <path d="M 388.8 252 
L 388.8 34.56 
" style="fill:none;stroke:#cccccc;stroke-linecap:square;stroke-linejoin:miter;stroke-width:1.25;"/>
   </g>
   <g id="patch_5">
    <path d="M 54 252 
L 388.8 252 
" style="fill:none;stroke:#cccccc;stroke-linecap:square;stroke-linejoin:miter;stroke-width:1.25;"/>
   </g>
   <g id="patch_6">
    <path d="M 54 34.56 
L 388.8 34.56 
" style="fill:none;stroke:#cccccc;stroke-linecap:square;stroke-linejoin:miter;stroke-width:1.25;"/>
   </g>
   <g id="legend_1">
    <g id="patch_7">
     <path d="M 314.623906 91.797813 
L 381.1 91.797813 
Q 383.3 91.797813 383.3 89.597813 
L 383.3 42.26 
Q 383.3 40.06 381.1 40.06 
L 314.623906 40.06 
Q 312.423906 40.06 312.423906 42.26 
L 312.423906 89.597813 
Q 312.423906 91.797813 314.623906 91.797813 
z
" style="fill:#ffffff;opacity:0.8;stroke:#cccccc;stroke-linejoin:miter;"/>
    </g>
    <g id="line2d_21">
     <path d="M 316.823906 48.968281 
L 338.823906 48.968281 
" style="fill:none;"/>
    </g>
    <g id="line2d_22"/>
    <g id="text_18">
     <!-- Alpha -->
     <defs>
      <path d="M 34.1875 63.1875 
L 20.796875 26.90625 
L 47.609375 26.90625 
z
M 28.609375 72.90625 
L 39.796875 72.90625 
L 67.578125 0 
L 57.328125 0 
L 50.6875 18.703125 
L 17.828125 18.703125 
L 11.1875 0 
L 0.78125 0 
z
" id="DejaVuSans-65"/>
      <path d="M 9.421875 75.984375 
L 18.40625 75.984375 
L 18.40625 0 
L 9.421875 0 
z
" id="DejaVuSans-108"/>
      <path d="M 34.28125 27.484375 
Q 23.390625 27.484375 19.1875 25 
Q 14.984375 22.515625 14.984375 16.5 
Q 14.984375 11.71875 18.140625 8.90625 
Q 21.296875 6.109375 26.703125 6.109375 
Q 34.1875 6.109375 38.703125 11.40625 
Q 43.21875 16.703125 43.21875 25.484375 
L 43.21875 27.484375 
z
M 52.203125 31.203125 
L 52.203125 0 
L 43.21875 0 
L 43.21875 8.296875 
Q 40.140625 3.328125 35.546875 0.953125 
Q 30.953125 -1.421875 24.3125 -1.421875 
Q 15.921875 -1.421875 10.953125 3.296875 
Q 6 8.015625 6 15.921875 
Q 6 25.140625 12.171875 29.828125 
Q 18.359375 34.515625 30.609375 34.515625 
L 43.21875 34.515625 
L 43.21875 35.40625 
Q 43.21875 41.609375 39.140625 45 
Q 35.0625 48.390625 27.6875 48.390625 
Q 23 48.390625 18.546875 47.265625 
Q 14.109375 46.140625 10.015625 43.890625 
L 10.015625 52.203125 
Q 14.9375 54.109375 19.578125 55.046875 
Q 24.21875 56 28.609375 56 
Q 40.484375 56 46.34375 49.84375 
Q 52.203125 43.703125 52.203125 31.203125 
z
" id="DejaVuSans-97"/>
     </defs>
     <g style="fill:#262626;" transform="translate(347.623906 52.818281)scale(0.11 -0.11)">
      <use xlink:href="#DejaVuSans-65"/>
      <use x="68.408203" xlink:href="#DejaVuSans-108"/>
      <use x="96.191406" xlink:href="#DejaVuSans-112"/>
      <use x="159.667969" xlink:href="#DejaVuSans-104"/>
      <use x="223.046875" xlink:href="#DejaVuSans-97"/>
     </g>
    </g>
    <g id="line2d_23">
     <path d="M 316.823906 65.114219 
L 338.823906 65.114219 
" style="fill:none;stroke:#4c72b0;stroke-linecap:round;stroke-width:1.5;"/>
    </g>
    <g id="line2d_24"/>
    <g id="text_19">
     <!-- 0.0 -->
     <g style="fill:#262626;" transform="translate(347.623906 68.964219)scale(0.11 -0.11)">
      <use xlink:href="#DejaVuSans-48"/>
      <use x="63.623047" xlink:href="#DejaVuSans-46"/>
      <use x="95.410156" xlink:href="#DejaVuSans-48"/>
     </g>
    </g>
    <g id="line2d_25">
     <path d="M 316.823906 81.260156 
L 338.823906 81.260156 
" style="fill:none;stroke:#dd8452;stroke-linecap:round;stroke-width:1.5;"/>
    </g>
    <g id="line2d_26"/>
    <g id="text_20">
     <!-- 0.05 -->
     <g style="fill:#262626;" transform="translate(347.623906 85.110156)scale(0.11 -0.11)">
      <use xlink:href="#DejaVuSans-48"/>
      <use x="63.623047" xlink:href="#DejaVuSans-46"/>
      <use x="95.410156" xlink:href="#DejaVuSans-48"/>
      <use x="159.033203" xlink:href="#DejaVuSans-53"/>
     </g>
    </g>
   </g>
  </g>
 </g>
 <defs>
  <clipPath id="p93dd6ba8d7">
   <rect height="217.44" width="334.8" x="54" y="34.56"/>
  </clipPath>
 </defs>
</svg>
