<svg class="marks" width="450" height="347" viewBox="0 0 450 347" version="1.1" xmlns="http://www.w3.org/2000/svg" xmlns:xlink="http://www.w3.org/1999/xlink"><rect width="450" height="347" style="fill: white;"></rect><g transform="translate(44,10)"><g class="mark-group role-frame root"><g transform="translate(0,0)"><path class="background" d="M0.5,0.5h400v300h-400Z" style="fill: none; stroke: #ddd;"></path><g><g class="mark-group role-axis"><g transform="translate(0.5,300.5)"><path class="background" d="M0,0h0v0h0Z" style="pointer-events: none; fill: none;"></path><g><g class="mark-rule role-axis-grid" style="pointer-events: none;"><line transform="translate(0,-300)" x2="0" y2="300" style="fill: none; stroke: #ddd; stroke-width: 1; opacity: 1;"></line><line transform="translate(40,-300)" x2="0" y2="300" style="fill: none; stroke: #ddd; stroke-width: 1; opacity: 1;"></line><line transform="translate(80,-300)" x2="0" y2="300" style="fill: none; stroke: #ddd; stroke-width: 1; opacity: 1;"></line><line transform="translate(120,-300)" x2="0" y2="300" style="fill: none; stroke: #ddd; stroke-width: 1; opacity: 1;"></line><line transform="translate(160,-300)" x2="0" y2="300" style="fill: none; stroke: #ddd; stroke-width: 1; opacity: 1;"></line><line transform="translate(200,-300)" x2="0" y2="300" style="fill: none; stroke: #ddd; stroke-width: 1; opacity: 1;"></line><line transform="translate(240,-300)" x2="0" y2="300" style="fill: none; stroke: #ddd; stroke-width: 1; opacity: 1;"></line><line transform="translate(280,-300)" x2="0" y2="300" style="fill: none; stroke: #ddd; stroke-width: 1; opacity: 1;"></line><line transform="translate(320,-300)" x2="0" y2="300" style="fill: none; stroke: #ddd; stroke-width: 1; opacity: 1;"></line><line transform="translate(360,-300)" x2="0" y2="300" style="fill: none; stroke: #ddd; stroke-width: 1; opacity: 1;"></line><line transform="translate(400,-300)" x2="0" y2="300" style="fill: none; stroke: #ddd; stroke-width: 1; opacity: 1;"></line></g></g><path class="foreground" d="" style="pointer-events: none; display: none; fill: none;"></path></g></g><g class="mark-group role-axis"><g transform="translate(0.5,0.5)"><path class="background" d="M0,0h0v0h0Z" style="pointer-events: none; fill: none;"></path><g><g class="mark-rule role-axis-grid" style="pointer-events: none;"><line transform="translate(0,300)" x2="400" y2="0" style="fill: none; stroke: #ddd; stroke-width: 1; opacity: 1;"></line><line transform="translate(0,250)" x2="400" y2="0" style="fill: none; stroke: #ddd; stroke-width: 1; opacity: 1;"></line><line transform="translate(0,200)" x2="400" y2="0" style="fill: none; stroke: #ddd; stroke-width: 1; opacity: 1;"></line><line transform="translate(0,150)" x2="400" y2="0" style="fill: none; stroke: #ddd; stroke-width: 1; opacity: 1;"></line><line transform="translate(0,100)" x2="400" y2="0" style="fill: none; stroke: #ddd; stroke-width: 1; opacity: 1;"></line><line transform="translate(0,50)" x2="400" y2="0" style="fill: none; stroke: #ddd; stroke-width: 1; opacity: 1;"></line><line transform="translate(0,0)" x2="400" y2="0" style="fill: none; stroke: #ddd; stroke-width: 1; opacity: 1;"></line></g></g><path class="foreground" d="" style="pointer-events: none; display: none; fill: none;"></path></g></g><g class="mark-group role-axis"><g transform="translate(0.5,300.5)"><path class="background" d="M0,0h0v0h0Z" style="pointer-events: none; fill: none;"></path><g><g class="mark-rule role-axis-tick" style="pointer-events: none;"><line transform="translate(0,0)" x2="0" y2="5" style="fill: none; stroke: #888; stroke-width: 1; opacity: 1;"></line><line transform="translate(40,0)" x2="0" y2="5" style="fill: none; stroke: #888; stroke-width: 1; opacity: 1;"></line><line transform="translate(80,0)" x2="0" y2="5" style="fill: none; stroke: #888; stroke-width: 1; opacity: 1;"></line><line transform="translate(120,0)" x2="0" y2="5" style="fill: none; stroke: #888; stroke-width: 1; opacity: 1;"></line><line transform="translate(160,0)" x2="0" y2="5" style="fill: none; stroke: #888; stroke-width: 1; opacity: 1;"></line><line transform="translate(200,0)" x2="0" y2="5" style="fill: none; stroke: #888; stroke-width: 1; opacity: 1;"></line><line transform="translate(240,0)" x2="0" y2="5" style="fill: none; stroke: #888; stroke-width: 1; opacity: 1;"></line><line transform="translate(280,0)" x2="0" y2="5" style="fill: none; stroke: #888; stroke-width: 1; opacity: 1;"></line><line transform="translate(320,0)" x2="0" y2="5" style="fill: none; stroke: #888; stroke-width: 1; opacity: 1;"></line><line transform="translate(360,0)" x2="0" y2="5" style="fill: none; stroke: #888; stroke-width: 1; opacity: 1;"></line><line transform="translate(400,0)" x2="0" y2="5" style="fill: none; stroke: #888; stroke-width: 1; opacity: 1;"></line></g><g class="mark-text role-axis-label" style="pointer-events: none;"><text text-anchor="start" transform="translate(0,15)" style="font-family: sans-serif; font-size: 10px; fill: #000; opacity: 1;">0</text><text text-anchor="middle" transform="translate(40,15)" style="font-family: sans-serif; font-size: 10px; fill: #000; opacity: 1;">20</text><text text-anchor="middle" transform="translate(80,15)" style="font-family: sans-serif; font-size: 10px; fill: #000; opacity: 1;">40</text><text text-anchor="middle" transform="translate(120,15)" style="font-family: sans-serif; font-size: 10px; fill: #000; opacity: 1;">60</text><text text-anchor="middle" transform="translate(160,15)" style="font-family: sans-serif; font-size: 10px; fill: #000; opacity: 1;">80</text><text text-anchor="middle" transform="translate(200,15)" style="font-family: sans-serif; font-size: 10px; fill: #000; opacity: 1;">100</text><text text-anchor="middle" transform="translate(240,15)" style="font-family: sans-serif; font-size: 10px; fill: #000; opacity: 1;">120</text><text text-anchor="middle" transform="translate(280,15)" style="font-family: sans-serif; font-size: 10px; fill: #000; opacity: 1;">140</text><text text-anchor="middle" transform="translate(320,15)" style="font-family: sans-serif; font-size: 10px; fill: #000; opacity: 1;">160</text><text text-anchor="middle" transform="translate(360,15)" style="font-family: sans-serif; font-size: 10px; fill: #000; opacity: 1;">180</text><text text-anchor="end" transform="translate(400,15)" style="font-family: sans-serif; font-size: 10px; fill: #000; opacity: 1;">200</text></g><g class="mark-rule role-axis-domain" style="pointer-events: none;"><line transform="translate(0,0)" x2="400" y2="0" style="fill: none; stroke: #888; stroke-width: 1; opacity: 1;"></line></g><g class="mark-text role-axis-title" style="pointer-events: none;"><text text-anchor="middle" transform="translate(200,30)" style="font-family: sans-serif; font-size: 11px; font-weight: bold; fill: #000; opacity: 1;">Episode</text></g></g><path class="foreground" d="" style="pointer-events: none; display: none; fill: none;"></path></g></g><g class="mark-group role-axis"><g transform="translate(0.5,0.5)"><path class="background" d="M0,0h0v0h0Z" style="pointer-events: none; fill: none;"></path><g><g class="mark-rule role-axis-tick" style="pointer-events: none;"><line transform="translate(0,300)" x2="-5" y2="0" style="fill: none; stroke: #888; stroke-width: 1; opacity: 1;"></line><line transform="translate(0,250)" x2="-5" y2="0" style="fill: none; stroke: #888; stroke-width: 1; opacity: 1;"></line><line transform="translate(0,200)" x2="-5" y2="0" style="fill: none; stroke: #888; stroke-width: 1; opacity: 1;"></line><line transform="translate(0,150)" x2="-5" y2="0" style="fill: none; stroke: #888; stroke-width: 1; opacity: 1;"></line><line transform="translate(0,100)" x2="-5" y2="0" style="fill: none; stroke: #888; stroke-width: 1; opacity: 1;"></line><line transform="translate(0,50)" x2="-5" y2="0" style="fill: none; stroke: #888; stroke-width: 1; opacity: 1;"></line><line transform="translate(0,0)" x2="-5" y2="0" style="fill: none; stroke: #888; stroke-width: 1; opacity: 1;"></line></g><g class="mark-text role-axis-label" style="pointer-events: none;"><text text-anchor="end" transform="translate(-7,303)" style="font-family: sans-serif; font-size: 10px; fill: #000; opacity: 1;">0</text><text text-anchor="end" transform="translate(-7,253)" style="font-family: sans-serif; font-size: 10px; fill: #000; opacity: 1;">20</text><text text-anchor="end" transform="translate(-7,203.00000000000003)" style="font-family: sans-serif; font-size: 10px; fill: #000; opacity: 1;">40</text><text text-anchor="end" transform="translate(-7,153)" style="font-family: sans-serif; font-size: 10px; fill: #000; opacity: 1;">60</text><text text-anchor="end" transform="translate(-7,103.00000000000001)" style="font-family: sans-serif; font-size: 10px; fill: #000; opacity: 1;">80</text><text text-anchor="end" transform="translate(-7,52.999999999999986)" style="font-family: sans-serif; font-size: 10px; fill: #000; opacity: 1;">100</text><text text-anchor="end" transform="translate(-7,3)" style="font-family: sans-serif; font-size: 10px; fill: #000; opacity: 1;">120</text></g><g class="mark-rule role-axis-domain" style="pointer-events: none;"><line transform="translate(0,300)" x2="0" y2="-300" style="fill: none; stroke: #888; stroke-width: 1; opacity: 1;"></line></g><g class="mark-text role-axis-title" style="pointer-events: none;"><text text-anchor="middle" transform="translate(-27.6845703125,150) rotate(-90) translate(0,-2)" style="font-family: sans-serif; font-size: 11px; font-weight: bold; fill: #000; opacity: 1;">Episode length</text></g></g><path class="foreground" d="" style="pointer-events: none; display: none; fill: none;"></path></g></g><g class="mark-line role-mark layer_0_marks"><path d="M0,47.5L2,47.5L4,47.5L6,47.5L8,47.5L10,47.5L12,47.5L14.000000000000002,47.5L16,59.25L18,49.999999999999986L20,47.5L22,47.5L24,47.5L26,47.5L28.000000000000004,47.5L30,47.5L32,47.5L34,47.5L36,47.5L38,47.5L40,47.5L42,47.5L44,47.5L46,47.5L48,47.5L50,47.5L52,47.5L54,47.5L56.00000000000001,47.5L57.99999999999999,47.5L60,233.5L62,235.5L64,237.5L66,237.75L68,239L70,239.75L72,239.75L74,239.75L76,239.75L78,240L80,240L82,240L84,240L86,240L88,240L90,239.75L92,240L94,240L96,240L98,239.5L100,239.75L102,240L104,240L106,239.75L108,240L110.00000000000001,240L112.00000000000001,240L113.99999999999999,240L115.99999999999999,239.75L118,240L120,240L122,240L124,240L126,239.75L128,240L130,239.75L132,239.5L134,240L136,240L138,240L140,239.75L142,239.75L144,240L146,240L148,240L150,240L152,240L154,239.75L156,240L158,240L160,240L162,240L164,240L166,239.75L168,239.25L170,239.75L172,240L174,240L176,240L178,239.5L180,240L182,240L184,239.75L186,240L188,240L190,240L192,240L194,240L196,240L198,240L200,239.75L202,239.75L204,240L206,240L208,240L210,240L212,239.75L214,239.75L216,240L218.00000000000003,240L220.00000000000003,240L222.00000000000003,239.75L224.00000000000003,240L225.99999999999997,240L227.99999999999997,240L229.99999999999997,240L231.99999999999997,240L234,240L236,240L238,240L240,238.49999999999997L242,237.24999999999997L244,238L246,238.25L248,239L250,237.5L252,239.25L254,238.5L256,237.75L258,238.5L260,238.49999999999997L262,237.75L264,237.24999999999997L266,237.5L268,237.5L270,238.75000000000003L272,239.75L274,239L276,238.75000000000003L278,238L280,239.25L282,238.25L284,219.25L286,238.5L288,237.24999999999997L290,238.25L292,238.25L294,238.25L296,237.75L298,238.75000000000003L300,237.24999999999997L302,238.25L304,237.24999999999997L306,238.25L308,238.49999999999997L310,238L312,239.5L314,238.75000000000003L316,236L318,238.25L320,238.5L322,240L324,239L326,237.75L328,238.75000000000003L330,238.75000000000003L332,237.75L334,237.75L336,238.75000000000003L338,217.75L340,237.5L342,238.75000000000003L344,237.24999999999997L346,238.5L348,239L350,238.49999999999997L352,238.75000000000003L354,238.25L356,238L358,237L360,238L362,237.5L364,237.24999999999997L366,237.75L368,238.25L370,219.25L372,238.49999999999997L374,219.25L376,238L378,238.25L380,218.75000000000003L382,238.25L384,238.25L386,237.24999999999997L388,239.25L390,238.75000000000003L392,239.5L394,238L396,238.75000000000003L398,239.25" style="fill: none; stroke: #4c78a8; stroke-width: 2;"></path></g><g class="mark-area role-mark layer_1_layer_0_marks"><path d="M0,47.5L2,47.5L4,47.5L6,47.5L8,47.5L10,47.5L12,47.5L14.000000000000002,47.5L16,96.40676250697847L18,57.90569415042096L20,47.5L22,47.5L24,47.5L26,47.5L28.000000000000004,47.5L30,47.5L32,47.5L34,47.5L36,47.5L38,47.5L40,47.5L42,47.5L44,47.5L46,47.5L48,47.5L50,47.5L52,47.5L54,47.5L56.00000000000001,47.5L57.99999999999999,47.5L60,235.91522945769825L62,237.47202659436655L64,237.5L66,238.54056941504209L68,240.2909944487358L70,240.54056941504206L72,240.54056941504206L74,240.54056941504206L76,240.54056941504206L78,240L80,240L82,240L84,240L86,240L88,240L90,240.54056941504206L92,240L94,240L96,240L98,240.55409255338947L100,240.54056941504206L102,240L104,240L106,240.54056941504206L108,240L110.00000000000001,240L112.00000000000001,240L113.99999999999999,240L115.99999999999999,240.54056941504206L118,240L120,240L122,240L124,240L126,240.54056941504206L128,240L130,240.54056941504206L132,240.55409255338947L134,240L136,240L138,240L140,240.54056941504206L142,240.54056941504206L144,240L146,240L148,240L150,240L152,240L154,240.54056941504206L156,240L158,240L160,240L162,240L164,240L166,240.54056941504206L168,240.4576147288491L170,240.54056941504206L172,240L174,240L176,240L178,240.55409255338947L180,240L182,240L184,240.54056941504206L186,240L188,240L190,240L192,240L194,240L196,240L198,240L200,240.54056941504206L202,240.54056941504206L204,240L206,240L208,240L210,240L212,240.54056941504206L214,240.54056941504206L216,240L218.00000000000003,240L220.00000000000003,240L222.00000000000003,240.54056941504206L224.00000000000003,240L225.99999999999997,240L227.99999999999997,240L229.99999999999997,240L231.99999999999997,240L234,240L236,240L238,240L240,240.6081851067789L242,241.0597098168875L244,240.2973414586817L246,240.62170824512629L248,241.1081851067789L250,241.03553390593274L252,241.89837476367845L254,241.66227766016837L256,240.2360723150294L258,242.61636301174283L260,240.6081851067789L262,240.74304749934464L264,239.7360723150294L266,240.38675134594814L268,239.85702260395516L270,242.3343021946011L272,242.50126233653654L274,241.41522945769825L276,240.51776695296638L278,241.49602949390052L280,241.89837476367845L282,240.62170824512629L284,279.6313114943505L286,241.66227766016837L288,240.24304749934467L290,240.89837476367845L292,240.89837476367845L294,240.62170824512629L296,241.17580079851575L298,240.51776695296638L300,240.67580079851575L302,241.14875452182102L304,239.7360723150294L306,240.89837476367845L308,242.2638632635454L310,239.97202659436653L312,242.0819888974716L314,241.17956328951888L316,239.94405318873305L318,241.59373377462316L320,240.6081851067789L322,242.04124145231933L324,243.11636301174283L326,240.9667098442698L328,242.13501600193166L330,241.17956328951888L332,240.5012623365365L334,240.2360723150294L336,241.69627825494396L338,277.6045691191946L340,239.85702260395516L342,241.17956328951888L344,240.4667098442698L346,241.43446947694318L348,241.1081851067789L350,240.6081851067789L352,241.17956328951888L354,239.93737139427637L356,239.97202659436653L358,239.29734145868173L360,241.0731814857643L362,239.16666666666669L364,240.0012623365365L366,239.59466196843155L368,241.79534123103045L370,279.6198094157079L372,241.18741924943282L374,279.6543090810213L376,240.5819888974716L378,240.62170824512629L380,278.96085634852096L382,242.16755309118105L384,240.89837476367845L386,240.4667098442698L388,240.9373713942764L390,240.06761569173682L392,242.0819888974716L394,240.5819888974716L396,241.17956328951888L398,241.89837476367845L398,236.60162523632155L396,236.32043671048112L394,235.4180111025284L392,236.91801110252837L390,237.43238430826318L388,237.56262860572363L386,234.0332901557302L384,235.60162523632155L382,234.33244690881892L380,158.5391436514791L378,235.87829175487371L376,235.4180111025284L374,158.84569091897868L372,235.81258075056712L370,158.88019058429217L368,234.70465876896955L366,235.90533803156845L364,234.49873766346346L362,235.83333333333331L360,234.9268185142357L358,234.7026585413183L356,236.02797340563347L354,236.5626286057236L352,236.32043671048112L350,236.3918148932211L348,236.8918148932211L346,235.56553052305682L344,234.0332901557302L342,236.32043671048112L340,235.14297739604487L338,157.8954308808054L336,235.80372174505604L334,235.26392768497064L332,234.99873766346346L330,236.32043671048112L328,235.36498399806834L326,234.5332901557302L324,234.88363698825717L322,237.9587585476807L320,236.3918148932211L318,234.90626622537684L316,232.05594681126692L314,236.32043671048112L312,236.91801110252837L310,236.02797340563347L308,234.7361367364546L306,235.60162523632155L304,234.7639276849706L302,235.35124547817898L300,233.82419920148425L298,236.98223304703362L296,234.32419920148425L294,235.87829175487371L292,235.60162523632155L290,235.60162523632155L288,234.25695250065533L286,235.33772233983163L284,158.86868850564957L282,235.87829175487371L280,236.60162523632158L278,234.50397050609948L276,236.98223304703362L274,236.58477054230178L272,236.9987376634635L270,235.1656978053989L268,235.14297739604487L266,234.6132486540519L264,234.7639276849706L262,234.75695250065536L260,236.3918148932211L258,234.3836369882572L256,235.26392768497064L254,235.33772233983163L252,236.60162523632155L250,233.96446609406723L248,236.8918148932211L246,235.87829175487371L244,235.7026585413183L242,233.4402901831125L240,236.3918148932211L238,240L236,240L234,240L231.99999999999997,240L229.99999999999997,240L227.99999999999997,240L225.99999999999997,240L224.00000000000003,240L222.00000000000003,238.95943058495791L220.00000000000003,240L218.00000000000003,240L216,240L214,238.95943058495791L212,238.95943058495791L210,240L208,240L206,240L204,240L202,238.95943058495791L200,238.95943058495791L198,240L196,240L194,240L192,240L190,240L188,240L186,240L184,238.95943058495791L182,240L180,240L178,238.44590744661053L176,240L174,240L172,240L170,238.95943058495791L168,238.0423852711509L166,238.95943058495791L164,240L162,240L160,240L158,240L156,240L154,238.95943058495791L152,240L150,240L148,240L146,240L144,240L142,238.95943058495791L140,238.95943058495791L138,240L136,240L134,240L132,238.44590744661053L130,238.95943058495791L128,240L126,238.95943058495791L124,240L122,240L120,240L118,240L115.99999999999999,238.95943058495791L113.99999999999999,240L112.00000000000001,240L110.00000000000001,240L108,240L106,238.95943058495791L104,240L102,240L100,238.95943058495791L98,238.44590744661053L96,240L94,240L92,240L90,238.95943058495791L88,240L86,240L84,240L82,240L80,240L78,240L76,238.95943058495791L74,238.95943058495791L72,238.95943058495791L70,238.95943058495791L68,237.7090055512642L66,236.9594305849579L64,237.5L62,233.52797340563347L60,231.08477054230175L57.99999999999999,47.5L56.00000000000001,47.5L54,47.5L52,47.5L50,47.5L48,47.5L46,47.5L44,47.5L42,47.5L40,47.5L38,47.5L36,47.5L34,47.5L32,47.5L30,47.5L28.000000000000004,47.5L26,47.5L24,47.5L22,47.5L20,47.5L18,42.09430584957905L16,22.093237493021533L14.000000000000002,47.5L12,47.5L10,47.5L8,47.5L6,47.5L4,47.5L2,47.5L0,47.5Z" style="fill: #4c78a8; opacity: 0.3;"></path></g><g class="mark-rule role-mark layer_2_marks"><line transform="translate(60,0)" x2="0" y2="300" style="fill: none; stroke: green;"></line></g><g class="mark-rule role-mark layer_3_marks"><line transform="translate(240,0)" x2="0" y2="300" style="fill: none; stroke: red;"></line></g></g><path class="foreground" d="" style="display: none; fill: none;"></path></g></g></g></svg>