<svg class="marks" width="506" height="342" viewBox="0 0 506 342" version="1.1" xmlns="http://www.w3.org/2000/svg" xmlns:xlink="http://www.w3.org/1999/xlink"><rect width="506" height="342" style="fill: white;"></rect><g transform="translate(44,5)"><g class="mark-group role-frame root"><g transform="translate(0,0)"><path class="background" d="M0.5,0.5h400v300h-400Z" style="fill: none; stroke: #ddd;"></path><g><g class="mark-group role-axis"><g transform="translate(0.5,300.5)"><path class="background" d="M0,0h0v0h0Z" style="pointer-events: none; fill: none;"></path><g><g class="mark-rule role-axis-grid" style="pointer-events: none;"><line transform="translate(0,-300)" x2="0" y2="300" style="fill: none; stroke: #ddd; stroke-width: 1; opacity: 1;"></line><line transform="translate(50,-300)" x2="0" y2="300" style="fill: none; stroke: #ddd; stroke-width: 1; opacity: 1;"></line><line transform="translate(100,-300)" x2="0" y2="300" style="fill: none; stroke: #ddd; stroke-width: 1; opacity: 1;"></line><line transform="translate(150,-300)" x2="0" y2="300" style="fill: none; stroke: #ddd; stroke-width: 1; opacity: 1;"></line><line transform="translate(200,-300)" x2="0" y2="300" style="fill: none; stroke: #ddd; stroke-width: 1; opacity: 1;"></line><line transform="translate(250,-300)" x2="0" y2="300" style="fill: none; stroke: #ddd; stroke-width: 1; opacity: 1;"></line><line transform="translate(300,-300)" x2="0" y2="300" style="fill: none; stroke: #ddd; stroke-width: 1; opacity: 1;"></line><line transform="translate(350,-300)" x2="0" y2="300" style="fill: none; stroke: #ddd; stroke-width: 1; opacity: 1;"></line><line transform="translate(400,-300)" x2="0" y2="300" style="fill: none; stroke: #ddd; stroke-width: 1; opacity: 1;"></line></g></g><path class="foreground" d="" style="pointer-events: none; display: none; fill: none;"></path></g></g><g class="mark-group role-axis"><g transform="translate(0.5,0.5)"><path class="background" d="M0,0h0v0h0Z" style="pointer-events: none; fill: none;"></path><g><g class="mark-rule role-axis-grid" style="pointer-events: none;"><line transform="translate(0,300)" x2="400" y2="0" style="fill: none; stroke: #ddd; stroke-width: 1; opacity: 1;"></line><line transform="translate(0,242)" x2="400" y2="0" style="fill: none; stroke: #ddd; stroke-width: 1; opacity: 1;"></line><line transform="translate(0,185)" x2="400" y2="0" style="fill: none; stroke: #ddd; stroke-width: 1; opacity: 1;"></line><line transform="translate(0,127)" x2="400" y2="0" style="fill: none; stroke: #ddd; stroke-width: 1; opacity: 1;"></line><line transform="translate(0,69)" x2="400" y2="0" style="fill: none; stroke: #ddd; stroke-width: 1; opacity: 1;"></line><line transform="translate(0,12)" x2="400" y2="0" style="fill: none; stroke: #ddd; stroke-width: 1; opacity: 1;"></line></g></g><path class="foreground" d="" style="pointer-events: none; display: none; fill: none;"></path></g></g><g class="mark-group role-axis"><g transform="translate(0.5,300.5)"><path class="background" d="M0,0h0v0h0Z" style="pointer-events: none; fill: none;"></path><g><g class="mark-rule role-axis-tick" style="pointer-events: none;"><line transform="translate(0,0)" x2="0" y2="5" style="fill: none; stroke: #888; stroke-width: 1; opacity: 1;"></line><line transform="translate(50,0)" x2="0" y2="5" style="fill: none; stroke: #888; stroke-width: 1; opacity: 1;"></line><line transform="translate(100,0)" x2="0" y2="5" style="fill: none; stroke: #888; stroke-width: 1; opacity: 1;"></line><line transform="translate(150,0)" x2="0" y2="5" style="fill: none; stroke: #888; stroke-width: 1; opacity: 1;"></line><line transform="translate(200,0)" x2="0" y2="5" style="fill: none; stroke: #888; stroke-width: 1; opacity: 1;"></line><line transform="translate(250,0)" x2="0" y2="5" style="fill: none; stroke: #888; stroke-width: 1; opacity: 1;"></line><line transform="translate(300,0)" x2="0" y2="5" style="fill: none; stroke: #888; stroke-width: 1; opacity: 1;"></line><line transform="translate(350,0)" x2="0" y2="5" style="fill: none; stroke: #888; stroke-width: 1; opacity: 1;"></line><line transform="translate(400,0)" x2="0" y2="5" style="fill: none; stroke: #888; stroke-width: 1; opacity: 1;"></line></g><g class="mark-text role-axis-label" style="pointer-events: none;"><text text-anchor="start" transform="translate(0,15)" style="font-family: sans-serif; font-size: 10px; fill: #000; opacity: 1;">0.0</text><text text-anchor="middle" transform="translate(50,15)" style="font-family: sans-serif; font-size: 10px; fill: #000; opacity: 1;">0.5</text><text text-anchor="middle" transform="translate(100,15)" style="font-family: sans-serif; font-size: 10px; fill: #000; opacity: 1;">1.0</text><text text-anchor="middle" transform="translate(150,15)" style="font-family: sans-serif; font-size: 10px; fill: #000; opacity: 1;">1.5</text><text text-anchor="middle" transform="translate(200,15)" style="font-family: sans-serif; font-size: 10px; fill: #000; opacity: 1;">2.0</text><text text-anchor="middle" transform="translate(250,15)" style="font-family: sans-serif; font-size: 10px; fill: #000; opacity: 1;">2.5</text><text text-anchor="middle" transform="translate(300,15)" style="font-family: sans-serif; font-size: 10px; fill: #000; opacity: 1;">3.0</text><text text-anchor="middle" transform="translate(350,15)" style="font-family: sans-serif; font-size: 10px; fill: #000; opacity: 1;">3.5</text><text text-anchor="end" transform="translate(400,15)" style="font-family: sans-serif; font-size: 10px; fill: #000; opacity: 1;">4.0</text></g><g class="mark-rule role-axis-domain" style="pointer-events: none;"><line transform="translate(0,0)" x2="400" y2="0" style="fill: none; stroke: #888; stroke-width: 1; opacity: 1;"></line></g><g class="mark-text role-axis-title" style="pointer-events: none;"><text text-anchor="middle" transform="translate(200,30)" style="font-family: sans-serif; font-size: 11px; font-weight: bold; fill: #000; opacity: 1;">Episode (10³)</text></g></g><path class="foreground" d="" style="pointer-events: none; display: none; fill: none;"></path></g></g><g class="mark-group role-axis"><g transform="translate(0.5,0.5)"><path class="background" d="M0,0h0v0h0Z" style="pointer-events: none; fill: none;"></path><g><g class="mark-rule role-axis-tick" style="pointer-events: none;"><line transform="translate(0,300)" x2="-5" y2="0" style="fill: none; stroke: #888; stroke-width: 1; opacity: 1;"></line><line transform="translate(0,242)" x2="-5" y2="0" style="fill: none; stroke: #888; stroke-width: 1; opacity: 1;"></line><line transform="translate(0,185)" x2="-5" y2="0" style="fill: none; stroke: #888; stroke-width: 1; opacity: 1;"></line><line transform="translate(0,127)" x2="-5" y2="0" style="fill: none; stroke: #888; stroke-width: 1; opacity: 1;"></line><line transform="translate(0,69)" x2="-5" y2="0" style="fill: none; stroke: #888; stroke-width: 1; opacity: 1;"></line><line transform="translate(0,12)" x2="-5" y2="0" style="fill: none; stroke: #888; stroke-width: 1; opacity: 1;"></line></g><g class="mark-text role-axis-label" style="pointer-events: none;"><text text-anchor="end" transform="translate(-7,303)" style="font-family: sans-serif; font-size: 10px; fill: #000; opacity: 1;">0</text><text text-anchor="end" transform="translate(-7,245.30769230769232)" style="font-family: sans-serif; font-size: 10px; fill: #000; opacity: 1;">50</text><text text-anchor="end" transform="translate(-7,187.6153846153846)" style="font-family: sans-serif; font-size: 10px; fill: #000; opacity: 1;">100</text><text text-anchor="end" transform="translate(-7,129.92307692307693)" style="font-family: sans-serif; font-size: 10px; fill: #000; opacity: 1;">150</text><text text-anchor="end" transform="translate(-7,72.23076923076921)" style="font-family: sans-serif; font-size: 10px; fill: #000; opacity: 1;">200</text><text text-anchor="end" transform="translate(-7,14.538461538461531)" style="font-family: sans-serif; font-size: 10px; fill: #000; opacity: 1;">250</text></g><g class="mark-rule role-axis-domain" style="pointer-events: none;"><line transform="translate(0,300)" x2="0" y2="-300" style="fill: none; stroke: #888; stroke-width: 1; opacity: 1;"></line></g><g class="mark-text role-axis-title" style="pointer-events: none;"><text text-anchor="middle" transform="translate(-27.6845703125,150) rotate(-90) translate(0,-2)" style="font-family: sans-serif; font-size: 11px; font-weight: bold; fill: #000; opacity: 1;">Episode length</text></g></g><path class="foreground" d="" style="pointer-events: none; display: none; fill: none;"></path></g></g><g class="mark-group role-scope layer_0_pathgroup"><g transform="translate(0,0)"><path class="background" d="M0,0h400v300h-400Z" style="fill: none;"></path><g><g class="mark-line role-mark layer_0_marks"><path d="M0,68.07692307692307L0.5,68.07692307692307L1,68.07692307692307L1.5,68.07692307692307L2,68.07692307692307L2.5,68.07692307692307L3,68.07692307692307L3.5000000000000004,68.07692307692307L4,68.07692307692307L4.5,68.07692307692307L5,68.07692307692307L5.5,68.07692307692307L6,68.07692307692307L6.5,68.07692307692307L7.000000000000001,68.07692307692307L7.5,68.07692307692307L8,68.07692307692307L8.5,68.07692307692307L9,68.07692307692307L9.5,68.07692307692307L10.5,68.07692307692307L11.5,68.07692307692307L12.5,68.07692307692307L13.5,68.07692307692307L14.499999999999998,68.07692307692307L15.5,68.07692307692307L16.5,68.07692307692307L17.5,68.07692307692307L18.5,68.07692307692307L19.5,68.07692307692307L20.5,68.07692307692307L21.5,68.07692307692307L22.5,68.07692307692307L23.5,68.07692307692307L24.5,68.07692307692307L25.5,68.07692307692307L26.5,68.07692307692307L27.500000000000004,68.07692307692307L28.499999999999996,68.07692307692307L29.5,68.07692307692307L30.5,68.07692307692307L31.5,68.07692307692307L32.5,68.07692307692307L33.5,68.07692307692307L34.5,68.07692307692307L35.5,68.07692307692307L36.5,68.07692307692307L37.5,68.07692307692307L38.5,68.07692307692307L39.5,68.07692307692307L40.5,68.95384615384617L41.5,69.46153846153844L42.5,69.46153846153844L43.5,69.46153846153844L44.5,69.83076923076925L45.5,71.1L46.5,72.02307692307696L47.5,72.66923076923074L48.5,73.47692307692307L49.5,74.72307692307693L50.5,76.1076923076923L51.5,77.52692307692305L52.5,79.00384615384617L53.5,80.28461538461538L54.50000000000001,80.28461538461538L55.50000000000001,81.61153846153843L56.49999999999999,83.28461538461538L57.49999999999999,84.56538461538466L58.5,85.8346153846154L59.5,85.8346153846154L60.5,86.44615384615386L61.5,85.93846153846152L62.5,87.25384615384615L63.5,88.88076923076922L64.5,90.05769230769232L65.5,89.94230769230766L66.5,90.6576923076923L67.5,91.60384615384615L68.5,92.3423076923077L69.5,92.63076923076923L70.5,92.79230769230772L71.5,92.99999999999999L72.5,93.09230769230768L73.5,93.16153846153843L74.5,94.60384615384615L75.5,94.88076923076922L76.5,94.65L77.5,94.88076923076922L78.5,95.28461538461535L79.5,96.98076923076925L80.5,97.13076923076925L81.5,98.81538461538462L82.5,98.96538461538464L83.5,98.80384615384615L84.5,98.90769230769232L85.5,99.3576923076923L86.5,99.34615384615384L87.5,99.2423076923077L88.5,97.69615384615385L89.5,97.71923076923078L90.5,97.55769230769234L91.5,97.36153846153847L92.5,97.51153846153848L93.5,97.95L94.5,98.21538461538462L95.5,98.18076923076919L96.5,98.51538461538462L97.5,98.6653846153846L98.5,98.64230769230771L99.5,98.52692307692304L100.49999999999999,98.64230769230771L101.49999999999999,98.74615384615385L102.49999999999999,99.12692307692308L103.49999999999999,99.08076923076922L104.5,99.15L105.5,99.33461538461538L106.5,99.50769230769232L107.5,99.80769230769232L108.5,101.29615384615383L109.5,101.42307692307692L110.5,101.8615384615385L111.5,102.0923076923077L112.5,100.37307692307694L113.5,100.33846153846152L114.5,100.45384615384617L115.5,100.58076923076926L116.5,100.5576923076923L117.5,100.33846153846152L118.5,100.36153846153843L119.5,100.60384615384615L120.5,100.69615384615386L121.50000000000001,100.78846153846153L122.50000000000001,100.54615384615387L123.50000000000001,100.92692307692307L124.50000000000001,100.97307692307693L125.49999999999999,100.93846153846151L126.49999999999999,100.8692307692308L127.49999999999999,100.93846153846151L128.5,101.23846153846155L129.5,101.30769230769232L130.5,101.21538461538462L131.5,101.3653846153846L132.5,103.19999999999999L133.5,101.44615384615388L134.5,101.46923076923076L135.5,101.50384615384615L136.5,101.52692307692308L137.5,101.79230769230766L138.5,101.93076923076924L139.5,102.01153846153849L140.5,101.95384615384614L141.5,101.51538461538462L142.5,101.6769230769231L143.5,101.65384615384613L144.5,101.37692307692306L145.5,101.48076923076923L146.5,101.52692307692308L147.5,101.30769230769232L148.5,101.27307692307693L149.5,101.3307692307692L150.5,101.46923076923076L151.5,101.34230769230767L152.5,101.35384615384618L153.5,103.17692307692306L154.5,103.15384615384617L155.5,103.22307692307692L156.5,101.44615384615388L157.5,101.52692307692308L158.5,101.48076923076923L159.5,101.30769230769232L160.5,101.34230769230767L161.5,101.72307692307692L162.5,101.81538461538459L163.5,101.97692307692307L164.5,102.38076923076926L165.5,102.3576923076923L166.5,102.3576923076923L167.5,100.71923076923078L168.5,100.82307692307691L169.5,100.67307692307693L170.5,100.64999999999998L171.5,100.78846153846153L172.5,98.94230769230771L173.5,99.00000000000003L174.5,99.0461538461538L175.5,99.17307692307689L176.5,101.03076923076925L177.5,101.05384615384614L178.5,101.15769230769234L179.5,101.29615384615383L180.5,101.22692307692309L181.5,101.27307692307693L182.5,101.28461538461539L183.5,101.13461538461537L184.5,101.11153846153846L185.5,100.97307692307693L186.5,100.96153846153847L187.5,102.85384615384613L188.5,102.89999999999999L189.5,103.13076923076922L190.5,103.13076923076922L191.5,103.17692307692306L192.5,105.09230769230766L193.5,105.12692307692308L194.5,105.19615384615386L195.5,105.06923076923077L196.5,104.87307692307694L197.5,105.7730769230769L198.5,105.78461538461539L199.5,105.80769230769232L200.5,104.05384615384618L201.5,104.03076923076921L202.5,104.05384615384618L203.5,104.20384615384613L204.5,104.1L205.50000000000003,105.31153846153846L206.5,106.75384615384614L207.50000000000003,106.88076923076923L208.5,108.12692307692305L209.50000000000003,108.25384615384614L210.5,109.7076923076923L211.50000000000003,111.2653846153846L212.5,111.91153846153846L213.49999999999997,112.6153846153846L214.5,111.77307692307691L215.49999999999997,112.36153846153844L216.5,114.12692307692306L217.49999999999997,113.36538461538461L218.5,114.79615384615384L219.49999999999997,116.10000000000001L220.5,119.37692307692308L221.5,121.05L222.5,122.53846153846156L223.5,123.93461538461537L224.5,125.56153846153846L225.5,126.19615384615385L226.5,126.19615384615385L227.5,127.17692307692309L228.5,127.38461538461539L229.5,127.24615384615383L230.50000000000003,127.48846153846155L231.5,126.9576923076923L232.50000000000003,127.33846153846157L233.5,126.5423076923077L234.50000000000003,129.1615384615385L235.5,130.25769230769234L236.50000000000003,130.5115384615385L237.5,132.20769230769227L238.49999999999997,132.0230769230769L239.5,131.4923076923077L240.49999999999997,131.6653846153846L241.5,129.9923076923077L242.49999999999997,130.1076923076923L243.5,130.2576923076923L244.49999999999997,130.40769230769232L245.5,130.1423076923077L246.5,130.52307692307693L247.5,130.6153846153846L248.5,130.33846153846153L249.5,130.3846153846154L250.5,130.15384615384613L251.5,131.01923076923075L252.5,131.37692307692308L253.5,131.52692307692308L254.5,129.73846153846154L255.50000000000003,129.9346153846154L256.5,130.02692307692308L257.5,129.87692307692305L258.5,130.30384615384614L259.5,131.19230769230768L260.5,131.50384615384615L261.5,132.94615384615383L262.5,131.19230769230768L263.5,130.4769230769231L264.5,128.5269230769231L265.5,128.8846153846154L266.5,128.98846153846156L267.5,129.70384615384614L268.5,130.18846153846155L269.5,131.88461538461536L270.5,132.40384615384616L271.5,130.32692307692307L272.5,130.78846153846152L273.5,132.46153846153845L274.5,134.1346153846154L275.5,133.97307692307692L276.5,132.80769230769235L277.5,132.86538461538464L278.5,133.13076923076923L279.5,133.1423076923077L280.5,132.84230769230766L281.5,133.45384615384614L282.5,135.3923076923077L283.5,135.91153846153844L284.5,138.13846153846154L285.5,137.15769230769232L286.5,135.47307692307692L287.5,135.31153846153845L288.5,135.5076923076923L289.5,135.79615384615386L290.5,135.7384615384615L291.5,138L292.5,137.80384615384617L293.5,137.9653846153846L294.5,138.10384615384615L295.5,138.18461538461537L296.5,139.33846153846156L297.5,139.66153846153847L298.5,139.51153846153846L299.5,139.68461538461537L300.5,139.6153846153846L301.5,139.56923076923076L302.5,139.78846153846155L303.5,140.25L304.5,140.20384615384614L305.5,141.3L306.5,143.22692307692307L307.5,142.8230769230769L308.5,142.91538461538462L309.5,142.73076923076923L310.5,140.85000000000002L311.5,140.53846153846155L312.5,140.51538461538462L313.5,140.49230769230772L314.5,140.45769230769233L315.5,140.76923076923077L316.5,139.00384615384615L317.5,137.06538461538463L318.5,137.3423076923077L319.5,137.53846153846152L320.5,138.02307692307693L321.5,137.51538461538462L322.5,137.53846153846152L323.5,137.43461538461537L324.5,137.19230769230765L325.5,136.91538461538462L326.5,134.9653846153846L327.5,135.55384615384617L328.5,135.43846153846155L329.5,135.6L330.5,137.5846153846154L331.5,135.94615384615386L332.5,136.24615384615387L333.5,136.24615384615387L334.5,134.5153846153846L335.5,132.57692307692307L336.5,132.6L337.5,134.46923076923076L338.5,134.42307692307693L339.5,134.3423076923077L340.5,134.22692307692304L341.5,134.73461538461538L342.5,134.6076923076923L343.5,134.68846153846155L344.5,133.1769230769231L345.5,133.59230769230768L346.5,135.55384615384614L347.5,135.68076923076927L348.5,135.86538461538458L349.5,135.79615384615386L350.5,135.70384615384614L351.5,137.56153846153848L352.5,137.73461538461538L353.5,137.67692307692306L354.5,139.1769230769231L355.5,141.08076923076922L356.5,143.07692307692307L357.5,142.93846153846155L358.5,142.73076923076925L359.5,142.23461538461538L360.5,142.5L361.5,142.03846153846155L362.5,140.1346153846154L363.5,139.92692307692306L364.5,141.76153846153846L365.5,141.7846153846154L366.5,141.80769230769232L367.5,141.66923076923078L368.5,139.7423076923077L369.5,139.8346153846154L370.5,139.97307692307695L371.5,138.98076923076925L372.5,138.86538461538464L373.5,139.15384615384613L374.5,137.72307692307695L375.5,137.74615384615385L376.5,137.71153846153848L377.5,138.04615384615389L378.5,136.32692307692304L379.5,134.95384615384614L380.5,134.05384615384614L381.5,132.5076923076923L382.5,134.44615384615386L383.5,134.9076923076923L384.5,135L385.5,134.9653846153846L386.5,134.74615384615385L387.5,134.89615384615382L388.5,134.9423076923077L389.5,134.90769230769232L390.5,134.9423076923077L391.5,134.1L392.5,132.20769230769227L393.5,131.57307692307694L394.5,133.48846153846154L395.5,133.4423076923077L396.5,133.40769230769232L397.5,133.40769230769232L398.5,133.4423076923077L399.5,133.45384615384614L400.5,134.3769230769231" style="fill: none; stroke: #4c78a8; stroke-width: 2;"></path></g></g><path class="foreground" d="" style="display: none; fill: none;"></path></g><g transform="translate(0,0)"><path class="background" d="M0,0h400v300h-400Z" style="fill: none;"></path><g><g class="mark-line role-mark layer_0_marks"><path d="M0,179.30769230769232L0.5,166.6153846153846L1,172.6153846153846L1.5,168.1153846153846L2,169.66153846153847L2.5,175.84615384615387L3,176.967032967033L3.5000000000000004,180.5769230769231L4,181.84615384615387L4.5,183.62307692307692L5,185.74825174825176L5.5,189.49999999999997L6,192.95857988165682L6.5,196.36813186813188L7.000000000000001,199.44615384615386L7.5,202.15384615384616L8,204.99095022624437L8.5,206.87179487179486L9,209.10121457489876L9.5,211.50000000000003L10.5,215.08846153846153L11.5,219.74999999999997L12.5,223.48846153846154L13.5,228.04615384615386L14.499999999999998,232.06153846153845L15.5,234.61153846153846L16.5,238.09615384615384L17.5,240.76153846153846L18.5,244.1423076923077L19.5,247.15384615384616L20.5,249.8076923076923L21.5,251.34230769230768L22.5,252.65769230769232L23.5,251.78076923076924L24.5,252.89999999999998L25.5,253.96153846153845L26.5,254.7923076923077L27.500000000000004,254.12307692307692L28.499999999999996,252.79615384615386L29.5,253.0846153846154L30.5,253.9846153846154L31.5,252.76153846153844L32.5,251.06538461538463L33.5,252.2192307692308L34.5,250.73076923076925L35.5,251.24999999999997L36.5,251.9769230769231L37.5,250.47692307692307L38.5,248.91923076923075L39.5,249.08076923076922L40.5,249.46153846153848L41.5,249.77307692307693L42.5,250.2923076923077L43.5,250.63846153846154L44.5,250.8230769230769L45.5,251.1L46.5,249.3576923076923L47.5,251.66538461538462L48.5,254.11153846153846L49.5,252.4846153846154L50.5,248.63076923076923L51.5,251.08846153846153L52.5,253.41923076923078L53.5,251.60769230769233L54.50000000000001,253.98461538461535L55.50000000000001,252.13846153846154L56.49999999999999,252.43846153846155L57.49999999999999,252.58846153846153L58.5,252.34615384615384L59.5,250.7653846153846L60.5,247.00384615384615L61.5,247.37307692307692L62.5,243.29999999999998L63.5,245.42307692307693L64.5,243.64615384615388L65.5,241.8923076923077L66.5,241.8923076923077L67.5,242.1115384615385L68.5,242.26153846153846L69.5,244.58076923076922L70.5,248.6423076923077L71.5,248.73461538461538L72.5,248.89615384615385L73.5,251.07692307692307L74.5,249.08076923076922L75.5,249.2307692307692L76.5,247.2L77.5,249.38076923076923L78.5,249.9115384615385L79.5,249.83076923076925L80.5,254.11153846153846L81.5,254.1346153846154L82.5,254.2846153846154L83.5,254.43461538461537L84.5,256.61538461538464L85.5,258.6807692307692L86.5,260.8615384615385L87.5,258.70384615384614L88.5,256.6615384615385L89.5,254.59615384615387L90.5,252.68076923076924L91.5,250.78846153846152L92.5,250.6153846153846L93.5,246.45L94.5,248.52692307692308L95.5,246.5076923076923L96.5,246.6576923076923L97.5,246.7153846153846L98.5,246.75L99.5,249.1846153846154L100.49999999999999,249.01153846153846L101.49999999999999,249.0576923076923L102.49999999999999,253.35000000000002L103.49999999999999,251.33076923076925L104.5,247.21153846153845L105.5,247.21153846153845L106.5,247.30384615384617L107.5,249.58846153846153L108.5,251.7L109.5,253.7653846153846L110.5,255.9230769230769L111.5,258.0230769230769L112.5,258.38076923076926L113.5,260.4576923076923L114.5,260.57307692307694L115.5,264.7730769230769L116.5,266.81538461538463L117.5,266.83846153846156L118.5,266.8730769230769L119.5,266.8038461538461L120.5,264.8538461538462L121.50000000000001,264.91153846153844L122.50000000000001,264.9576923076923L123.50000000000001,262.8692307692308L124.50000000000001,267.0346153846154L125.49999999999999,267.15L126.49999999999999,265.03846153846155L127.49999999999999,260.8269230769231L128.5,260.91923076923075L129.5,258.76153846153846L130.5,258.7269230769231L131.5,258.8076923076923L132.5,258.79615384615386L133.5,260.98846153846154L134.5,260.9307692307692L135.5,260.9423076923077L136.5,261.0346153846154L137.5,261.1269230769231L138.5,263.20384615384614L139.5,259.0730769230769L140.5,259.1884615384615L141.5,259.21153846153845L142.5,256.58076923076925L143.5,260.80384615384617L144.5,258.6807692307692L145.5,258.75L146.5,258.76153846153846L147.5,260.91923076923075L148.5,261.0230769230769L149.5,262.96153846153845L150.5,263.03076923076924L151.5,262.95000000000005L152.5,262.9730769230769L153.5,262.9384615384616L154.5,260.9307692307692L155.5,258.87692307692305L156.5,254.64230769230767L157.5,254.58461538461538L158.5,250.43076923076922L159.5,252.54230769230767L160.5,252.41538461538462L161.5,252.46153846153848L162.5,255.02307692307693L163.5,252.9923076923077L164.5,255.2192307692308L165.5,255.17307692307693L166.5,257.3076923076923L167.5,259.38461538461536L168.5,255.08076923076922L169.5,255.46153846153848L170.5,253.37307692307692L171.5,253.41923076923078L172.5,253.2923076923077L173.5,251.19230769230768L174.5,253.2576923076923L175.5,255.40384615384616L176.5,259.58076923076925L177.5,259.5576923076923L178.5,261.6346153846154L179.5,263.7923076923077L180.5,266.03076923076924L181.5,266.06538461538463L182.5,266.08846153846156L183.5,268.2L184.5,263.9307692307692L185.5,264.0346153846154L186.5,264.0576923076923L187.5,262.0153846153846L188.5,266.33076923076925L189.5,266.2846153846154L190.5,268.36153846153843L191.5,268.15384615384613L192.5,268.24615384615385L193.5,270.40384615384613L194.5,268.36153846153843L195.5,266.0423076923077L196.5,261.9L197.5,259.8115384615385L198.5,262.0615384615385L199.5,262.0615384615385L200.5,261.9923076923077L201.5,261.9576923076923L202.5,262.0153846153846L203.5,262.03846153846155L204.5,264.15L205.50000000000003,264.0230769230769L206.5,264.01153846153846L207.50000000000003,266.1L208.5,266.0423076923077L209.50000000000003,266.08846153846156L210.5,266.1461538461539L211.50000000000003,266.3538461538462L212.5,266.4230769230769L213.49999999999997,266.46923076923076L214.5,268.62692307692305L215.49999999999997,270.86538461538464L216.5,272.9423076923077L217.49999999999997,272.9769230769231L218.5,270.8076923076923L219.49999999999997,270.8076923076923L220.5,270.8769230769231L221.5,268.82307692307694L222.5,268.82307692307694L223.5,268.84615384615387L224.5,270.9923076923077L225.5,271.09615384615387L226.5,264.8192307692308L227.5,264.7730769230769L228.5,264.70384615384614L229.5,262.65L230.50000000000003,260.55L231.5,258.4730769230769L232.50000000000003,258.3923076923077L233.5,258.28846153846155L234.50000000000003,258.32307692307694L235.5,258.3923076923077L236.50000000000003,258.35769230769233L237.5,260.3538461538461L238.49999999999997,262.5230769230769L239.5,260.4L240.49999999999997,260.44615384615383L241.5,260.43461538461537L242.49999999999997,258.3692307692308L243.5,258.1269230769231L244.49999999999997,253.90384615384616L245.5,253.23461538461538L246.5,259.5692307692308L247.5,257.46923076923076L248.5,257.6076923076923L249.5,257.55L250.5,259.6730769230769L251.5,261.76153846153846L252.5,261.66923076923075L253.5,261.76153846153846L254.5,259.63846153846157L255.50000000000003,259.6846153846154L256.5,257.6653846153846L257.5,255.68076923076924L258.5,255.6923076923077L259.5,257.8615384615385L260.5,255.65769230769232L261.5,257.7L262.5,259.8L263.5,260.0423076923077L264.5,264.35769230769233L265.5,262.8923076923077L266.5,262.89230769230767L267.5,264.9576923076923L268.5,264.96923076923076L269.5,267.1038461538462L270.5,267.1153846153846L271.5,267.08076923076925L272.5,265.15384615384613L273.5,265.17692307692306L274.5,265.08461538461535L275.5,265.0153846153846L276.5,267.11538461538464L277.5,269.40000000000003L278.5,269.3423076923077L279.5,269.23846153846154L280.5,271.32692307692304L281.5,269.2846153846154L282.5,269.23846153846154L283.5,269.20384615384614L284.5,268.99615384615385L285.5,270.7730769230769L286.5,268.69615384615383L287.5,268.84615384615387L288.5,266.7L289.5,264.3923076923077L290.5,264.34615384615387L291.5,264.3346153846154L292.5,266.4576923076923L293.5,264.35769230769233L294.5,266.5269230769231L295.5,266.50384615384615L296.5,266.46923076923076L297.5,266.4L298.5,266.3884615384615L299.5,266.44615384615383L300.5,266.05384615384617L301.5,266.06538461538463L302.5,266.05384615384617L303.5,266.1L304.5,266.1923076923077L305.5,266.57307692307694L306.5,268.5807692307692L307.5,268.48846153846154L308.5,268.4653846153846L309.5,268.6384615384615L310.5,268.66153846153844L311.5,268.78846153846155L312.5,266.65384615384613L313.5,266.61923076923074L314.5,266.5846153846154L315.5,266.7L316.5,268.92692307692306L317.5,268.8692307692308L318.5,266.81538461538463L319.5,264.75L320.5,264.8884615384615L321.5,266.98846153846154L322.5,266.9769230769231L323.5,266.71153846153845L324.5,266.67692307692306L325.5,266.64230769230767L326.5,266.61923076923074L327.5,266.67692307692306L328.5,268.84615384615387L329.5,270.9576923076923L330.5,270.4384615384615L331.5,266.23846153846154L332.5,268.3269230769231L333.5,268.03846153846155L334.5,268.0961538461538L335.5,268.11923076923074L336.5,268.07307692307694L337.5,267.96923076923076L338.5,270.0230769230769L339.5,272.08846153846156L340.5,272.3769230769231L341.5,270.3L342.5,270.3692307692308L343.5,270.62307692307695L344.5,270.6923076923077L345.5,270.70384615384614L346.5,270.79615384615386L347.5,270.7846153846154L348.5,270.73846153846154L349.5,270.8076923076923L350.5,271.3730769230769L351.5,273.4384615384615L352.5,271.32692307692304L353.5,273.75L354.5,273.55384615384617L355.5,273.42692307692306L356.5,273.3576923076923L357.5,273.5192307692308L358.5,273.5769230769231L359.5,273.6461538461538L360.5,273.6L361.5,271.4653846153846L362.5,271.4307692307692L363.5,271.4076923076923L364.5,271.4307692307692L365.5,271.4653846153846L366.5,271.51153846153846L367.5,271.4769230769231L368.5,271.5L369.5,271.45384615384614L370.5,271.38461538461536L371.5,273.49615384615385L372.5,275.6192307692308L373.5,275.59615384615387L374.5,275.7692307692308L375.5,275.78076923076924L376.5,275.81538461538463L377.5,275.7346153846154L378.5,271.41923076923075L379.5,271.2923076923077L380.5,269.26153846153846L381.5,273.45L382.5,273.5423076923077L383.5,271.4653846153846L384.5,271.4076923076923L385.5,271.3730769230769L386.5,271.36153846153843L387.5,269.25L388.5,269.2269230769231L389.5,269.20384615384614L390.5,269.2269230769231L391.5,269.3076923076923L392.5,269.26153846153846L393.5,269.33076923076925L394.5,269.33076923076925L395.5,269.3769230769231L396.5,269.4576923076923L397.5,267.3807692307692L398.5,271.6730769230769L399.5,271.8L400.5,273.90000000000003" style="fill: none; stroke: #f58518; stroke-width: 2;"></path></g></g><path class="foreground" d="" style="display: none; fill: none;"></path></g></g><g class="mark-group role-scope layer_1_layer_0_pathgroup"><g transform="translate(0,0)"><path class="background" d="M0,0h400v300h-400Z" style="fill: none;"></path><g><g class="mark-area role-mark layer_1_layer_0_marks"><path d="M0,68.07692307692307L0.5,68.07692307692307L1,68.07692307692307L1.5,68.07692307692307L2,68.07692307692307L2.5,68.07692307692307L3,68.07692307692307L3.5000000000000004,68.07692307692307L4,68.07692307692307L4.5,68.07692307692307L5,68.07692307692307L5.5,68.07692307692307L6,68.07692307692307L6.5,68.07692307692307L7.000000000000001,68.07692307692307L7.5,68.07692307692307L8,68.07692307692307L8.5,68.07692307692307L9,68.07692307692307L9.5,68.07692307692307L10.5,68.07692307692307L11.5,68.07692307692307L12.5,68.07692307692307L13.5,68.07692307692307L14.499999999999998,68.07692307692307L15.5,68.07692307692307L16.5,68.07692307692307L17.5,68.07692307692307L18.5,68.07692307692307L19.5,68.07692307692307L20.5,68.07692307692307L21.5,68.07692307692307L22.5,68.07692307692307L23.5,68.07692307692307L24.5,68.07692307692307L25.5,68.07692307692307L26.5,68.07692307692307L27.500000000000004,68.07692307692307L28.499999999999996,68.07692307692307L29.5,68.07692307692307L30.5,68.07692307692307L31.5,68.07692307692307L32.5,68.07692307692307L33.5,68.07692307692307L34.5,68.07692307692307L35.5,68.07692307692307L36.5,68.07692307692307L37.5,68.07692307692307L38.5,68.07692307692307L39.5,68.07692307692307L40.5,70.91470576488447L41.5,72.55763258423048L42.5,72.55763258423048L43.5,72.55763258423048L44.5,73.75248845284578L45.5,77.85980550121087L46.5,80.8469451727492L47.5,82.93794294282596L48.5,85.55169015542195L49.5,89.58432871199861L50.5,94.06503821930595L51.5,98.65776546429609L52.5,103.43718893875732L53.5,107.58184523301667L54.50000000000001,107.58184523301667L55.50000000000001,111.87585851085291L56.49999999999999,117.29004916551607L57.49999999999999,121.4347054597754L58.5,125.54202250814053L59.5,125.54202250814053L60.5,127.52100254053464L61.5,125.87807572118854L62.5,130.1347497531306L63.5,135.3995834242168L64.5,139.2081865054281L65.5,138.83479404648574L66.5,141.14982729192792L67.5,144.21164545525465L68.5,146.60135719248527L69.5,147.53483833984097L70.5,148.05758778236017L71.5,148.7296942084563L72.5,149.02840817561014L73.5,149.25244365097547L74.5,153.91984938775403L75.5,154.81599128921548L76.5,154.06920637133098L77.5,154.81599128921548L78.5,156.1228648955135L79.5,161.61173404196506L80.5,162.09714423859006L81.5,167.54867413914744L82.5,168.03408433577235L83.5,167.51133489325315L84.5,167.8473881063012L85.5,169.30361869617613L86.5,169.26627945028187L87.5,168.93022623723385L88.5,163.92676728740724L89.5,164.00144577919568L90.5,163.47869633667653L91.5,162.84392915647464L92.5,163.3293393530996L93.5,164.74823069708026L94.5,165.6070333526475L95.5,165.49501561496479L96.5,166.57785374589747L97.5,167.06326394252238L98.5,166.98858545073398L99.5,166.61519299179164L100.49999999999999,166.98858545073398L101.49999999999999,167.32463866378197L102.49999999999999,168.55683377829155L103.49999999999999,168.40747679471465L104.5,168.63151227008004L105.5,169.22894020438767L106.5,169.7890288928011L107.5,170.75984928605104L108.5,175.57661200640644L109.5,175.98734371124297L110.5,177.4062350552237L111.5,178.15301997310823L112.5,172.58947233486825L113.5,172.47745459718547L114.5,172.85084705612783L115.5,173.26157876096434L116.5,173.18690026917588L117.5,172.47745459718547L118.5,172.55213308897396L119.5,173.33625725275277L120.5,173.63497121990662L121.50000000000001,173.9336851870604L122.50000000000001,173.14956102328168L123.50000000000001,174.38175613779117L124.50000000000001,174.53111312136812L125.49999999999999,174.41909538368537L126.49999999999999,174.19505990832005L127.49999999999999,174.41909538368537L128.5,175.38991577693534L129.5,175.61395125230072L130.5,175.31523728514688L131.5,175.80064748177182L132.5,181.73758757895413L133.5,176.06202220303146L134.5,176.1367006948199L135.5,176.24871843250259L136.5,176.32339692429105L137.5,177.18219957985826L138.5,177.63027053058903L139.5,177.89164525184867L140.5,177.70494902237746L141.5,176.2860576783968L142.5,176.80880712091601L143.5,176.73412862912755L144.5,175.83798672766605L145.5,176.17403994071412L146.5,176.32339692429105L147.5,175.61395125230072L148.5,175.50193351461803L149.5,175.68862974408916L150.5,176.1367006948199L151.5,175.7259689899834L152.5,175.76330823587762L153.5,181.66290908716567L154.5,181.58823059537724L155.5,181.81226607074262L156.5,176.06202220303146L157.5,176.32339692429105L158.5,176.17403994071412L159.5,175.61395125230072L160.5,175.7259689899834L161.5,176.95816410449294L162.5,177.2568780716467L163.5,177.77962751416595L164.5,179.08650112046396L165.5,179.01182262867553L166.5,179.01182262867553L167.5,173.70964971169508L168.5,174.0457029247431L169.5,173.56029272811816L170.5,173.48561423632967L171.5,173.9336851870604L172.5,167.9594058439839L173.5,168.14610207345507L174.5,168.2954590570319L175.5,168.70619076186844L176.5,174.71780935083922L177.5,174.79248784262768L178.5,175.12854105567575L179.5,175.57661200640644L180.5,175.35257653104108L181.5,175.50193351461803L182.5,175.53927276051226L183.5,175.05386256388732L184.5,174.9791840720988L185.5,174.53111312136812L186.5,174.49377387547386L187.5,180.61741020212727L188.5,180.76676718570423L189.5,181.51355210358875L190.5,181.51355210358875L191.5,181.66290908716567L192.5,187.8612239056076L193.5,187.97324164329032L194.5,188.1972771186557L195.5,187.78654541381914L196.5,187.1517782336173L197.5,187.7619007573521L198.5,187.7992337958236L199.5,187.87389988447453L200.5,182.19932382513161L201.5,182.12465901288837L202.5,182.19932382513161L203.5,182.68464554313027L204.5,182.3486535037372L205.50000000000003,183.48180097119362L206.5,184.5827749641755L207.50000000000003,184.66405374044024L208.5,185.42962526948673L209.50000000000003,185.8379844857891L210.5,187.06889938815831L211.50000000000003,188.5985778836384L212.5,189.12176404669813L213.49999999999997,189.80825284377372L214.5,184.8514655723483L215.49999999999997,185.17371755649629L216.5,187.8117950319559L217.49999999999997,187.00556460883286L218.5,188.79081071786402L219.49999999999997,190.4978669287655L220.5,197.71467965081013L221.5,200.3162117329017L222.5,202.67389723786815L223.5,204.880257895007L224.5,207.86128466316458L225.5,208.9875863846427L226.5,208.71224560653891L227.5,210.5253735795175L228.5,210.95117130115102L229.5,210.57097029949054L230.50000000000003,211.11226648919236L231.5,210.009807994882L232.50000000000003,210.59058449236204L233.5,208.98358184204386L234.50000000000003,215.61593416807412L235.5,217.98040085385244L236.50000000000003,218.49399493968528L237.5,221.741326817746L238.49999999999997,221.38130651199765L239.5,220.3839518906463L240.49999999999997,220.94355877714042L241.5,217.69214352807938L242.49999999999997,217.9394741038686L243.5,218.36631693506808L244.49999999999997,218.64714429813685L245.5,218.23638731123174L246.5,219.2551083985442L247.5,219.40424913688724L248.5,218.64368044646568L249.5,218.77213040031705L250.5,218.34419552322717L251.5,220.08430820001433L252.5,221.0036490017275L253.5,221.41998454442458L254.5,218.15274092983506L255.50000000000003,218.44407731988537L256.5,218.5867426454601L257.5,218.36427048256957L258.5,219.2269484462301L259.5,220.86192131915547L260.5,221.47195810824394L261.5,223.96664051856644L262.5,220.45094060977877L263.5,218.84958683503407L264.5,213.53471683726016L265.5,214.17507802699689L266.5,214.43100685574393L267.5,215.91474930701585L268.5,217.04073486309483L269.5,220.5029296390728L270.5,221.53784540489067L271.5,216.18637459043543L272.5,217.16864371458954L273.5,220.8387442917469L274.5,224.63354677521377L275.5,224.25490636738232L276.5,221.54936726517977L277.5,221.68695963716135L278.5,222.2817255372219L279.5,222.30341652571315L280.5,221.58376323565938L281.5,223.04683671170505L282.5,227.56899417574064L283.5,228.79841492709L284.5,234.132477161848L285.5,231.89557267416117L286.5,228.13536818491377L287.5,227.80290260343227L288.5,228.2338896314171L289.5,228.8703726562013L290.5,228.74997960264295L291.5,234.41063882988118L292.5,234.0190634915276L293.5,234.37022855442765L294.5,234.71671167404313L295.5,234.8752311904486L296.5,237.46165820149724L297.5,238.1951899384465L298.5,237.83050788514822L299.5,238.16237152346133L300.5,238.0987139724012L301.5,238.01526188729775L302.5,238.56129801110757L303.5,239.5956345470212L304.5,239.4907857568959L305.5,241.87990288275947L306.5,246.23258910422376L307.5,245.30450690492415L308.5,245.54004686464685L309.5,245.10300162069535L310.5,240.51827968983594L311.5,239.76909660098264L312.5,239.70886150770937L313.5,239.65485747591202L314.5,239.57267059108972L315.5,240.310616263082L316.5,236.2093207421677L317.5,231.80573126887577L318.5,232.48925142865093L319.5,232.9880788130731L320.5,234.07258800919155L321.5,232.81613229029244L322.5,232.86253991658725L323.5,232.61816742950208L324.5,232.08322918772012L325.5,231.50119202335543L326.5,227.23325703620662L327.5,228.48504804010003L328.5,228.1823731235067L329.5,228.55967106109495L330.5,233.65301742098993L331.5,230.44615912933207L332.5,231.09903295920716L333.5,231.06301484765254L334.5,227.63400051585282L335.5,223.91731155894854L336.5,223.9813519230808L337.5,227.58748744498348L338.5,227.42693313726872L339.5,227.24250585962395L340.5,226.95531176155046L341.5,228.25631610651817L342.5,227.92871737929232L343.5,228.06912098768365L344.5,225.17932025916016L345.5,225.94863442349654L346.5,229.7644006967322L347.5,230.0419521410989L348.5,230.52221770362954L349.5,230.35203687197566L350.5,230.1598305495724L351.5,233.94876427645576L352.5,234.3590488321304L353.5,234.32651663484364L354.5,237.47778957884964L355.5,241.55811035742155L356.5,245.98995024667747L357.5,245.65443979573712L358.5,245.19528809334744L359.5,244.09192943734067L360.5,244.7211886681127L361.5,243.7113538649006L362.5,238.96531044936864L363.5,238.50043625363801L364.5,242.69005009258933L365.5,242.74679340456774L366.5,242.8025219837791L367.5,242.47561099577544L368.5,238.05599588974152L369.5,238.27446763884382L370.5,238.6021763834037L371.5,236.37714110589542L372.5,236.10751059527442L373.5,236.74741470619014L374.5,233.59543277638798L375.5,233.6583409400581L376.5,233.57027212481313L377.5,234.36275226084828L378.5,229.96781224538597L379.5,226.90621274597626L380.5,224.91234039809035L381.5,221.53369409415265L382.5,226.66619877343922L383.5,227.6625939708625L384.5,227.91306301111007L385.5,227.8418259661823L386.5,227.39878399910936L387.5,227.74075583433185L388.5,227.86307227764817L389.5,227.7922145245591L390.5,227.88402449317968L391.5,226.17642242489683L392.5,222.49109042081201L393.5,221.311339081792L394.5,225.04784788312122L395.5,224.96534897590368L396.5,224.93152092964903L397.5,224.8886438606873L398.5,226.69488749068785L399.5,226.72731612094955L400.5,228.45698466366784L400.5,40.29686149017837L399.5,40.18037618674276L398.5,40.189727893927596L397.5,41.926740754697306L396.5,41.883863685735605L395.5,41.91926640871171L394.5,41.92907519380185L393.5,41.83481476436182L392.5,41.92429419457258L391.5,42.02357757510316L390.5,42.000590891435735L389.5,42.023170090825516L388.5,42.02154310696724L387.5,42.05155185797574L386.5,42.093523693198364L385.5,42.0889432645869L384.5,42.08693698888993L383.5,42.15279064452207L382.5,42.226108918868476L381.5,43.48169052123197L380.5,43.1953519096019L379.5,43.00147956171597L378.5,42.68603390846013L377.5,41.72955543145946L376.5,41.85280479826383L375.5,41.83396675224958L374.5,41.85072106976588L373.5,41.56027760150218L372.5,41.623258635494864L371.5,41.58439735564306L370.5,41.34397746275016L369.5,41.39476313038702L368.5,41.4286194948738L367.5,40.86285054268609L366.5,40.812862631605554L365.5,40.8224373646631L364.5,40.833026830487626L363.5,41.35340990020808L362.5,41.30392031986207L361.5,40.36556921202245L360.5,40.27881133188731L359.5,40.37730133189015L358.5,40.26625036819104L357.5,40.22248328118593L356.5,40.16389590716872L355.5,40.60342810411689L354.5,40.87605657499654L353.5,41.02732951900248L352.5,41.11018193710038L351.5,41.17431264662113L350.5,41.24786175811985L349.5,41.240270820332L348.5,41.20855152713966L347.5,41.31958632043961L346.5,41.34329161096011L345.5,41.235980961118855L344.5,41.17452589468601L343.5,41.30780208923946L342.5,41.286667236092285L341.5,41.212914662712535L340.5,41.49853439229565L339.5,41.44210952499145L338.5,41.41922070888515L337.5,41.3509740934781L336.5,41.21864807691921L335.5,41.236534594897506L334.5,41.39676871491636L333.5,41.42929284465521L332.5,41.393274733100554L331.5,41.44614856297565L330.5,41.51621334824088L329.5,42.640328938904986L328.5,42.694549953416356L327.5,42.62264426759231L326.5,42.69751219456256L325.5,42.32957720741376L324.5,42.30138619689524L323.5,42.25106333972866L322.5,42.214383160335785L321.5,42.214636940476794L320.5,41.97356583696231L319.5,42.08884426384998L318.5,42.19536395596444L317.5,42.325037961893486L316.5,41.798371565524604L315.5,41.227845275379536L314.5,41.34271402429491L313.5,41.32975790870344L312.5,41.321907723059866L311.5,41.30782647594046L310.5,41.18172031016405L309.5,40.3585368408431L308.5,40.290722366122395L307.5,40.34164694122967L306.5,40.22125704962235L305.5,40.720097117240556L304.5,40.9169065507964L303.5,40.904365452978794L302.5,41.01562506581553L301.5,41.123199651163816L300.5,41.13205525836801L299.5,41.20685924576935L298.5,41.19256903792868L297.5,41.127886984630464L296.5,41.21526487542582L295.5,41.493999578782166L294.5,41.49098063364917L293.5,41.56054067634156L292.5,41.588628816164714L291.5,41.58936117011879L290.5,42.72694347428006L289.5,42.72193503610637L288.5,42.78149498396752L287.5,42.82017431964459L286.5,42.81078566124006L285.5,42.41981194122346L284.5,42.144445915075096L283.5,43.024661995986946L282.5,43.21562120887475L281.5,43.86085559598726L280.5,44.100852148955994L279.5,43.981198858902275L278.5,43.979812924316604L277.5,44.04380959360785L276.5,44.06601735020487L275.5,43.691247478771515L274.5,43.635683994017L273.5,44.08433263133006L272.5,44.4082793623335L271.5,44.46747156341067L270.5,43.26984690280162L269.5,43.26630113015793L268.5,43.33618821382828L267.5,43.49294300067643L266.5,43.54591622117917L265.5,43.59415274223386L264.5,43.51912931658606L263.5,42.104259318812126L262.5,41.93367477483653L261.5,41.92566717374123L260.5,41.53573419944837L259.5,41.52269406545989L258.5,41.380743861462236L257.5,41.38957567127653L256.5,41.46710350838606L255.50000000000003,41.42515344934543L254.5,41.32418214708798L253.5,41.63386160942159L252.5,41.75019715211869L251.5,41.954153338447156L250.5,41.963496784465065L249.5,41.99710036891372L248.5,42.03324263045741L247.5,41.82652009388195L246.5,41.79104544760966L245.5,42.04822807338371L244.49999999999997,42.168240317247836L243.5,42.149067680316506L242.49999999999997,42.275910511516L241.5,42.292471856536025L240.49999999999997,42.38721045362877L239.5,42.60066349396911L238.49999999999997,42.66484733415615L237.5,42.67405779763857L236.50000000000003,42.52908198339168L235.5,42.5349837615322L234.50000000000003,42.70714275500288L233.5,44.10103354257157L232.50000000000003,44.086338584561105L231.5,43.905576620502615L230.50000000000003,43.864656587730735L229.5,43.92133739281715L228.5,43.81805946807975L227.5,43.82847257432866L226.5,43.68006208576878L225.5,43.404721307665L224.5,43.26179225991234L223.5,42.98897287422372L222.5,42.403025839054976L221.5,41.78378826709826L220.5,41.03916650303603L219.49999999999997,41.7021330712345L218.5,40.80149697444364L217.49999999999997,39.72520462193637L216.5,40.442051121890245L215.49999999999997,39.54935936658063L214.5,38.69468827380547L213.49999999999997,35.42251638699551L212.5,34.70131287637878L211.50000000000003,33.93219134713084L210.5,32.34648522722628L209.50000000000003,30.669707821903216L208.5,30.82422088435939L207.50000000000003,29.097484721098226L206.5,28.924917343516796L205.50000000000003,27.141275951883273L204.5,25.851346496262778L203.5,25.723046764562014L202.5,25.90836848256069L201.5,25.936879448650075L200.5,25.90836848256069L199.5,23.741484730910116L198.5,23.76999697340713L197.5,23.784253088801677L196.5,22.594375612536567L195.5,22.35191612464243L194.5,22.19503057365202L193.5,22.28060451055589L192.5,22.323391479007768L191.5,24.69093706668042L190.5,24.747986357949713L189.5,24.747986357949713L188.5,25.033232814295815L187.5,25.090282105565024L186.5,27.429303047603042L185.5,27.41504072478577L184.5,27.243892850978114L183.5,27.21536820534348L182.5,27.029958008718495L181.5,27.044220331535826L180.5,27.101269622805034L179.5,27.01569568590122L178.5,27.186843559708905L177.5,27.315204465064596L176.5,27.343729110699257L175.5,29.63996308428537L174.5,29.79684863527575L173.5,29.853897926544988L172.5,29.92520954063147L171.5,27.643237889862633L170.5,27.814385763670288L169.5,27.78586111803571L168.5,27.600450921410726L167.5,27.728811826766503L166.5,25.70356198670916L165.5,25.70356198670916L164.5,25.67503734107453L163.5,26.17421863968019L162.5,26.37389115912248L161.5,26.487989741660925L160.5,26.958646394631984L159.5,27.00143336308392L158.5,26.78749852082433L157.5,26.73044922955512L156.5,26.830285489276264L155.5,24.633887775411267L154.5,24.719461712315052L153.5,24.69093706668042L152.5,26.94438407181471L151.5,26.958646394631984L150.5,26.801760843641603L149.5,26.972908717449343L148.5,27.044220331535826L147.5,27.00143336308392L146.5,26.73044922955512L145.5,26.78749852082433L144.5,26.915859426180077L143.5,26.57356367856474L142.5,26.545039032930163L141.5,26.744711552372394L140.5,26.202743285314796L139.5,26.131431671228313L138.5,26.231267930949457L137.5,26.402415804757055L136.5,26.73044922955512L135.5,26.758973875189724L134.5,26.801760843641603L133.5,26.830285489276264L132.5,24.66241242104587L131.5,26.93012174899738L130.5,27.115531945622365L129.5,27.00143336308392L128.5,27.087007299987732L127.49999999999999,27.457827693237675L126.49999999999999,27.543401630141574L125.49999999999999,27.457827693237675L124.50000000000001,27.41504072478577L123.50000000000001,27.47209001605495L122.50000000000001,27.942746669026064L121.50000000000001,27.643237889862633L120.5,27.757336472401136L119.5,27.871435054939496L118.5,28.17094383410293L117.5,28.19946847973756L116.5,27.928484346208762L115.5,27.899959700574158L114.5,28.056845251564482L113.5,28.19946847973756L112.5,28.156681511285655L111.5,26.03159541150717L110.5,26.3168418678533L109.5,26.85881013491084L108.5,27.01569568590122L107.5,28.855535329333605L106.5,29.22635572258355L105.5,29.44029056484314L104.5,29.668487729920002L103.49999999999999,29.754061666823816L102.49999999999999,29.697012375554607L101.49999999999999,30.167669028525665L100.49999999999999,30.296029933881442L99.5,30.438653162054464L98.5,30.296029933881442L97.5,30.26750528824681L96.5,30.452915484871795L95.5,30.866522846573616L94.5,30.823735878121738L93.5,31.151769302919774L92.5,31.693737569977344L91.5,31.8791477666023L90.5,31.636688278708107L89.5,31.437015759265847L88.5,31.46554040490045L87.5,29.554389147381556L86.5,29.426028242025808L85.5,29.411765919208477L84.5,29.967996509083406L83.5,30.096357414439183L82.5,29.896684894996923L81.5,30.08209509162188L80.5,32.16439422294843L79.5,32.34980441957342L78.5,34.44636587371724L77.5,34.94554717232293L76.5,35.23079362866903L75.5,34.94554717232293L74.5,35.28784291993827L73.5,37.070633272101404L72.5,37.15620720900526L71.5,37.27030579154368L70.5,37.52702760225523L69.5,37.72670012169746L68.5,38.0832581921301L67.5,38.9960468524376L66.5,40.16555732345668L65.5,41.049821338129576L64.5,40.90719810995654L63.5,42.36195503732171L62.5,44.37294255456172L61.5,45.998847355734526L60.5,45.371305151773115L59.5,46.127208261090274L58.5,46.127208261090274L57.49999999999999,47.6960637709939L56.49999999999999,49.27918160371472L55.50000000000001,51.347218412223995L54.50000000000001,52.98738553621406L53.5,52.98738553621406L52.5,54.570503368934986L51.5,56.39608068955007L50.5,58.15034639607861L49.5,59.86182513415521L48.5,61.40215599842422L47.5,62.40051859563556L46.5,63.19920867340472L45.5,64.34019449878912L44.5,65.90905000869272L43.5,66.3654443388464L42.5,66.3654443388464L41.5,66.3654443388464L40.5,66.99298654280787L39.5,68.07692307692307L38.5,68.07692307692307L37.5,68.07692307692307L36.5,68.07692307692307L35.5,68.07692307692307L34.5,68.07692307692307L33.5,68.07692307692307L32.5,68.07692307692307L31.5,68.07692307692307L30.5,68.07692307692307L29.5,68.07692307692307L28.499999999999996,68.07692307692307L27.500000000000004,68.07692307692307L26.5,68.07692307692307L25.5,68.07692307692307L24.5,68.07692307692307L23.5,68.07692307692307L22.5,68.07692307692307L21.5,68.07692307692307L20.5,68.07692307692307L19.5,68.07692307692307L18.5,68.07692307692307L17.5,68.07692307692307L16.5,68.07692307692307L15.5,68.07692307692307L14.499999999999998,68.07692307692307L13.5,68.07692307692307L12.5,68.07692307692307L11.5,68.07692307692307L10.5,68.07692307692307L9.5,68.07692307692307L9,68.07692307692307L8.5,68.07692307692307L8,68.07692307692307L7.5,68.07692307692307L7.000000000000001,68.07692307692307L6.5,68.07692307692307L6,68.07692307692307L5.5,68.07692307692307L5,68.07692307692307L4.5,68.07692307692307L4,68.07692307692307L3.5000000000000004,68.07692307692307L3,68.07692307692307L2.5,68.07692307692307L2,68.07692307692307L1.5,68.07692307692307L1,68.07692307692307L0.5,68.07692307692307L0,68.07692307692307Z" style="fill: #4c78a8; opacity: 0.3;"></path></g></g><path class="foreground" d="" style="display: none; fill: none;"></path></g><g transform="translate(0,0)"><path class="background" d="M0,0h400v300h-400Z" style="fill: none;"></path><g><g class="mark-area role-mark layer_1_layer_0_marks"><path d="M0,252.41821090107996L0.5,233.58494738294425L1,238.32183238199661L1.5,232.73830227380043L2,236.76012794044757L2.5,240.41453189444448L3,242.73198779787668L3.5000000000000004,245.60021060991107L4,247.87326361323824L4.5,250.43583081662808L5,251.44284251270756L5.5,250.96507794034773L6,250.72249766016236L6.5,250.45531318299282L7.000000000000001,250.28257209250893L7.5,250.2367051623992L8,250.78585303202533L8.5,251.02583925176626L9,251.27835318486999L9.5,251.65846707496004L10.5,251.62444475400713L11.5,253.59355868547283L12.5,254.2619245887344L13.5,255.81148425090876L14.499999999999998,256.01502056192896L15.5,256.1587696775653L16.5,256.1920982167227L17.5,256.3034007131646L18.5,256.84453720587675L19.5,257.9074663644141L20.5,259.99050719037143L21.5,261.4117724160398L22.5,262.28320043997985L23.5,263.59793687718235L24.5,264.47515319974787L25.5,264.97465093938524L26.5,266.19340834767627L27.500000000000004,268.4108305549868L28.499999999999996,264.67302305438164L29.5,265.14309437993126L30.5,265.7958103674728L31.5,264.3049316383952L32.5,263.39807857237093L33.5,263.902770624527L34.5,264.10213618190824L35.5,264.9093163473478L36.5,265.9795604552992L37.5,267.2149818337427L38.5,266.0642645094327L39.5,265.7473869575218L40.5,266.0640474952062L41.5,266.2022518403252L42.5,267.1509832283159L43.5,267.4976306413633L44.5,267.5995694844773L45.5,267.9010757527518L46.5,269.21199519636775L47.5,268.40358256827244L48.5,270.59355528892416L49.5,267.319875686506L50.5,268.0292275435126L51.5,271.26874916960645L52.5,271.94738282600787L53.5,274.02593875268974L54.50000000000001,275.99854403748714L55.50000000000001,273.220465417931L56.49999999999999,273.43610775058977L57.49999999999999,269.6771431710752L58.5,269.6805563128021L59.5,271.95741920108816L60.5,268.41704388286945L61.5,268.7298076706622L62.5,267.462555081103L63.5,266.27555432048626L64.5,264.3106091145238L65.5,263.67474117169706L66.5,263.61709669244743L67.5,263.8261061115022L68.5,263.9264557023971L69.5,265.02512743894926L70.5,266.1523460220114L71.5,266.2426196825656L72.5,266.28875327214246L73.5,266.3232547241825L74.5,265.9547386273062L75.5,266.5703552293896L76.5,267.39615622665264L77.5,269.1589511312863L78.5,270.20408088742755L79.5,270.2998585330295L80.5,274.52820140482197L81.5,274.44808429641796L82.5,267.7259078520557L83.5,267.7701770204076L84.5,270.0923126317167L85.5,274.03968165412795L86.5,272.28473193413737L87.5,272.0203005836064L88.5,273.1756730744037L89.5,271.07142444848745L90.5,270.3639744561072L91.5,271.66602356456616L92.5,271.1786259331128L93.5,269.39781431754807L94.5,270.5748368775206L95.5,269.3753759276397L96.5,269.87393999772036L97.5,269.89526073249823L98.5,269.6877171563169L99.5,269.63649370723107L100.49999999999999,269.5974845421903L101.49999999999999,269.476735260014L102.49999999999999,275.0824939751216L103.49999999999999,270.4969752753158L104.5,269.99258642798867L105.5,270.0616619511637L106.5,270.04887292023074L107.5,271.4678613495778L108.5,272.4124383777067L109.5,271.1462683197075L110.5,270.90848032401203L111.5,271.80354612267047L112.5,272.31472163436956L113.5,272.58554303705114L114.5,272.65273578763197L115.5,273.7546223515666L116.5,274.058400533205L117.5,274.16770102692755L118.5,277.4528457710121L119.5,277.3730076416943L120.5,273.83583627016804L121.50000000000001,273.98881395991197L122.50000000000001,273.98286051901135L123.50000000000001,277.7099868126683L124.50000000000001,278.2403418765934L125.49999999999999,278.35780548752314L126.49999999999999,279.54053367156877L127.49999999999999,280.6213127473836L128.5,280.7063719003293L129.5,276.52619821326675L130.5,276.4201107640682L131.5,276.5446291208738L132.5,276.5148507207807L133.5,280.508651927908L134.5,280.41520487177564L135.5,280.4140811867214L136.5,280.4399357143753L137.5,280.5844353922978L138.5,279.54673383658604L139.5,272.74241672394936L140.5,272.95219459432747L141.5,273.00748107320436L142.5,273.33209612336856L143.5,272.95849407043886L144.5,270.1022726188951L145.5,270.1770098124767L146.5,274.2397728455039L147.5,278.40540662771525L148.5,278.4812973380898L149.5,280.0231057518658L150.5,280.25129009273496L151.5,280.02835557921026L152.5,280.086914363951L153.5,280.0654800563942L154.5,279.40696833751065L155.5,281.1512125581499L156.5,276.77801992203183L157.5,276.69219176539383L158.5,278.07463912807935L159.5,282.11350162077514L160.5,281.88230330969805L161.5,282.0125330232414L162.5,283.02984319661505L163.5,284.7810676378567L164.5,283.16614923047246L165.5,283.1131345380252L166.5,283.71586958146634L167.5,285.17691633783664L168.5,280.8719280984829L169.5,281.5648054474404L170.5,279.69219766948305L171.5,279.80908223442526L172.5,279.687802617898L173.5,281.5619790416954L174.5,279.6557342771734L175.5,281.378105857633L176.5,280.95265860268586L177.5,280.92266582031965L178.5,283.2645764224222L179.5,281.26177281115037L180.5,279.7100156480387L181.5,279.7111338397215L182.5,279.7866735865213L183.5,278.8812131150665L184.5,278.1107239861239L185.5,278.30956240469345L186.5,278.4161243601804L187.5,274.34296320109974L188.5,277.92287529812916L189.5,277.87794167593665L190.5,281.18420382570594L191.5,281.44431828271667L192.5,281.45584048157093L193.5,279.5592173099445L194.5,276.39990108514775L195.5,271.06495241985624L196.5,268.26090069819577L197.5,264.5690729717007L198.5,267.7958462229826L199.5,267.76689642291615L200.5,267.7114750914704L201.5,267.68474001517535L202.5,267.6810805961751L203.5,267.7199090788201L204.5,273.50110267838903L205.50000000000003,273.4173263916041L206.5,273.42771136405986L207.50000000000003,274.68177682599145L208.5,274.594265580874L209.50000000000003,274.6117458666795L210.5,274.7248079488099L211.50000000000003,275.04093614672513L212.5,275.1476914090582L213.49999999999997,275.1362783920976L214.5,275.7231238272371L215.49999999999997,275.6117823463084L216.5,277.95639657046956L217.49999999999997,278.1907566618093L218.5,275.00061745629387L219.49999999999997,274.9908819332994L220.5,275.0871573323069L221.5,276.0569193551016L222.5,275.9883825710996L223.5,276.13869887637145L224.5,279.58695133868906L225.5,279.60855560639817L226.5,276.77250054297986L227.5,276.69087507214346L228.5,276.51735167599725L229.5,272.0546955727747L230.50000000000003,269.44831610956805L231.5,271.4562433683916L232.50000000000003,271.4028760524238L233.5,271.12736581482994L234.50000000000003,271.1745872066213L235.5,271.3210109661552L236.50000000000003,269.08663135757484L237.5,274.1786734797738L238.49999999999997,276.8745298524298L239.5,274.41985990990963L240.49999999999997,274.48084380316214L241.5,274.4021959271796L242.49999999999997,275.2377255706025L243.5,274.6692001412626L244.49999999999997,274.2146932645658L245.5,273.69829731398744L246.5,275.00094712945736L247.5,269.9406077614815L248.5,270.1706741716293L249.5,276.85053019935805L250.5,279.6807076789045L251.5,281.6889659639509L252.5,281.5718477881352L253.5,281.937619853995L254.5,279.8508114819166L255.50000000000003,279.86094422715087L256.5,284.73741624305717L257.5,286.9810234974643L258.5,287.0741390874952L259.5,285.07927491251456L260.5,281.15059725520115L261.5,279.2622018888577L262.5,277.76994532298977L263.5,278.04344486052884L264.5,276.8673084313841L265.5,278.9375850210488L266.5,278.9683083099361L267.5,282.85275439312306L268.5,282.8093770972718L269.5,281.1644688095985L270.5,281.2527666052237L271.5,281.2527528019986L272.5,281.5960526312674L273.5,281.5472411889439L274.5,277.5114768586431L275.5,277.5215546902248L276.5,276.4446071709422L277.5,277.29737944327144L278.5,277.2413727819206L279.5,277.16012169932065L280.5,280.5256354417923L281.5,280.22043541620485L282.5,280.1770813036268L283.5,280.11504636009425L284.5,279.9683601935654L285.5,279.6123028892164L286.5,279.3268597626969L287.5,279.4909709031781L288.5,280.6580454943974L289.5,276.373112421234L290.5,276.2565068583756L291.5,276.15875201697L292.5,275.0349107399991L293.5,276.2441559429153L294.5,280.28048367024155L295.5,280.17951533362645L296.5,283.8717785321031L297.5,283.79667510571284L298.5,283.7292280138127L299.5,283.80691862902427L300.5,283.13313717990053L301.5,283.13111639528296L302.5,283.1518353691633L303.5,283.23066193707547L304.5,283.27984986879216L305.5,283.69061892194L306.5,281.2168070853628L307.5,281.05680723745735L308.5,282.8703694219752L309.5,286.76002773022884L310.5,286.82927577233426L311.5,286.9737596269738L312.5,283.8151016681843L313.5,283.75955615814536L314.5,283.7934871161436L315.5,283.7947185085796L316.5,281.5151942451938L317.5,281.44387770511446L318.5,283.99662459963633L319.5,286.5288652572509L320.5,286.8614916721149L321.5,284.3802476276699L322.5,284.30511286243166L323.5,283.7118375800347L324.5,283.77812398461396L325.5,283.7982481905345L326.5,283.68253419982403L327.5,283.81792810155446L328.5,286.9369474199631L329.5,284.46044104166424L330.5,284.087088655844L331.5,283.38440767552004L332.5,286.2429160232947L333.5,280.89019196094046L334.5,280.9276027075123L335.5,281.00514057791844L336.5,280.94257436847244L337.5,280.7420783802639L338.5,279.0077717495171L339.5,278.45273636618856L340.5,279.1923603271105L341.5,279.76535453063076L342.5,279.86251709205385L343.5,280.01447382656346L344.5,280.0413101072098L345.5,280.05635467725705L346.5,280.22830802981616L347.5,280.29900226408944L348.5,280.20812268596416L349.5,280.3031170857618L350.5,280.59188527962675L351.5,282.6185749499898L352.5,282.55515645765L353.5,283.28242093156655L354.5,283.47613480768894L355.5,283.3202371183297L356.5,283.2249660809276L357.5,283.4376106951577L358.5,283.41908535378195L359.5,283.4485336290578L360.5,283.21858985039177L361.5,279.9732494940072L362.5,280.00496032722725L363.5,279.9865598002942L364.5,280.03547586907837L365.5,280.0029300444094L366.5,280.0912594608505L367.5,280.03559199267556L368.5,280.1186785427051L369.5,280.05361952708137L370.5,280.01429317450976L371.5,279.149352396192L372.5,280.81900104749747L373.5,280.87586688972783L374.5,281.19752204308907L375.5,281.2492879283291L376.5,281.2363743937844L377.5,281.19097804586914L378.5,276.3514338488834L379.5,276.13616016784135L380.5,269.8447731672046L381.5,279.83555078875264L382.5,279.8452550164104L383.5,280.8052685521722L384.5,280.69961115780933L385.5,280.6234227506119L386.5,280.59632724983766L387.5,280.2276197827523L388.5,280.17734253877626L389.5,280.125489139357L390.5,280.00779247463004L391.5,280.0167273693896L392.5,279.91091964199336L393.5,280.0257000794465L394.5,280.0364315466328L395.5,280.1560788743008L396.5,280.13479134193295L397.5,276.1695821340299L398.5,276.4189486887874L399.5,276.5709480469056L400.5,279.5853420218423L400.5,268.21465797815773L399.5,267.02905195309444L398.5,266.9272051573664L397.5,258.59195632750857L396.5,258.7805932734517L395.5,258.59776727954534L394.5,258.62510691490564L393.5,258.635838382092L392.5,258.6121572810835L391.5,258.59865724599496L390.5,258.4460536792161L389.5,258.2822031683353L388.5,258.27650361506994L387.5,258.2723802172477L386.5,262.12674967323926L385.5,262.12273109554195L384.5,262.1157734575753L383.5,262.125500678597L382.5,267.2393603682049L381.5,267.06444921124734L380.5,268.6783037558723L379.5,266.44845521677405L378.5,266.48702768957816L377.5,270.2782527233616L376.5,270.3943948369849L375.5,270.31225053320935L374.5,270.3409394953725L373.5,270.3164408025799L372.5,270.41946049096407L371.5,267.8429552961157L370.5,262.754937594721L369.5,262.8540727806109L368.5,262.8813214572949L367.5,262.91825416117064L366.5,262.9318174622265L365.5,262.9278391863598L364.5,262.8260625924601L363.5,262.82882481509046L362.5,262.85657813431123L361.5,262.95751973676204L360.5,263.9814101496083L359.5,263.8437740632499L358.5,263.7347608000642L357.5,263.6008508433039L356.5,263.49041853445704L355.5,263.53360903551646L354.5,263.63155750000334L353.5,264.21757906843345L352.5,260.0986896961961L351.5,264.2583481269333L350.5,262.1542685665271L349.5,261.3122675296228L348.5,261.2688003909589L347.5,261.27022850514135L346.5,261.36399966249155L345.5,261.3513376304353L344.5,261.34330527740553L343.5,261.2316800195904L342.5,260.87594444640763L341.5,260.8346454693692L340.5,265.56148582673563L339.5,265.7241867107345L338.5,261.0383820966368L337.5,255.19638315819765L336.5,255.20357947768144L335.5,255.2333209605431L334.5,255.2647049847954L333.5,255.1867311159826L332.5,250.41093013055144L331.5,249.09251540140303L330.5,256.78983442107904L329.5,257.45494357372036L328.5,250.75536027234463L327.5,249.53591805229172L326.5,249.55592733863747L325.5,249.48636719408088L324.5,249.5757221692322L323.5,249.71123934304222L322.5,249.64873329141452L321.5,249.59667544925318L320.5,242.9154314048082L319.5,242.9711347427491L318.5,249.63414463113293L317.5,256.294583833347L316.5,256.3386519086523L315.5,249.60528149142039L314.5,249.37574365308723L313.5,249.4789053803162L312.5,249.492590639508L311.5,250.6031634499493L310.5,250.49380115074263L309.5,250.51689534669424L308.5,254.060399808794L307.5,255.92011583946567L306.5,255.94473137617564L305.5,249.45553492421385L304.5,249.1047655158232L303.5,248.9693380629245L302.5,248.95585693852902L301.5,248.99965283548627L300.5,248.97455512779175L299.5,249.08538906328343L298.5,249.0476950631104L297.5,249.00332489428718L296.5,249.06668300635843L295.5,252.82817697406585L294.5,252.77336248360461L293.5,252.47122867246927L292.5,257.8804738753855L291.5,252.5104787522607L290.5,252.43580083393212L289.5,252.4115029633814L288.5,252.74195450560256L287.5,258.2013367891296L286.5,258.0654479296108L285.5,261.9338509569375L284.5,258.02394749874236L283.5,258.29264594759803L282.5,258.2998417732963L281.5,258.34879535302593L280.5,262.1282107120539L279.5,261.3168013776025L278.5,261.4432426026948L277.5,261.5026205567286L276.5,257.78616205982706L275.5,252.50921454054443L274.5,252.65775391058764L273.5,248.80660496490225L272.5,248.71163967642488L271.5,252.90878565953986L270.5,252.9780026255455L269.5,253.04322349809382L268.5,247.1290844411897L267.5,247.0626302222616L266.5,246.81630707467932L265.5,246.8470303635666L264.5,251.8480761840005L263.5,242.04117052408654L262.5,241.8300546770102L261.5,236.13779811114233L260.5,230.16478736018345L259.5,230.64380201056235L258.5,224.31047629712018L257.5,224.38051496407414L256.5,230.59335298771202L255.50000000000003,239.50828654207987L254.5,239.42611159500652L253.5,241.58545706908197L252.5,241.76661375032634L251.5,241.83411095912598L250.5,239.66544616724934L249.5,238.24946980064195L248.5,245.04471044375532L247.5,244.99785377698007L246.5,244.13751440900415L245.5,232.77093345524332L244.49999999999997,233.5929990431265L243.5,241.58464601258356L242.49999999999997,241.50073596785904L241.5,246.4670348420512L240.49999999999997,246.41146388914555L239.5,246.38014009009038L238.49999999999997,248.171623993724L237.5,246.52901882791852L236.50000000000003,247.62875325780976L235.5,245.4636044184602L234.50000000000003,245.4715666395325L233.5,245.44955726209312L232.50000000000003,245.38173933219156L231.5,245.4899104777622L230.50000000000003,251.6516838904319L229.5,253.24530442722528L228.5,252.8903406316951L227.5,252.85527877401037L226.5,252.8659609954817L225.5,262.5837520859095L224.5,262.3976640459263L223.5,261.55360881593623L222.5,261.65777127505424L221.5,261.58923449105225L220.5,266.6666888215393L219.49999999999997,266.6245026820852L218.5,266.6147671590908L217.49999999999997,267.76308949203684L216.5,267.92821881414585L215.49999999999997,266.11898688446087L214.5,261.530722326609L213.49999999999997,257.8021831463639L212.5,257.69846243709566L211.50000000000003,257.66675616096717L210.5,257.56749974349776L209.50000000000003,257.56517721024363L208.5,257.4903498037414L207.50000000000003,257.51822317400854L206.5,254.5953655590171L205.50000000000003,254.62882745454974L204.5,254.79889732161092L203.5,256.357013998103L202.5,256.34968863459414L201.5,256.23064460020925L200.5,256.27314029314505L199.5,256.3561805001608L198.5,256.32723070009433L197.5,255.05400395137625L196.5,255.5390993018042L195.5,261.0196629647591L194.5,260.32317583792917L193.5,261.24847499774785L192.5,255.03646721073673L191.5,254.86337402497563L190.5,255.53887309737098L189.5,254.6912890932941L188.5,254.73866316340929L187.5,249.6878060296695L186.5,249.69926025520422L185.5,249.7596683645373L184.5,249.7508144754146L183.5,257.51878688493355L182.5,252.3902494904018L181.5,252.4196353910477L180.5,252.35152281349983L179.5,246.32284257346498L178.5,240.00465434680854L177.5,238.192718795065L176.5,238.20887985885258L175.5,229.42958645005936L174.5,226.8596503382112L173.5,220.82263634291996L172.5,226.89681276671735L171.5,227.02937930403624L170.5,227.0539561766708L169.5,229.3582714756365L168.5,229.28961036305554L167.5,233.59231443139413L166.5,230.89951503391825L165.5,227.23301930812866L164.5,227.2723123079891L163.5,221.20354774675872L162.5,227.0163106495388L161.5,222.91054389983546L160.5,222.9484659210712L159.5,222.97111376384024L158.5,222.78689933345913L157.5,232.47703900383695L156.5,232.50659546258353L155.5,236.6026335956963L154.5,242.45457012402778L153.5,245.81144302052883L152.5,245.85923948220287L151.5,245.87164442078978L150.5,245.81024836880349L149.5,245.89997117121115L148.5,243.56485650806405L147.5,243.43305491074628L146.5,243.283304077573L145.5,247.32299018752332L144.5,247.25926584264337L143.5,248.64919823725347L142.5,239.82944233816988L141.5,245.41559584987255L140.5,245.4247284825956L139.5,245.40373712220443L138.5,246.86095847110627L137.5,241.66941076154836L136.5,241.6292950548555L135.5,241.470534197894L134.5,241.44633358976284L133.5,241.46827114901512L132.5,241.077456971527L131.5,241.07075549451082L130.5,241.03373538977792L129.5,240.9968787098102L128.5,241.13208963813221L127.49999999999999,241.0325334064625L126.49999999999999,250.5363894053543L125.49999999999999,255.94219451247687L124.50000000000001,255.8288888926374L123.50000000000001,248.02847472579322L122.50000000000001,255.93252409637327L121.50000000000001,255.83426296316492L120.5,255.87185603752428L119.5,256.234684665998L118.5,256.29330807514174L117.5,259.5092220499955L116.5,259.5723686975643L115.5,255.79153149458725L114.5,248.49341805852185L113.5,248.3298415783335L112.5,244.44681682716893L111.5,244.24260772348336L110.5,240.9376735221418L109.5,236.38450091106176L108.5,230.98756162229333L107.5,227.70906172734527L106.5,224.5588193874616L105.5,224.36141497191318L104.5,224.43049049508826L103.49999999999999,232.1645631862227L102.49999999999999,231.6175060248784L101.49999999999999,228.63864935537063L100.49999999999999,228.42559238088666L99.5,228.7327370619997L98.5,223.81228284368308L97.5,223.535508498271L96.5,223.44144461766422L95.5,223.64000868774488L94.5,226.47900927632554L93.5,223.50218568245197L92.5,230.05214329765644L91.5,229.91089951235693L90.5,234.99756400543126L89.5,238.12088324382023L88.5,240.1474038486732L87.5,245.3873917240859L86.5,249.43834498893958L85.5,243.32185680741054L84.5,243.13845659905255L83.5,241.09905374882322L82.5,240.84332291717513L81.5,233.8211464728128L80.5,233.694875518255L79.5,229.36167992850895L78.5,229.61899603564936L77.5,229.60258733025216L76.5,227.0038437733473L75.5,231.8911832321489L74.5,232.20679983423227L73.5,235.83059142966366L72.5,231.50355442016524L71.5,231.22661108666523L70.5,231.132269362604L69.5,224.13641102258916L68.5,220.59662122067982L67.5,220.39697081157473L66.5,220.16751869216796L65.5,220.10987421291833L64.5,222.9816985777839L63.5,224.5705995256676L62.5,219.137444918897L61.5,226.0163461754917L60.5,225.59064842482283L59.5,229.57335002968102L58.5,235.01175137950565L57.49999999999999,235.49977990584787L56.49999999999999,231.44081532633328L55.50000000000001,231.0564576589921L54.50000000000001,231.97068673174363L53.5,229.1894458626949L52.5,234.89107871245366L51.5,230.90817390731664L50.5,229.23231091802586L49.5,237.64935508272475L48.5,237.62952163415278L47.5,234.92718666249678L46.5,229.50338941901686L45.5,234.29892424724824L44.5,234.04658436167657L43.5,233.7792924355598L42.5,233.43363215629947L41.5,233.3439020058287L40.5,232.85902942787072L39.5,232.41415150401662L38.5,231.77419702902884L37.5,233.7388643201035L36.5,237.97428569854696L35.5,237.5906836526522L34.5,237.35940227963025L33.5,240.53569091393453L32.5,238.7326906583983L31.5,241.21814528468173L30.5,242.17342040175794L29.5,241.02613638929952L28.499999999999996,240.91928463792607L27.500000000000004,239.83532329116704L26.5,243.3912070369391L25.5,242.9484259836917L24.5,241.32484680025215L23.5,239.96360158435616L22.5,243.03218417540475L21.5,241.2728429685756L20.5,239.62487742501318L19.5,236.40022594327817L18.5,231.44007817873864L17.5,225.21967620991236L16.5,220.00020947558502L15.5,213.06430724551157L14.499999999999998,208.10805636114796L13.5,200.28082344139892L12.5,192.71499848818866L11.5,185.9064413145272L10.5,178.552478322916L9.5,171.34153292503996L9,166.92407596492757L8.5,162.7177504918235L8,159.19604742046332L7.5,154.07098714529312L7.000000000000001,148.60973559979874L6.5,142.28095055327088L6,135.19466210315124L5.5,128.0349220596523L5,120.05366098379591L4.5,116.81032302952576L4,115.8190440790695L3.5000000000000004,115.55363554393506L3,111.2020781361893L2.5,111.2777757978632L2,102.5629489826294L1.5,103.4924669569688L1,106.90893684877267L0.5,99.645821847825L0,106.19717371430465Z" style="fill: #f58518; opacity: 0.3;"></path></g></g><path class="foreground" d="" style="display: none; fill: none;"></path></g></g><g class="mark-group role-legend"><g transform="translate(421,0)"><path class="background" d="M0,0h36v45h-36Z" style="pointer-events: none; fill: none;"></path><g><g class="mark-group role-legend-entry"><g transform="translate(0,16)"><path class="background" d="M0,0h0v0h0Z" style="pointer-events: none; fill: none;"></path><g><g class="mark-group role-scope"><g transform="translate(0,0)"><path class="background" d="M0,0h35.462890625v12.5h-35.462890625Z" style="pointer-events: none; fill: none; opacity: 1;"></path><g><g class="mark-symbol role-legend-symbol" style="pointer-events: none;"><path transform="translate(6,6)" d="M5,0A5,5,0,1,1,-5,0A5,5,0,1,1,5,0" style="fill: #4c78a8; stroke: #4c78a8; stroke-width: 1.5; opacity: 0.3;"></path></g><g class="mark-text role-legend-label" style="pointer-events: none;"><text text-anchor="start" transform="translate(16,9)" style="font-family: sans-serif; font-size: 10px; fill: #000; opacity: 1;">0</text></g></g><path class="foreground" d="" style="pointer-events: none; display: none; fill: none;"></path></g><g transform="translate(0,16)"><path class="background" d="M0,0h35.462890625v12.5h-35.462890625Z" style="pointer-events: none; fill: none; opacity: 1;"></path><g><g class="mark-symbol role-legend-symbol" style="pointer-events: none;"><path transform="translate(6,6)" d="M5,0A5,5,0,1,1,-5,0A5,5,0,1,1,5,0" style="fill: #f58518; stroke: #f58518; stroke-width: 1.5; opacity: 0.3;"></path></g><g class="mark-text role-legend-label" style="pointer-events: none;"><text text-anchor="start" transform="translate(16,9)" style="font-family: sans-serif; font-size: 10px; fill: #000; opacity: 1;">0.05</text></g></g><path class="foreground" d="" style="pointer-events: none; display: none; fill: none;"></path></g></g></g><path class="foreground" d="" style="pointer-events: none; display: none; fill: none;"></path></g></g><g class="mark-text role-legend-title" style="pointer-events: none;"><text text-anchor="start" transform="translate(0,9)" style="font-family: sans-serif; font-size: 11px; font-weight: bold; fill: #000; opacity: 1;">Alpha</text></g></g><path class="foreground" d="" style="pointer-events: none; display: none; fill: none;"></path></g></g></g><path class="foreground" d="" style="display: none; fill: none;"></path></g></g></g></svg>