<svg class="marks" width="505" height="347" viewBox="0 0 505 347" version="1.1" xmlns="http://www.w3.org/2000/svg" xmlns:xlink="http://www.w3.org/1999/xlink"><rect width="505" height="347" style="fill: white;"></rect><g transform="translate(44,10)"><g class="mark-group role-frame root"><g transform="translate(0,0)"><path class="background" d="M0.5,0.5h400v300h-400Z" style="fill: none; stroke: #ddd;"></path><g><g class="mark-group role-axis"><g transform="translate(0.5,300.5)"><path class="background" d="M0,0h0v0h0Z" style="pointer-events: none; fill: none;"></path><g><g class="mark-rule role-axis-grid" style="pointer-events: none;"><line transform="translate(0,-300)" x2="0" y2="300" style="fill: none; stroke: #ddd; stroke-width: 1; opacity: 1;"></line><line transform="translate(40,-300)" x2="0" y2="300" style="fill: none; stroke: #ddd; stroke-width: 1; opacity: 1;"></line><line transform="translate(80,-300)" x2="0" y2="300" style="fill: none; stroke: #ddd; stroke-width: 1; opacity: 1;"></line><line transform="translate(120,-300)" x2="0" y2="300" style="fill: none; stroke: #ddd; stroke-width: 1; opacity: 1;"></line><line transform="translate(160,-300)" x2="0" y2="300" style="fill: none; stroke: #ddd; stroke-width: 1; opacity: 1;"></line><line transform="translate(200,-300)" x2="0" y2="300" style="fill: none; stroke: #ddd; stroke-width: 1; opacity: 1;"></line><line transform="translate(240,-300)" x2="0" y2="300" style="fill: none; stroke: #ddd; stroke-width: 1; opacity: 1;"></line><line transform="translate(280,-300)" x2="0" y2="300" style="fill: none; stroke: #ddd; stroke-width: 1; opacity: 1;"></line><line transform="translate(320,-300)" x2="0" y2="300" style="fill: none; stroke: #ddd; stroke-width: 1; opacity: 1;"></line><line transform="translate(360,-300)" x2="0" y2="300" style="fill: none; stroke: #ddd; stroke-width: 1; opacity: 1;"></line><line transform="translate(400,-300)" x2="0" y2="300" style="fill: none; stroke: #ddd; stroke-width: 1; opacity: 1;"></line></g></g><path class="foreground" d="" style="pointer-events: none; display: none; fill: none;"></path></g></g><g class="mark-group role-axis"><g transform="translate(0.5,0.5)"><path class="background" d="M0,0h0v0h0Z" style="pointer-events: none; fill: none;"></path><g><g class="mark-rule role-axis-grid" style="pointer-events: none;"><line transform="translate(0,300)" x2="400" y2="0" style="fill: none; stroke: #ddd; stroke-width: 1; opacity: 1;"></line><line transform="translate(0,275)" x2="400" y2="0" style="fill: none; stroke: #ddd; stroke-width: 1; opacity: 1;"></line><line transform="translate(0,250)" x2="400" y2="0" style="fill: none; stroke: #ddd; stroke-width: 1; opacity: 1;"></line><line transform="translate(0,225)" x2="400" y2="0" style="fill: none; stroke: #ddd; stroke-width: 1; opacity: 1;"></line><line transform="translate(0,200)" x2="400" y2="0" style="fill: none; stroke: #ddd; stroke-width: 1; opacity: 1;"></line><line transform="translate(0,175)" x2="400" y2="0" style="fill: none; stroke: #ddd; stroke-width: 1; opacity: 1;"></line><line transform="translate(0,150)" x2="400" y2="0" style="fill: none; stroke: #ddd; stroke-width: 1; opacity: 1;"></line><line transform="translate(0,125)" x2="400" y2="0" style="fill: none; stroke: #ddd; stroke-width: 1; opacity: 1;"></line><line transform="translate(0,100)" x2="400" y2="0" style="fill: none; stroke: #ddd; stroke-width: 1; opacity: 1;"></line><line transform="translate(0,75)" x2="400" y2="0" style="fill: none; stroke: #ddd; stroke-width: 1; opacity: 1;"></line><line transform="translate(0,50)" x2="400" y2="0" style="fill: none; stroke: #ddd; stroke-width: 1; opacity: 1;"></line><line transform="translate(0,25)" x2="400" y2="0" style="fill: none; stroke: #ddd; stroke-width: 1; opacity: 1;"></line><line transform="translate(0,0)" x2="400" y2="0" style="fill: none; stroke: #ddd; stroke-width: 1; opacity: 1;"></line></g></g><path class="foreground" d="" style="pointer-events: none; display: none; fill: none;"></path></g></g><g class="mark-group role-axis"><g transform="translate(0.5,300.5)"><path class="background" d="M0,0h0v0h0Z" style="pointer-events: none; fill: none;"></path><g><g class="mark-rule role-axis-tick" style="pointer-events: none;"><line transform="translate(0,0)" x2="0" y2="5" style="fill: none; stroke: #888; stroke-width: 1; opacity: 1;"></line><line transform="translate(40,0)" x2="0" y2="5" style="fill: none; stroke: #888; stroke-width: 1; opacity: 1;"></line><line transform="translate(80,0)" x2="0" y2="5" style="fill: none; stroke: #888; stroke-width: 1; opacity: 1;"></line><line transform="translate(120,0)" x2="0" y2="5" style="fill: none; stroke: #888; stroke-width: 1; opacity: 1;"></line><line transform="translate(160,0)" x2="0" y2="5" style="fill: none; stroke: #888; stroke-width: 1; opacity: 1;"></line><line transform="translate(200,0)" x2="0" y2="5" style="fill: none; stroke: #888; stroke-width: 1; opacity: 1;"></line><line transform="translate(240,0)" x2="0" y2="5" style="fill: none; stroke: #888; stroke-width: 1; opacity: 1;"></line><line transform="translate(280,0)" x2="0" y2="5" style="fill: none; stroke: #888; stroke-width: 1; opacity: 1;"></line><line transform="translate(320,0)" x2="0" y2="5" style="fill: none; stroke: #888; stroke-width: 1; opacity: 1;"></line><line transform="translate(360,0)" x2="0" y2="5" style="fill: none; stroke: #888; stroke-width: 1; opacity: 1;"></line><line transform="translate(400,0)" x2="0" y2="5" style="fill: none; stroke: #888; stroke-width: 1; opacity: 1;"></line></g><g class="mark-text role-axis-label" style="pointer-events: none;"><text text-anchor="start" transform="translate(0,15)" style="font-family: sans-serif; font-size: 10px; fill: #000; opacity: 1;">0</text><text text-anchor="middle" transform="translate(40,15)" style="font-family: sans-serif; font-size: 10px; fill: #000; opacity: 1;">200</text><text text-anchor="middle" transform="translate(80,15)" style="font-family: sans-serif; font-size: 10px; fill: #000; opacity: 1;">400</text><text text-anchor="middle" transform="translate(120,15)" style="font-family: sans-serif; font-size: 10px; fill: #000; opacity: 1;">600</text><text text-anchor="middle" transform="translate(160,15)" style="font-family: sans-serif; font-size: 10px; fill: #000; opacity: 1;">800</text><text text-anchor="middle" transform="translate(200,15)" style="font-family: sans-serif; font-size: 10px; fill: #000; opacity: 1;">1,000</text><text text-anchor="middle" transform="translate(240,15)" style="font-family: sans-serif; font-size: 10px; fill: #000; opacity: 1;">1,200</text><text text-anchor="middle" transform="translate(280,15)" style="font-family: sans-serif; font-size: 10px; fill: #000; opacity: 1;">1,400</text><text text-anchor="middle" transform="translate(320,15)" style="font-family: sans-serif; font-size: 10px; fill: #000; opacity: 1;">1,600</text><text text-anchor="middle" transform="translate(360,15)" style="font-family: sans-serif; font-size: 10px; fill: #000; opacity: 1;">1,800</text><text text-anchor="end" transform="translate(400,15)" style="font-family: sans-serif; font-size: 10px; fill: #000; opacity: 1;">2,000</text></g><g class="mark-rule role-axis-domain" style="pointer-events: none;"><line transform="translate(0,0)" x2="400" y2="0" style="fill: none; stroke: #888; stroke-width: 1; opacity: 1;"></line></g><g class="mark-text role-axis-title" style="pointer-events: none;"><text text-anchor="middle" transform="translate(200,30)" style="font-family: sans-serif; font-size: 11px; font-weight: bold; fill: #000; opacity: 1;">Episode</text></g></g><path class="foreground" d="" style="pointer-events: none; display: none; fill: none;"></path></g></g><g class="mark-group role-axis"><g transform="translate(0.5,0.5)"><path class="background" d="M0,0h0v0h0Z" style="pointer-events: none; fill: none;"></path><g><g class="mark-rule role-axis-tick" style="pointer-events: none;"><line transform="translate(0,300)" x2="-5" y2="0" style="fill: none; stroke: #888; stroke-width: 1; opacity: 1;"></line><line transform="translate(0,275)" x2="-5" y2="0" style="fill: none; stroke: #888; stroke-width: 1; opacity: 1;"></line><line transform="translate(0,250)" x2="-5" y2="0" style="fill: none; stroke: #888; stroke-width: 1; opacity: 1;"></line><line transform="translate(0,225)" x2="-5" y2="0" style="fill: none; stroke: #888; stroke-width: 1; opacity: 1;"></line><line transform="translate(0,200)" x2="-5" y2="0" style="fill: none; stroke: #888; stroke-width: 1; opacity: 1;"></line><line transform="translate(0,175)" x2="-5" y2="0" style="fill: none; stroke: #888; stroke-width: 1; opacity: 1;"></line><line transform="translate(0,150)" x2="-5" y2="0" style="fill: none; stroke: #888; stroke-width: 1; opacity: 1;"></line><line transform="translate(0,125)" x2="-5" y2="0" style="fill: none; stroke: #888; stroke-width: 1; opacity: 1;"></line><line transform="translate(0,100)" x2="-5" y2="0" style="fill: none; stroke: #888; stroke-width: 1; opacity: 1;"></line><line transform="translate(0,75)" x2="-5" y2="0" style="fill: none; stroke: #888; stroke-width: 1; opacity: 1;"></line><line transform="translate(0,50)" x2="-5" y2="0" style="fill: none; stroke: #888; stroke-width: 1; opacity: 1;"></line><line transform="translate(0,25)" x2="-5" y2="0" style="fill: none; stroke: #888; stroke-width: 1; opacity: 1;"></line><line transform="translate(0,0)" x2="-5" y2="0" style="fill: none; stroke: #888; stroke-width: 1; opacity: 1;"></line></g><g class="mark-text role-axis-label" style="pointer-events: none;"><text text-anchor="end" transform="translate(-7,303)" style="font-family: sans-serif; font-size: 10px; fill: #000; opacity: 1;">0</text><text text-anchor="end" transform="translate(-7,278)" style="font-family: sans-serif; font-size: 10px; fill: #000; opacity: 1;">20</text><text text-anchor="end" transform="translate(-7,253)" style="font-family: sans-serif; font-size: 10px; fill: #000; opacity: 1;">40</text><text text-anchor="end" transform="translate(-7,228)" style="font-family: sans-serif; font-size: 10px; fill: #000; opacity: 1;">60</text><text text-anchor="end" transform="translate(-7,203.00000000000003)" style="font-family: sans-serif; font-size: 10px; fill: #000; opacity: 1;">80</text><text text-anchor="end" transform="translate(-7,177.99999999999997)" style="font-family: sans-serif; font-size: 10px; fill: #000; opacity: 1;">100</text><text text-anchor="end" transform="translate(-7,153)" style="font-family: sans-serif; font-size: 10px; fill: #000; opacity: 1;">120</text><text text-anchor="end" transform="translate(-7,127.99999999999999)" style="font-family: sans-serif; font-size: 10px; fill: #000; opacity: 1;">140</text><text text-anchor="end" transform="translate(-7,103.00000000000001)" style="font-family: sans-serif; font-size: 10px; fill: #000; opacity: 1;">160</text><text text-anchor="end" transform="translate(-7,78)" style="font-family: sans-serif; font-size: 10px; fill: #000; opacity: 1;">180</text><text text-anchor="end" transform="translate(-7,52.999999999999986)" style="font-family: sans-serif; font-size: 10px; fill: #000; opacity: 1;">200</text><text text-anchor="end" transform="translate(-7,28.00000000000001)" style="font-family: sans-serif; font-size: 10px; fill: #000; opacity: 1;">220</text><text text-anchor="end" transform="translate(-7,3)" style="font-family: sans-serif; font-size: 10px; fill: #000; opacity: 1;">240</text></g><g class="mark-rule role-axis-domain" style="pointer-events: none;"><line transform="translate(0,300)" x2="0" y2="-300" style="fill: none; stroke: #888; stroke-width: 1; opacity: 1;"></line></g><g class="mark-text role-axis-title" style="pointer-events: none;"><text text-anchor="middle" transform="translate(-27.6845703125,150) rotate(-90) translate(0,-2)" style="font-family: sans-serif; font-size: 11px; font-weight: bold; fill: #000; opacity: 1;">Episode length</text></g></g><path class="foreground" d="" style="pointer-events: none; display: none; fill: none;"></path></g></g><g class="mark-group role-scope layer_0_pathgroup"><g transform="translate(0,0)"><path class="background" d="M0,0h400v300h-400Z" style="fill: none;"></path><g><g class="mark-line role-mark layer_0_marks"><path d="M0,169.25L2,180.25L4,188.16666666666666L6,191.62499999999997L8,194.39999999999998L10,204.29166666666669L12,212.00000000000003L14.000000000000002,218.25L16,223.38888888888889L18,227.85000000000002L20,231.47727272727272L22,234.3125L24,233.75L26,236.46428571428572L28.000000000000004,235.9L30,242.71666666666667L32,248.18333333333334L34,246.73333333333332L36,248.43333333333334L38,252.31666666666666L40,253.70000000000002L42,251.73333333333335L44,249.66666666666666L46,250.35L48,247.8L50,248.20000000000002L52,248.91666666666669L54,252.29999999999998L56.00000000000001,252.51666666666668L57.99999999999999,255.75L60,249.96666666666667L62,250.25000000000003L64,250.45L66,253.68333333333334L68,248.48333333333332L70,248.66666666666666L72,248.8166666666667L74,251.91666666666669L76,252.10000000000002L78,255.18333333333334L80,252.25L82,249.26666666666668L84,243.11666666666665L86,240.28333333333333L88,240.23333333333335L90,243.38333333333333L92,243.31666666666666L94,249.51666666666668L96,249.35L98,252.33333333333334L100,249.23333333333335L102,249.21666666666667L104,249.28333333333336L106,249.28333333333336L108,246.31666666666666L110.00000000000001,249.51666666666668L112.00000000000001,249.53333333333333L113.99999999999999,252.16666666666666L115.99999999999999,255.21666666666667L118,252.21666666666667L120,255.26666666666668L122,255.28333333333336L124,255.23333333333332L126,252.48333333333332L128,255.53333333333333L130,258.6166666666667L132,261.68333333333334L134,258.56666666666666L136,258.56666666666666L138,261.6333333333333L140,258.6166666666667L142,255.58333333333331L144,259.1166666666667L146,259.1L148,259.2166666666667L150,259.2166666666667L152,259.2833333333333L154,259.3333333333333L156,262.3L158,259.3833333333333L160,259.41666666666663L162,259.48333333333335L164,259.48333333333335L166,256.41666666666663L168,253.45L170,256.43333333333334L172,262.55L174,259.46666666666664L176,259.46666666666664L178,262.48333333333335L180,262.6166666666667L182,261.5333333333333L184,261.3666666666667L186,261.4166666666667L188,264.51666666666665L190,264.6L192,264.6666666666667L194,264.71666666666664L196,267.9L198,271.03333333333336L200,271.1166666666667L202,271.09999999999997L204,274.2166666666667L206,274.23333333333335L208,268L210,267.8666666666667L212,265.6166666666667L214,265.81666666666666L216,265.7833333333333L218.00000000000003,262.7L220.00000000000003,262.6666666666667L222.00000000000003,259.56666666666666L224.00000000000003,261.85L225.99999999999997,258.73333333333335L227.99999999999997,258.6333333333333L229.99999999999997,254.36666666666667L231.99999999999997,254.36666666666667L234,254.1L236,254.01666666666668L238,260.28333333333336L240,260.3L242,263.3L244,263.31666666666666L246,263.4166666666667L248,265.09999999999997L250,261.93333333333334L252,261.8333333333333L254,262.46666666666664L256,265.48333333333335L258,265.41666666666663L260,266.68333333333334L262,266.76666666666665L264,267L266,267.06666666666666L268,266.9166666666667L270,267.01666666666665L272,267.3833333333333L274,267.33333333333337L276,264.3L278,265.59999999999997L280,268.75L282,268.8333333333333L284,268.93333333333334L286,268.95000000000005L288,269.03333333333336L290,269.03333333333336L292,268.3666666666667L294,268.31666666666666L296,268.3L298,267.85L300,267.76666666666665L302,266.8833333333333L304,266.8666666666667L306,269.9166666666667L308,270L310,270L312,273.0833333333333L314,267.0333333333333L316,266.95L318,266.26666666666665L320,269.3833333333333L322,270.0166666666667L324,270.1333333333333L326,267.1166666666667L328,267.75L330,267.4L332,268.26666666666665L334,268.31666666666666L336,265.23333333333335L338,265.26666666666665L340,265.26666666666665L342,259.15L344,265.15000000000003L346,265.2L348,262.8L350,259.59999999999997L352,259.46666666666664L354,256.3666666666667L356,256.01666666666665L358,256.03333333333336L360,253.36666666666665L362,253.21666666666667L364,246.28333333333333L366,249.35L368,249.23333333333335L370,246.25L372,252.38333333333333L374,252.5L376,252.60000000000002L378,255.56666666666666L380,258.71666666666664L382,258.78333333333336L384,261.81666666666666L386,262.1666666666667L388,259.1166666666667L390,262.1333333333333L392,262.3L394,269.2L396,269.15L398,268.8833333333333L400,271.85" style="fill: none; stroke: #f58518; stroke-width: 2;"></path></g></g><path class="foreground" d="" style="display: none; fill: none;"></path></g><g transform="translate(0,0)"><path class="background" d="M0,0h400v300h-400Z" style="fill: none;"></path><g><g class="mark-line role-mark layer_0_marks"><path d="M0,48.74999999999999L2,48.74999999999999L4,48.74999999999999L6,48.74999999999999L8,48.74999999999999L10,48.74999999999999L12,51.285714285714256L14.000000000000002,53.96875000000001L16,56.41666666666666L18,57.87500000000002L20,59.4090909090909L22,61.437500000000014L24,63.153846153846146L26,62.124999999999986L28.000000000000004,63.43333333333333L30,65.91666666666664L32,68.55000000000001L34,70.96666666666668L36,73.5L38,75.96666666666667L40,78.50000000000001L42,79.63333333333331L44,80.7L46,81.48333333333333L48,82.46666666666665L50,83.41666666666669L52,83.81666666666668L54,83.76666666666668L56.00000000000001,86.33333333333334L57.99999999999999,86.76666666666668L60,86.64999999999998L62,88.13333333333334L64,88.50000000000001L66,90.56666666666666L68,92.94999999999999L70,95.21666666666668L72,98.28333333333332L74,100.51666666666667L76,102.69999999999997L78,104.25000000000001L80,106.06666666666665L82,105.95000000000002L84,108.75000000000001L86,107.98333333333335L88,108.08333333333334L90,108.50000000000001L92,109.88333333333334L94,112.51666666666664L96,113.39999999999996L98,113.85000000000002L100,114.49999999999999L102,114.54999999999997L104,114.96666666666667L106,114.46666666666665L108,116.13333333333333L110.00000000000001,117.13333333333331L112.00000000000001,120.19999999999999L113.99999999999999,120.48333333333335L115.99999999999999,124.21666666666665L118,127.05000000000003L120,129.36666666666667L122,129.16666666666669L124,128.53333333333333L126,125.91666666666667L128,125.83333333333331L130,126.11666666666665L132,125.75L134,126.16666666666667L136,127.11666666666666L138,127.18333333333334L140,127.3L142,127.33333333333336L144,127.78333333333333L146,127.96666666666667L148,125.33333333333334L150,125.94999999999999L152,126.36666666666669L154,127.3L156,130.16666666666666L158,130.26666666666668L160,130.05000000000004L162,130.68333333333334L164,130.81666666666666L166,131.36666666666667L168,131.14999999999998L170,128.41666666666669L172,128.51666666666668L174,128.3833333333333L176,128.35000000000002L178,131.31666666666666L180,131.3833333333333L182,131.36666666666667L184,131.41666666666666L186,131.58333333333331L188,132.01666666666665L190,131.75L192,131.1L194,128.2L196,128.0166666666667L198,125.21666666666668L200,128.08333333333334L202,127.99999999999999L204,128.08333333333334L206,128.18333333333337L208,124.53333333333333L210,124.56666666666668L212,124.48333333333333L214,124.41666666666666L216,124.03333333333332L218.00000000000003,124.13333333333334L220.00000000000003,124.43333333333331L222.00000000000003,125.2L224.00000000000003,128.13333333333333L225.99999999999997,128.1166666666667L227.99999999999997,131.21666666666664L229.99999999999997,131.13333333333333L231.99999999999997,131.31666666666666L234,128.4666666666667L236,128.4L238,132.06666666666666L240,132.04999999999998L242,132.16666666666669L244,132.38333333333333L246,132.61666666666667L248,132.41666666666669L250,132.78333333333333L252,132.66666666666666L254,132.36666666666665L256,129.68333333333334L258,129.7833333333333L260,130.05000000000004L262,126.73333333333335L264,126.66666666666664L266,123.86666666666666L268,123.86666666666666L270,124.05000000000003L272,123.73333333333335L274,123.7L276,123.78333333333335L278,124.06666666666666L280,120.96666666666668L282,118.23333333333336L284,118.55L286,118.58333333333336L288,118.58333333333336L290,117.46666666666667L292,117.80000000000001L294,120.78333333333335L296,123.71666666666667L298,123.43333333333335L300,123.38333333333335L302,123.93333333333332L304,121.01666666666667L306,121.00000000000003L308,120.08333333333331L310,123.08333333333333L312,126.05000000000001L314,123.06666666666668L316,126.00000000000001L318,125.98333333333336L320,127.08333333333331L322,128.86666666666667L324,128.53333333333333L326,128.58333333333334L328,128.88333333333335L330,125.81666666666668L332,122.83333333333331L334,125.73333333333333L336,125.76666666666668L338,126.63333333333333L340,126.68333333333332L342,126.71666666666668L344,129.71666666666667L346,129.66666666666666L348,126.71666666666668L350,124.85000000000001L352,123.06666666666665L354,123.51666666666667L356,123.55000000000001L358,123.38333333333335L360,123.46666666666667L362,123.44999999999999L364,123.44999999999999L366,123.43333333333335L368,120.43333333333331L370,117.55000000000001L372,117.38333333333331L374,117.31666666666665L376,117.28333333333333L378,120.30000000000001L380,122.2L382,124.39999999999999L384,124.39999999999999L386,124.35000000000002L388,124.45000000000002L390,124.43333333333334L392,127.39999999999999L394,127.45000000000002L396,127.58333333333333L398,130.55L400,132.89999999999998" style="fill: none; stroke: #4c78a8; stroke-width: 2;"></path></g></g><path class="foreground" d="" style="display: none; fill: none;"></path></g></g><g class="mark-group role-scope layer_1_layer_0_pathgroup"><g transform="translate(0,0)"><path class="background" d="M0,0h400v300h-400Z" style="fill: none;"></path><g><g class="mark-area role-mark layer_1_layer_0_marks"><path d="M0,248.4530618095033L2,238.87786506858322L4,239.3146002623762L6,240.32760115614974L8,244.13950894409794L10,246.41999451081975L12,248.89939957201898L14.000000000000002,250.8838888752934L16,252.76866588423547L18,254.51596027710235L20,255.89402283760504L22,257.09103731372534L24,261.1302192344299L26,261.9768563953265L28.000000000000004,265.7928294077359L30,271.31545986187376L32,275.9447423993972L34,279.15682233265125L36,274.4476456333816L38,271.904290310182L40,273.14772194599897L42,271.1788948091846L44,274.8367823243712L46,275.39595775769016L48,270.9959197800916L50,271.4194841554339L52,271.88955225429413L54,269.7372486043208L56.00000000000001,269.8621551931459L57.99999999999999,268.31704243470017L60,269.87989858806895L62,270.10739087146703L64,263.9421015989191L66,270.7617269281003L68,273.5706392203087L70,273.45766805830067L72,271.10217204572416L74,268.8406183000438L76,268.87024067275786L78,274.7779577378877L80,277.0690674907642L82,271.4408038789938L84,271.74203663031176L86,271.3277459635564L88,271.1617003915679L90,270.0364939755953L92,269.96010707264026L94,274.15286688324045L96,273.7703211144599L98,265.40432007666857L100,268.63545592626406L102,273.9601141719042L104,274.0422122120979L106,274.00361571665394L108,276.5782232286738L110.00000000000001,278.4883602274128L112.00000000000001,278.4483549003705L113.99999999999999,274.86303201444866L115.99999999999999,272.23938433061994L118,269.27015686010736L120,268.66279483864236L122,268.72309089563083L124,268.77088398985086L126,270.23601309974856L128,269.7680473569214L130,272.17385008440584L132,273.17085675853014L134,275.6257347993507L136,275.55659423828655L138,280.7359073309216L140,279.4108465414938L142,276.7694300584133L144,279.4319421180768L146,279.30110695536814L148,276.2883700250183L150,276.3270720453309L152,276.3705889806149L154,276.29816624013074L156,277.7199996397175L158,279.40099914242415L160,279.4574237492832L162,279.71492647651195L164,279.54265507881837L166,277.0635826322265L168,271.2758940869736L170,274.30045475167543L172,278.17378884194795L174,272.9220455993546L176,273.05020449743813L178,273.94119696006976L180,274.1307884308309L182,273.4320085630479L184,273.1324067151672L186,273.21458903555106L188,278.2602762928004L190,278.32135905967203L192,278.50966028156887L194,278.65360300305156L196,278.1832117766992L198,281.4085174013123L200,281.4241949294894L202,281.31494683730114L204,281.03285450641016L206,281.03850905969534L208,282.52404615341976L210,282.274371009984L212,282.4748990769759L214,282.78317779889414L216,282.82745499839234L218.00000000000003,284.70328258338844L220.00000000000003,284.6259882763056L222.00000000000003,284.9352276997424L224.00000000000003,283.0775535042967L225.99999999999997,278.155936145521L227.99999999999997,278.19649670511734L229.99999999999997,273.01226489609695L231.99999999999997,273.1054225544577L234,272.8031265954237L236,272.7362160142813L238,274.16322486348906L240,274.0524745248103L242,275.3353357059766L244,275.2258134781632L246,275.5152202992295L248,281.12118822753865L250,276.04245666226876L252,277.8043357022101L254,278.2478967271601L256,276.13948048989147L258,276.12735058507263L260,273.5903044495318L262,273.71723618769636L264,273.9726648819197L266,274.03594448673766L268,274.11113792358793L270,274.275138728104L272,274.83260622850014L274,274.73523811821434L276,276.6498762926778L278,278.5834830971251L280,282.5952508905481L282,282.51218968578877L284,282.67820611476634L286,282.69818169795553L288,282.7599042816802L290,277.3277424275499L292,277.1705878258876L294,277.16598396613483L296,277.0873409579412L298,275.80503858500316L300,275.71995913652535L302,273.7649210861706L304,273.7057394595726L306,277.9523941798833L308,277.97609274993437L310,277.81980214299284L312,279.01933460616937L314,278.917993147097L316,278.8131666186656L318,279.2355664315315L320,276.4432455927818L322,277.9149787226273L324,278.0899430943364L326,275.6565241986555L328,275.8729698318342L330,275.0782973373008L332,276.95841722554593L334,276.82552642837646L336,278.76049222859945L338,278.7101440193955L340,278.8411013796769L342,272.24545616701545L344,272.0998201415576L346,272.15361616554856L348,273.29100143509237L350,272.0076309404961L352,271.96216585637495L354,269.6413554054323L356,273.2559346647897L358,273.31456512456344L360,273.9686824795806L362,273.7274700530666L364,270.38659786557275L366,272.25100980306325L368,272.17062708051384L370,270.3098934374661L372,275.02076852865133L374,275.0497905878426L376,275.1542093878529L378,278.07618625776905L380,277.7327052189578L382,277.92177269267273L384,276.5222731183269L386,280.32683369967236L388,283.7960412085342L390,280.2853342943538L392,280.57125854693345L394,283.09901575252326L396,283.21500286368814L398,282.691367427858L400,285.7877833802781L400,257.91221661972196L398,255.07529923880864L396,255.08499713631187L394,255.30098424747678L392,244.02874145306654L390,243.9813323723128L388,234.43729212479917L386,244.00649963366098L384,247.1110602150064L382,239.64489397399393L380,239.70062811437555L378,233.05714707556427L376,230.04579061214713L374,229.9502094121574L372,229.74589813801535L370,222.19010656253394L368,226.29603958615286L366,226.44899019693673L364,222.1800688010939L362,232.70586328026673L360,232.76465085375273L358,238.75210154210322L356,238.77739866854358L354,243.09197792790104L352,246.97116747695839L350,247.19236905950393L348,252.30899856490757L346,258.2463838344515L344,258.20017985844237L342,246.0545438329846L340,251.69223195365643L338,251.82318931393783L336,251.7061744380672L334,259.80780690495686L332,259.57491610778743L330,259.7217026626992L328,259.6270301681658L326,258.5768091346778L324,262.1767235723303L322,262.11835461070604L320,262.32342107388484L318,253.29776690180182L316,255.0868333813344L314,255.14867351956968L312,267.1473320604973L310,262.18019785700716L308,262.02390725006563L306,261.88093915345L304,260.0275938737607L302,260.00174558049605L300,259.81337419680796L298,259.8949614149969L296,259.51265904205883L294,259.4673493671985L292,259.56274550744575L290,260.7389242391168L288,255.30676238498648L286,255.20181830204444L284,255.18846055190033L282,255.15447698087786L280,254.90474910945193L278,252.6165169028749L276,251.9501237073222L274,259.9314285484523L272,259.93406043816657L270,259.75819460522933L268,259.7221954097454L266,260.0973888465957L264,260.0273351180803L262,259.816097145637L260,259.7763622171349L258,254.7059827482607L256,254.8271861767752L254,246.6854366061732L252,245.8623309644566L250,247.82421000439786L248,249.0788117724614L246,251.3181130341038L244,251.40751985517014L242,251.2646642940234L240,246.54752547518973L238,246.4034418031776L236,235.2971173190521L234,235.39687340457633L231.99999999999997,235.62791077887567L229.99999999999997,235.7210684372364L227.99999999999997,239.07016996154934L225.99999999999997,239.31073052114567L224.00000000000003,240.62244649570334L222.00000000000003,234.19810563359093L220.00000000000003,240.70734505702774L218.00000000000003,240.69671741661156L216,248.73921166827435L214,248.85015553443915L212,248.75843425635745L210,253.45896232334937L208,253.4759538465803L206,267.4281576069713L204,267.4004788269232L202,260.88505316269885L200,260.809138403844L198,260.6581492653544L196,257.61678822330083L194,250.7797303302818L192,250.8236730517645L190,250.87864094032795L188,250.77305704053293L186,249.61874429778229L184,249.60092661816614L182,249.63465810361882L180,251.10254490250244L178,251.02546970659694L176,245.88312883589518L174,246.01128773397875L172,246.92621115805204L170,238.56621191499127L168,235.6241059130264L166,235.76975070110686L164,239.4240115878483L162,239.25174019015475L160,239.37590958405013L158,239.3656675242425L156,246.88000036028245L154,242.36850042653595L152,242.19607768605178L150,242.10626128800243L148,242.144963308315L146,238.8988930446319L144,238.80139121525653L142,234.39723660825337L140,237.8224867918395L138,242.5307593357451L136,241.57673909504678L134,241.50759853398264L132,250.19580990813654L130,245.05948324892748L128,241.2986193097453L126,234.7306535669181L124,241.6957826768158L122,241.8435757710358L120,241.870538494691L118,235.163176473226L115.99999999999999,238.19394900271342L113.99999999999999,229.47030131888465L112.00000000000001,220.61831176629622L110.00000000000001,220.54497310592055L108,216.05511010465955L106,224.56305095001275L104,224.5244544545688L102,224.47321916142914L100,229.83121074040267L98,239.26234658999815L96,224.92967888554014L94,224.88046645009285L92,216.67322626069304L90,216.73017269107137L88,209.30496627509876L86,209.2389207031102L84,214.4912967030216L82,227.0925294543395L80,227.43093250923576L78,235.58870892877903L76,235.32975932724213L74,234.99271503328953L72,226.53116128760917L70,223.87566527503265L68,223.396027446358L66,236.60493973856634L64,236.95789840108088L62,230.39260912853297L60,230.05343474526435L57.99999999999999,243.1829575652998L56.00000000000001,235.17117814018746L54,234.86275139567917L52,225.94378107903918L50,224.98051584456613L48,224.60408021990838L46,225.30404224230983L44,224.49655100896214L42,232.28777185748208L40,234.25227805400104L38,232.72904302315135L36,222.41902103328502L34,214.3098443340154L32,220.42192426726942L30,214.1178734714596L28.000000000000004,206.00717059226412L26,210.95171503324494L24,206.3697807655701L22,211.53396268627466L20,207.06052261694043L18,201.18403972289767L16,194.0091118935423L14.000000000000002,185.61611112470658L12,175.10060042798108L10,162.1633388225136L8,144.66049105590207L6,142.92239884385023L4,137.01873307095713L2,121.62213493141678L0,90.04693819049669Z" style="fill: #f58518; opacity: 0.3;"></path></g></g><path class="foreground" d="" style="display: none; fill: none;"></path></g><g transform="translate(0,0)"><path class="background" d="M0,0h400v300h-400Z" style="fill: none;"></path><g><g class="mark-area role-mark layer_1_layer_0_marks"><path d="M0,48.74999999999999L2,48.74999999999999L4,48.74999999999999L6,48.74999999999999L8,48.74999999999999L10,48.74999999999999L12,56.95574380008871L14.000000000000002,65.63822975757705L16,73.55985449416501L18,78.27912029468561L20,83.24354276016818L22,89.80761246452857L24,95.36182529129503L26,92.03240919905967L28.000000000000004,96.26626480295522L30,104.30250028041304L32,112.82414595449585L34,120.64464356678702L36,128.84268244311983L38,136.82498345428596L40,145.02302233061874L42,148.69056603845183L44,152.14237188111827L46,154.67729179682647L48,157.8594253080346L50,160.9336898866594L52,162.22811707765928L54,162.06631367878433L56.00000000000001,170.37222148770041L57.99999999999999,171.77451761128373L60,171.396976347242L62,171.75171249326047L64,172.93755911257082L66,174.28648709966407L68,176.84729170572527L70,179.19007515610062L72,183.3041151065759L74,185.80845342769592L76,188.70875278455998L78,191.431165142223L80,194.17424768744678L82,193.8216235324136L84,198.71303253126933L86,194.09772753598037L88,194.3861754392313L90,195.58983229337906L92,198.35668148594553L94,203.05091049493063L96,204.9269086116208L98,205.84791286883754L100,207.0447714472418L102,207.08695958312484L104,207.96008787961534L106,207.0495424531148L108,210.29114265128402L110.00000000000001,212.29123573186715L112.00000000000001,218.7980124320747L113.99999999999999,219.37804797134288L115.99999999999999,228.665976541521L118,234.75022696767584L120,239.852456351233L122,239.41364319361426L124,237.96808050665524L126,232.1667647058371L128,231.86670727233846L130,232.55034124070986L132,231.71874539221457L134,232.64328773126155L136,234.7190984855309L138,234.8724660513358L140,235.12109023748553L142,235.21241301671466L144,236.28758312209607L146,236.69437191647359L148,230.22789017760223L150,231.7048527912024L152,232.661879269221L154,234.8599251580253L156,241.74212693160723L158,241.93759942099726L160,241.4288828977718L162,242.94670175281777L164,243.25835525827995L166,244.5748328424726L168,244.04583756228075L170,237.8574960626873L172,238.08928021078586L174,237.792996094698L176,237.72879199775835L178,244.43666195190937L180,244.59264967061873L182,244.55802381611218L184,244.6754656871205L186,245.07623570563538L188,246.14420558207865L190,245.5026098601698L192,244.02718893162975L194,237.57504920633815L196,237.13291456566458L198,231.20576791454656L200,237.30253188987527L202,237.1026529873994L204,237.29644368287984L206,237.52057919828704L208,229.43311354706347L210,229.51159931655164L212,229.2939164503704L214,229.14549971765706L216,228.15408321324705L218.00000000000003,228.40627245625888L220.00000000000003,229.03147969464425L222.00000000000003,230.67227782165745L224.00000000000003,237.10509955437487L225.99999999999997,237.05946511306848L227.99999999999997,244.16992949396763L229.99999999999997,243.9704763020089L231.99999999999997,244.41110544830323L234,237.6467803422909L236,237.48645908432246L238,246.3187697350809L240,246.26838244734904L242,246.55234467459448L244,247.07000794435052L246,247.59507043595428L248,247.14262335864152L250,247.98113423826962L252,247.70349651790264L254,247.01960915931363L256,241.0523302410106L258,241.28858981132285L260,241.9070764661564L262,234.64785068644744L264,233.49460464795192L266,226.72474040584058L268,226.7251117366862L270,227.1604552032539L272,226.4086982246039L274,226.32972143693183L276,226.52695641201072L278,227.19846610580936L280,219.9939426510584L282,213.95693717968535L284,214.7472546674569L286,214.81928108098577L288,214.83935767582435L290,211.98337594779503L292,212.71753730943973L294,219.47620710511757L296,226.38631962648185L298,225.72285978752228L300,225.60124802216535L302,226.9270696585207L304,220.3200633020957L306,220.258815729385L308,218.23740722852236L310,225.92053274742344L312,233.776773083059L314,225.89392877809965L316,232.20613473597257L318,232.1641016275756L320,234.6105262764313L322,238.66110211562537L324,237.90555710762317L326,238.01976846045787L328,238.71417865163787L330,231.3446941443625L332,224.42562169989958L334,231.69422103357027L336,231.7729623392456L338,234.0120698483229L340,234.14040486528148L342,234.23295419247987L344,240.8371218293214L346,240.71683050665783L348,234.21906651068048L350,229.58076261962808L352,225.09730612800146L354,226.19918370610992L356,226.2825715145883L358,225.9212091267309L360,225.7945981201831L362,225.7556694421184L364,225.75246209158405L366,225.71053699518993L368,218.6482408349726L370,211.77834631892893L372,211.38351063813064L374,211.22437475758372L376,211.14540708460353L378,218.53083641210748L380,222.89297393562273L382,227.9920551436686L384,227.99064736848695L386,227.8728504029693L388,228.11026239596347L390,228.07052769691865L392,235.2651807685048L394,235.39870180887874L396,235.72474987770002L398,243.14109891796755L400,248.2915496135753L400,17.50845038642467L398,17.95890108203247L396,19.441916788966637L394,19.501298191121293L392,19.53481923149519L390,20.796138969748057L388,20.789737604036503L386,20.82714959703074L384,20.80935263151298L382,20.807944856331346L380,21.50702606437727L378,22.06916358789249L376,23.4212595820631L374,23.408958575749665L372,23.383156028536007L370,23.321653681071155L368,22.21842583169405L366,21.156129671476776L364,21.1475379084159L362,21.14433055788163L360,21.138735213150255L358,20.845457539935808L356,20.817428485411682L354,20.83414962722341L352,21.036027205331834L350,20.119237380371914L348,19.21426682265286L346,18.616502826675486L344,18.59621150401196L342,19.2003791408535L340,19.226261801385164L338,19.254596818343742L336,19.760370994087765L334,19.772445633096396L332,21.241044966767078L330,20.28863918897079L328,19.05248801502887L326,19.146898206208846L324,19.161109559043467L322,19.07223121770798L320,19.556140390235328L318,19.80256503909112L316,19.79386526402746L314,20.239404555233733L312,18.323226916940996L310,20.24613391924325L308,21.9292594381443L306,21.741184270615037L304,21.71327003123764L302,20.939597008145967L300,21.16541864450133L298,21.14380687914442L296,21.047013706851487L294,22.090459561549096L292,22.88246269056026L290,22.949957385538312L288,22.327308990842283L286,22.34738558568091L284,22.352745332543122L282,22.509729486981342L280,21.939390682274933L278,20.934867227523938L276,21.039710254655944L274,21.07027856306823L272,21.05796844206276L270,20.939544796746134L268,21.00822159664716L266,21.00859292749277L264,19.83872868538137L262,18.818815980219284L260,18.19292353384364L258,18.278076855343812L256,18.31433642565611L254,17.713724174019603L252,17.629836815430707L250,17.585532428397045L248,17.690709974691828L246,17.638262897379064L244,17.69665872231613L242,17.78098865873889L240,17.831617552650954L238,17.81456359825242L236,19.31354091567755L234,19.28655299104247L231.99999999999997,18.222227885030122L229.99999999999997,18.296190364657747L227.99999999999997,18.26340383936568L225.99999999999997,19.173868220264865L224.00000000000003,19.161567112291777L222.00000000000003,19.727722178342532L220.00000000000003,19.83518697202237L218.00000000000003,19.860394210407804L216,19.912583453419614L214,19.687833615676226L212,19.672750216296265L210,19.621734016781687L208,19.63355311960322L206,18.846087468379665L204,18.870222983786817L202,18.89734701260062L200,18.864134776791417L198,19.22756541878681L196,18.900418767668782L194,18.824950793661856L192,18.17281106837021L190,17.997390139830202L188,17.88912775125459L186,18.090430961031245L184,18.157867646212793L182,18.17530951722111L180,18.174016996047925L178,18.196671381423954L176,18.97120800224164L174,18.973670571968597L172,18.944053122547473L170,18.975837270646053L168,18.254162437719202L166,18.158500490860746L164,18.374978075053377L162,18.419964913848958L160,18.671117102228237L158,18.5957339123361L156,18.59120640172611L154,19.740074841974717L152,20.071454064112345L150,20.19514720879758L148,20.438776489064452L146,19.238961416859723L144,19.279083544570597L142,19.454253649952022L140,19.478909762514462L138,19.49420061533087L136,19.514234847802413L134,19.69004560207179L132,19.781254607785428L130,19.682992092623408L128,19.799959394328198L126,19.66656862749619L124,19.098586160011422L122,18.91969013971908L120,18.880876982100347L118,19.34977303232418L115.99999999999999,19.767356791812404L113.99999999999999,21.588618695323845L112.00000000000001,21.601987567925335L110.00000000000001,21.975430934799505L108,21.97552401538266L106,21.88379088021847L104,21.973245453717993L102,22.0130404168751L100,21.9552285527582L98,21.85208713116245L96,21.873091388379095L94,21.98242283840264L92,21.409985180721122L90,21.410167706620996L88,21.780491227435363L86,21.8689391306863L84,18.786967468730666L82,18.078376467586423L80,17.959085645886574L78,17.068834857777006L76,16.69124721544003L74,15.224879905637408L72,13.262551560090742L70,11.243258177232747L68,9.052708294274709L66,6.8468462336692255L64,4.062440887429233L62,4.51495417340621L60,1.9030236527580087L57.99999999999999,1.7588157220496612L56.00000000000001,2.2944451789662423L54,5.467019654549034L52,5.405216255674077L50,5.899643446673991L48,7.073908025298749L46,8.28937486984023L44,9.257628118881712L42,10.576100628214789L40,11.976977669381284L38,15.108349879047381L36,18.1573175568802L34,21.288689766546312L32,24.275854045504175L30,27.530833052920272L28.000000000000004,30.60040186371144L26,32.2175908009403L24,30.94586701639726L22,33.06738753547145L20,35.574639058013645L18,37.47087970531443L16,39.273478839168305L14.000000000000002,42.29927024242297L12,45.6156847713398L10,48.74999999999999L8,48.74999999999999L6,48.74999999999999L4,48.74999999999999L2,48.74999999999999L0,48.74999999999999Z" style="fill: #4c78a8; opacity: 0.3;"></path></g></g><path class="foreground" d="" style="display: none; fill: none;"></path></g></g><g class="mark-group role-legend"><g transform="translate(420,0)"><path class="background" d="M0,0h36v45h-36Z" style="pointer-events: none; fill: none;"></path><g><g class="mark-group role-legend-entry"><g transform="translate(0,16)"><path class="background" d="M0,0h0v0h0Z" style="pointer-events: none; fill: none;"></path><g><g class="mark-group role-scope"><g transform="translate(0,0)"><path class="background" d="M0,0h35.462890625v12.5h-35.462890625Z" style="pointer-events: none; fill: none; opacity: 1;"></path><g><g class="mark-symbol role-legend-symbol" style="pointer-events: none;"><path transform="translate(6,6)" d="M5,0A5,5,0,1,1,-5,0A5,5,0,1,1,5,0" style="fill: #4c78a8; stroke: #4c78a8; stroke-width: 1.5; opacity: 0.3;"></path></g><g class="mark-text role-legend-label" style="pointer-events: none;"><text text-anchor="start" transform="translate(16,9)" style="font-family: sans-serif; font-size: 10px; fill: #000; opacity: 1;">0</text></g></g><path class="foreground" d="" style="pointer-events: none; display: none; fill: none;"></path></g><g transform="translate(0,16)"><path class="background" d="M0,0h35.462890625v12.5h-35.462890625Z" style="pointer-events: none; fill: none; opacity: 1;"></path><g><g class="mark-symbol role-legend-symbol" style="pointer-events: none;"><path transform="translate(6,6)" d="M5,0A5,5,0,1,1,-5,0A5,5,0,1,1,5,0" style="fill: #f58518; stroke: #f58518; stroke-width: 1.5; opacity: 0.3;"></path></g><g class="mark-text role-legend-label" style="pointer-events: none;"><text text-anchor="start" transform="translate(16,9)" style="font-family: sans-serif; font-size: 10px; fill: #000; opacity: 1;">0.05</text></g></g><path class="foreground" d="" style="pointer-events: none; display: none; fill: none;"></path></g></g></g><path class="foreground" d="" style="pointer-events: none; display: none; fill: none;"></path></g></g><g class="mark-text role-legend-title" style="pointer-events: none;"><text text-anchor="start" transform="translate(0,9)" style="font-family: sans-serif; font-size: 11px; font-weight: bold; fill: #000; opacity: 1;">Alpha</text></g></g><path class="foreground" d="" style="pointer-events: none; display: none; fill: none;"></path></g></g></g><path class="foreground" d="" style="display: none; fill: none;"></path></g></g></g></svg>