<svg class="marks" width="484" height="381" viewBox="0 0 484 381" version="1.1" xmlns="http://www.w3.org/2000/svg" xmlns:xlink="http://www.w3.org/1999/xlink"><rect width="484" height="381" style="fill: white;"></rect><defs><linearGradient id="gradient_0" x1="0" x2="0" y1="1" y2="0"><stop offset="0" stop-color="rgb(239, 249, 189)"></stop><stop offset="0.05" stop-color="rgb(229, 245, 185)"></stop><stop offset="0.1" stop-color="rgb(219, 241, 180)"></stop><stop offset="0.15" stop-color="rgb(204, 235, 181)"></stop><stop offset="0.2" stop-color="rgb(189, 229, 181)"></stop><stop offset="0.25" stop-color="rgb(169, 221, 183)"></stop><stop offset="0.3" stop-color="rgb(148, 213, 185)"></stop><stop offset="0.35" stop-color="rgb(126, 205, 188)"></stop><stop offset="0.4" stop-color="rgb(105, 197, 190)"></stop><stop offset="0.45" stop-color="rgb(87, 189, 192)"></stop><stop offset="0.5" stop-color="rgb(69, 180, 194)"></stop><stop offset="0.55" stop-color="rgb(57, 169, 193)"></stop><stop offset="0.6" stop-color="rgb(44, 158, 192)"></stop><stop offset="0.65" stop-color="rgb(39, 144, 188)"></stop><stop offset="0.7" stop-color="rgb(33, 130, 184)"></stop><stop offset="0.75" stop-color="rgb(33, 115, 177)"></stop><stop offset="0.8" stop-color="rgb(33, 99, 170)"></stop><stop offset="0.85" stop-color="rgb(34, 85, 163)"></stop><stop offset="0.9" stop-color="rgb(35, 71, 156)"></stop><stop offset="0.95" stop-color="rgb(32, 60, 145)"></stop><stop offset="1" stop-color="rgb(28, 49, 133)"></stop></linearGradient></defs><g transform="translate(36,5)"><g class="mark-group role-frame root"><g transform="translate(0,0)"><path class="background" d="M0.5,0.5h340v340h-340Z" style="fill: none; stroke: #ddd;"></path><g><g class="mark-rect role-mark marks"><path d="M0,0h20v20h-20Z" style="fill: rgb(33, 120, 180);"></path><path d="M20,0h20v20h-20Z" style="fill: rgb(33, 123, 181);"></path><path d="M40,0h20v20h-20Z" style="fill: rgb(33, 126, 182);"></path><path d="M60,0h20v20h-20Z" style="fill: rgb(33, 129, 184);"></path><path d="M80,0h20v20h-20Z" style="fill: rgb(33, 131, 184);"></path><path d="M100,0h20v20h-20Z" style="fill: rgb(35, 134, 185);"></path><path d="M120,0h20v20h-20Z" style="fill: rgb(35, 136, 186);"></path><path d="M140,0h20v20h-20Z" style="fill: rgb(36, 138, 186);"></path><path d="M160,0h20v20h-20Z" style="fill: rgb(37, 139, 187);"></path><path d="M180,0h20v20h-20Z" style="fill: rgb(37, 140, 187);"></path><path d="M200,0h20v20h-20Z" style="fill: rgb(38, 142, 187);"></path><path d="M220,0h20v20h-20Z" style="fill: rgb(38, 143, 188);"></path><path d="M240,0h20v20h-20Z" style="fill: rgb(39, 144, 188);"></path><path d="M260,0h20v20h-20Z" style="fill: rgb(39, 145, 188);"></path><path d="M280,0h20v20h-20Z" style="fill: rgb(39, 146, 189);"></path><path d="M300,0h20v20h-20Z" style="fill: rgb(40, 147, 189);"></path><path d="M320,0h20v20h-20Z" style="fill: rgb(40, 147, 189);"></path><path d="M0,20h20v20h-20Z" style="fill: rgb(33, 113, 176);"></path><path d="M20,20h20v20h-20Z" style="fill: rgb(33, 117, 178);"></path><path d="M40,20h20v20h-20Z" style="fill: rgb(33, 120, 179);"></path><path d="M60,20h20v20h-20Z" style="fill: rgb(33, 122, 181);"></path><path d="M80,20h20v20h-20Z" style="fill: rgb(33, 126, 182);"></path><path d="M100,20h20v20h-20Z" style="fill: rgb(33, 128, 183);"></path><path d="M120,20h20v20h-20Z" style="fill: rgb(33, 130, 184);"></path><path d="M140,20h20v20h-20Z" style="fill: rgb(34, 133, 185);"></path><path d="M160,20h20v20h-20Z" style="fill: rgb(35, 134, 185);"></path><path d="M180,20h20v20h-20Z" style="fill: rgb(35, 135, 185);"></path><path d="M200,20h20v20h-20Z" style="fill: rgb(36, 137, 186);"></path><path d="M220,20h20v20h-20Z" style="fill: rgb(36, 138, 186);"></path><path d="M240,20h20v20h-20Z" style="fill: rgb(37, 139, 187);"></path><path d="M260,20h20v20h-20Z" style="fill: rgb(37, 140, 187);"></path><path d="M280,20h20v20h-20Z" style="fill: rgb(38, 142, 187);"></path><path d="M300,20h20v20h-20Z" style="fill: rgb(38, 143, 188);"></path><path d="M320,20h20v20h-20Z" style="fill: rgb(38, 143, 188);"></path><path d="M0,40h20v20h-20Z" style="fill: rgb(33, 107, 173);"></path><path d="M20,40h20v20h-20Z" style="fill: rgb(33, 110, 175);"></path><path d="M40,40h20v20h-20Z" style="fill: rgb(33, 113, 176);"></path><path d="M60,40h20v20h-20Z" style="fill: rgb(33, 117, 178);"></path><path d="M80,40h20v20h-20Z" style="fill: rgb(33, 119, 179);"></path><path d="M100,40h20v20h-20Z" style="fill: rgb(33, 122, 180);"></path><path d="M120,40h20v20h-20Z" style="fill: rgb(33, 125, 182);"></path><path d="M140,40h20v20h-20Z" style="fill: rgb(33, 127, 183);"></path><path d="M160,40h20v20h-20Z" style="fill: rgb(33, 129, 183);"></path><path d="M180,40h20v20h-20Z" style="fill: rgb(33, 131, 184);"></path><path d="M200,40h20v20h-20Z" style="fill: rgb(34, 132, 185);"></path><path d="M220,40h20v20h-20Z" style="fill: rgb(34, 134, 185);"></path><path d="M240,40h20v20h-20Z" style="fill: rgb(35, 135, 185);"></path><path d="M260,40h20v20h-20Z" style="fill: rgb(35, 136, 186);"></path><path d="M280,40h20v20h-20Z" style="fill: rgb(36, 137, 186);"></path><path d="M300,40h20v20h-20Z" style="fill: rgb(36, 138, 186);"></path><path d="M320,40h20v20h-20Z" style="fill: rgb(36, 139, 186);"></path><path d="M0,60h20v20h-20Z" style="fill: rgb(33, 100, 171);"></path><path d="M20,60h20v20h-20Z" style="fill: rgb(33, 104, 172);"></path><path d="M40,60h20v20h-20Z" style="fill: rgb(33, 107, 174);"></path><path d="M60,60h20v20h-20Z" style="fill: rgb(33, 110, 175);"></path><path d="M80,60h20v20h-20Z" style="fill: rgb(33, 114, 177);"></path><path d="M100,60h20v20h-20Z" style="fill: rgb(33, 116, 178);"></path><path d="M120,60h20v20h-20Z" style="fill: rgb(33, 119, 179);"></path><path d="M140,60h20v20h-20Z" style="fill: rgb(33, 121, 180);"></path><path d="M160,60h20v20h-20Z" style="fill: rgb(33, 123, 181);"></path><path d="M180,60h20v20h-20Z" style="fill: rgb(33, 125, 182);"></path><path d="M200,60h20v20h-20Z" style="fill: rgb(33, 127, 183);"></path><path d="M220,60h20v20h-20Z" style="fill: rgb(33, 129, 183);"></path><path d="M240,60h20v20h-20Z" style="fill: rgb(33, 130, 184);"></path><path d="M260,60h20v20h-20Z" style="fill: rgb(34, 132, 185);"></path><path d="M280,60h20v20h-20Z" style="fill: rgb(34, 133, 185);"></path><path d="M300,60h20v20h-20Z" style="fill: rgb(35, 134, 185);"></path><path d="M320,60h20v20h-20Z" style="fill: rgb(35, 135, 185);"></path><path d="M0,80h20v20h-20Z" style="fill: rgb(33, 94, 168);"></path><path d="M20,80h20v20h-20Z" style="fill: rgb(33, 98, 169);"></path><path d="M40,80h20v20h-20Z" style="fill: rgb(33, 101, 171);"></path><path d="M60,80h20v20h-20Z" style="fill: rgb(33, 104, 172);"></path><path d="M80,80h20v20h-20Z" style="fill: rgb(33, 108, 174);"></path><path d="M100,80h20v20h-20Z" style="fill: rgb(33, 110, 175);"></path><path d="M120,80h20v20h-20Z" style="fill: rgb(33, 113, 176);"></path><path d="M140,80h20v20h-20Z" style="fill: rgb(33, 116, 178);"></path><path d="M160,80h20v20h-20Z" style="fill: rgb(33, 118, 178);"></path><path d="M180,80h20v20h-20Z" style="fill: rgb(33, 119, 179);"></path><path d="M200,80h20v20h-20Z" style="fill: rgb(33, 122, 180);"></path><path d="M220,80h20v20h-20Z" style="fill: rgb(33, 124, 181);"></path><path d="M240,80h20v20h-20Z" style="fill: rgb(33, 125, 182);"></path><path d="M260,80h20v20h-20Z" style="fill: rgb(33, 127, 183);"></path><path d="M280,80h20v20h-20Z" style="fill: rgb(33, 128, 183);"></path><path d="M300,80h20v20h-20Z" style="fill: rgb(33, 129, 184);"></path><path d="M320,80h20v20h-20Z" style="fill: rgb(33, 130, 184);"></path><path d="M0,100h20v20h-20Z" style="fill: rgb(34, 89, 165);"></path><path d="M20,100h20v20h-20Z" style="fill: rgb(33, 92, 167);"></path><path d="M40,100h20v20h-20Z" style="fill: rgb(33, 95, 168);"></path><path d="M60,100h20v20h-20Z" style="fill: rgb(33, 98, 170);"></path><path d="M80,100h20v20h-20Z" style="fill: rgb(33, 102, 171);"></path><path d="M100,100h20v20h-20Z" style="fill: rgb(33, 105, 173);"></path><path d="M120,100h20v20h-20Z" style="fill: rgb(33, 108, 174);"></path><path d="M140,100h20v20h-20Z" style="fill: rgb(33, 110, 175);"></path><path d="M160,100h20v20h-20Z" style="fill: rgb(33, 112, 176);"></path><path d="M180,100h20v20h-20Z" style="fill: rgb(33, 114, 177);"></path><path d="M200,100h20v20h-20Z" style="fill: rgb(33, 116, 178);"></path><path d="M220,100h20v20h-20Z" style="fill: rgb(33, 118, 179);"></path><path d="M240,100h20v20h-20Z" style="fill: rgb(33, 120, 180);"></path><path d="M260,100h20v20h-20Z" style="fill: rgb(33, 122, 180);"></path><path d="M280,100h20v20h-20Z" style="fill: rgb(33, 124, 181);"></path><path d="M300,100h20v20h-20Z" style="fill: rgb(33, 125, 182);"></path><path d="M320,100h20v20h-20Z" style="fill: rgb(33, 126, 182);"></path><path d="M0,120h20v20h-20Z" style="fill: rgb(34, 83, 162);"></path><path d="M20,120h20v20h-20Z" style="fill: rgb(34, 87, 164);"></path><path d="M40,120h20v20h-20Z" style="fill: rgb(34, 90, 165);"></path><path d="M60,120h20v20h-20Z" style="fill: rgb(33, 93, 167);"></path><path d="M80,120h20v20h-20Z" style="fill: rgb(33, 96, 169);"></path><path d="M100,120h20v20h-20Z" style="fill: rgb(33, 99, 170);"></path><path d="M120,120h20v20h-20Z" style="fill: rgb(33, 102, 171);"></path><path d="M140,120h20v20h-20Z" style="fill: rgb(33, 105, 173);"></path><path d="M160,120h20v20h-20Z" style="fill: rgb(33, 107, 174);"></path><path d="M180,120h20v20h-20Z" style="fill: rgb(33, 109, 174);"></path><path d="M200,120h20v20h-20Z" style="fill: rgb(33, 111, 176);"></path><path d="M220,120h20v20h-20Z" style="fill: rgb(33, 113, 177);"></path><path d="M240,120h20v20h-20Z" style="fill: rgb(33, 116, 177);"></path><path d="M260,120h20v20h-20Z" style="fill: rgb(33, 117, 178);"></path><path d="M280,120h20v20h-20Z" style="fill: rgb(33, 119, 179);"></path><path d="M300,120h20v20h-20Z" style="fill: rgb(33, 121, 180);"></path><path d="M320,120h20v20h-20Z" style="fill: rgb(33, 122, 180);"></path><path d="M0,140h20v20h-20Z" style="fill: rgb(34, 78, 160);"></path><path d="M20,140h20v20h-20Z" style="fill: rgb(34, 82, 161);"></path><path d="M40,140h20v20h-20Z" style="fill: rgb(34, 85, 163);"></path><path d="M60,140h20v20h-20Z" style="fill: rgb(34, 88, 165);"></path><path d="M80,140h20v20h-20Z" style="fill: rgb(34, 91, 166);"></path><path d="M100,140h20v20h-20Z" style="fill: rgb(33, 94, 168);"></path><path d="M120,140h20v20h-20Z" style="fill: rgb(33, 97, 169);"></path><path d="M140,140h20v20h-20Z" style="fill: rgb(33, 100, 170);"></path><path d="M160,140h20v20h-20Z" style="fill: rgb(33, 102, 171);"></path><path d="M180,140h20v20h-20Z" style="fill: rgb(33, 104, 172);"></path><path d="M200,140h20v20h-20Z" style="fill: rgb(33, 106, 173);"></path><path d="M220,140h20v20h-20Z" style="fill: rgb(33, 109, 174);"></path><path d="M240,140h20v20h-20Z" style="fill: rgb(33, 111, 175);"></path><path d="M260,140h20v20h-20Z" style="fill: rgb(33, 113, 176);"></path><path d="M280,140h20v20h-20Z" style="fill: rgb(33, 115, 177);"></path><path d="M300,140h20v20h-20Z" style="fill: rgb(33, 116, 178);"></path><path d="M320,140h20v20h-20Z" style="fill: rgb(33, 118, 178);"></path><path d="M0,160h20v20h-20Z" style="fill: rgb(35, 74, 158);"></path><path d="M20,160h20v20h-20Z" style="fill: rgb(35, 77, 159);"></path><path d="M40,160h20v20h-20Z" style="fill: rgb(34, 81, 161);"></path><path d="M60,160h20v20h-20Z" style="fill: rgb(34, 84, 163);"></path><path d="M80,160h20v20h-20Z" style="fill: rgb(34, 87, 164);"></path><path d="M100,160h20v20h-20Z" style="fill: rgb(34, 90, 166);"></path><path d="M120,160h20v20h-20Z" style="fill: rgb(33, 93, 167);"></path><path d="M140,160h20v20h-20Z" style="fill: rgb(33, 96, 168);"></path><path d="M160,160h20v20h-20Z" style="fill: rgb(33, 98, 170);"></path><path d="M180,160h20v20h-20Z" style="fill: rgb(33, 100, 170);"></path><path d="M200,160h20v20h-20Z" style="fill: rgb(33, 103, 172);"></path><path d="M220,160h20v20h-20Z" style="fill: rgb(33, 105, 173);"></path><path d="M240,160h20v20h-20Z" style="fill: rgb(33, 107, 174);"></path><path d="M260,160h20v20h-20Z" style="fill: rgb(33, 109, 175);"></path><path d="M280,160h20v20h-20Z" style="fill: rgb(33, 111, 176);"></path><path d="M300,160h20v20h-20Z" style="fill: rgb(33, 113, 176);"></path><path d="M320,160h20v20h-20Z" style="fill: rgb(33, 115, 177);"></path><path d="M0,180h20v20h-20Z" style="fill: rgb(35, 71, 156);"></path><path d="M20,180h20v20h-20Z" style="fill: rgb(35, 75, 158);"></path><path d="M40,180h20v20h-20Z" style="fill: rgb(34, 78, 160);"></path><path d="M60,180h20v20h-20Z" style="fill: rgb(34, 82, 161);"></path><path d="M80,180h20v20h-20Z" style="fill: rgb(34, 85, 163);"></path><path d="M100,180h20v20h-20Z" style="fill: rgb(34, 88, 164);"></path><path d="M120,180h20v20h-20Z" style="fill: rgb(34, 91, 166);"></path><path d="M140,180h20v20h-20Z" style="fill: rgb(33, 94, 167);"></path><path d="M160,180h20v20h-20Z" style="fill: rgb(33, 96, 168);"></path><path d="M180,180h20v20h-20Z" style="fill: rgb(33, 98, 169);"></path><path d="M200,180h20v20h-20Z" style="fill: rgb(33, 100, 171);"></path><path d="M220,180h20v20h-20Z" style="fill: rgb(33, 103, 172);"></path><path d="M240,180h20v20h-20Z" style="fill: rgb(33, 105, 173);"></path><path d="M260,180h20v20h-20Z" style="fill: rgb(33, 107, 174);"></path><path d="M280,180h20v20h-20Z" style="fill: rgb(33, 109, 175);"></path><path d="M300,180h20v20h-20Z" style="fill: rgb(33, 111, 175);"></path><path d="M320,180h20v20h-20Z" style="fill: rgb(33, 112, 176);"></path><path d="M0,200h20v20h-20Z" style="fill: rgb(34, 67, 152);"></path><path d="M20,200h20v20h-20Z" style="fill: rgb(35, 70, 155);"></path><path d="M40,200h20v20h-20Z" style="fill: rgb(35, 73, 157);"></path><path d="M60,200h20v20h-20Z" style="fill: rgb(35, 77, 159);"></path><path d="M80,200h20v20h-20Z" style="fill: rgb(34, 80, 160);"></path><path d="M100,200h20v20h-20Z" style="fill: rgb(34, 83, 162);"></path><path d="M120,200h20v20h-20Z" style="fill: rgb(34, 86, 164);"></path><path d="M140,200h20v20h-20Z" style="fill: rgb(34, 89, 165);"></path><path d="M160,200h20v20h-20Z" style="fill: rgb(34, 91, 166);"></path><path d="M180,200h20v20h-20Z" style="fill: rgb(33, 93, 167);"></path><path d="M200,200h20v20h-20Z" style="fill: rgb(33, 96, 168);"></path><path d="M220,200h20v20h-20Z" style="fill: rgb(33, 98, 170);"></path><path d="M240,200h20v20h-20Z" style="fill: rgb(33, 101, 171);"></path><path d="M260,200h20v20h-20Z" style="fill: rgb(33, 103, 172);"></path><path d="M280,200h20v20h-20Z" style="fill: rgb(33, 105, 173);"></path><path d="M300,200h20v20h-20Z" style="fill: rgb(33, 107, 173);"></path><path d="M320,200h20v20h-20Z" style="fill: rgb(33, 109, 174);"></path><path d="M0,220h20v20h-20Z" style="fill: rgb(33, 63, 148);"></path><path d="M20,220h20v20h-20Z" style="fill: rgb(34, 66, 151);"></path><path d="M40,220h20v20h-20Z" style="fill: rgb(34, 69, 154);"></path><path d="M60,220h20v20h-20Z" style="fill: rgb(35, 72, 157);"></path><path d="M80,220h20v20h-20Z" style="fill: rgb(35, 75, 158);"></path><path d="M100,220h20v20h-20Z" style="fill: rgb(34, 79, 160);"></path><path d="M120,220h20v20h-20Z" style="fill: rgb(34, 82, 161);"></path><path d="M140,220h20v20h-20Z" style="fill: rgb(34, 85, 163);"></path><path d="M160,220h20v20h-20Z" style="fill: rgb(34, 87, 164);"></path><path d="M180,220h20v20h-20Z" style="fill: rgb(34, 89, 165);"></path><path d="M200,220h20v20h-20Z" style="fill: rgb(34, 92, 166);"></path><path d="M220,220h20v20h-20Z" style="fill: rgb(33, 94, 168);"></path><path d="M240,220h20v20h-20Z" style="fill: rgb(33, 96, 169);"></path><path d="M260,220h20v20h-20Z" style="fill: rgb(33, 99, 170);"></path><path d="M280,220h20v20h-20Z" style="fill: rgb(33, 101, 171);"></path><path d="M300,220h20v20h-20Z" style="fill: rgb(33, 103, 172);"></path><path d="M320,220h20v20h-20Z" style="fill: rgb(33, 105, 173);"></path><path d="M0,240h20v20h-20Z" style="fill: rgb(31, 59, 144);"></path><path d="M20,240h20v20h-20Z" style="fill: rgb(32, 62, 147);"></path><path d="M40,240h20v20h-20Z" style="fill: rgb(33, 66, 150);"></path><path d="M60,240h20v20h-20Z" style="fill: rgb(34, 68, 153);"></path><path d="M80,240h20v20h-20Z" style="fill: rgb(35, 71, 156);"></path><path d="M100,240h20v20h-20Z" style="fill: rgb(35, 74, 158);"></path><path d="M120,240h20v20h-20Z" style="fill: rgb(35, 77, 159);"></path><path d="M140,240h20v20h-20Z" style="fill: rgb(34, 80, 161);"></path><path d="M160,240h20v20h-20Z" style="fill: rgb(34, 83, 162);"></path><path d="M180,240h20v20h-20Z" style="fill: rgb(34, 85, 163);"></path><path d="M200,240h20v20h-20Z" style="fill: rgb(34, 88, 164);"></path><path d="M220,240h20v20h-20Z" style="fill: rgb(34, 90, 166);"></path><path d="M240,240h20v20h-20Z" style="fill: rgb(33, 93, 167);"></path><path d="M260,240h20v20h-20Z" style="fill: rgb(33, 95, 168);"></path><path d="M280,240h20v20h-20Z" style="fill: rgb(33, 97, 169);"></path><path d="M300,240h20v20h-20Z" style="fill: rgb(33, 99, 170);"></path><path d="M320,240h20v20h-20Z" style="fill: rgb(33, 101, 171);"></path><path d="M0,260h20v20h-20Z" style="fill: rgb(30, 56, 140);"></path><path d="M20,260h20v20h-20Z" style="fill: rgb(31, 59, 144);"></path><path d="M40,260h20v20h-20Z" style="fill: rgb(32, 62, 146);"></path><path d="M60,260h20v20h-20Z" style="fill: rgb(33, 65, 149);"></path><path d="M80,260h20v20h-20Z" style="fill: rgb(34, 67, 152);"></path><path d="M100,260h20v20h-20Z" style="fill: rgb(35, 70, 155);"></path><path d="M120,260h20v20h-20Z" style="fill: rgb(35, 73, 157);"></path><path d="M140,260h20v20h-20Z" style="fill: rgb(35, 76, 159);"></path><path d="M160,260h20v20h-20Z" style="fill: rgb(34, 79, 160);"></path><path d="M180,260h20v20h-20Z" style="fill: rgb(34, 81, 161);"></path><path d="M200,260h20v20h-20Z" style="fill: rgb(34, 84, 162);"></path><path d="M220,260h20v20h-20Z" style="fill: rgb(34, 87, 164);"></path><path d="M240,260h20v20h-20Z" style="fill: rgb(34, 89, 165);"></path><path d="M260,260h20v20h-20Z" style="fill: rgb(34, 91, 166);"></path><path d="M280,260h20v20h-20Z" style="fill: rgb(33, 94, 167);"></path><path d="M300,260h20v20h-20Z" style="fill: rgb(33, 96, 168);"></path><path d="M320,260h20v20h-20Z" style="fill: rgb(33, 98, 169);"></path><path d="M0,280h20v20h-20Z" style="fill: rgb(29, 53, 137);"></path><path d="M20,280h20v20h-20Z" style="fill: rgb(30, 56, 140);"></path><path d="M40,280h20v20h-20Z" style="fill: rgb(31, 59, 143);"></path><path d="M60,280h20v20h-20Z" style="fill: rgb(32, 62, 146);"></path><path d="M80,280h20v20h-20Z" style="fill: rgb(33, 64, 149);"></path><path d="M100,280h20v20h-20Z" style="fill: rgb(34, 67, 151);"></path><path d="M120,280h20v20h-20Z" style="fill: rgb(35, 70, 155);"></path><path d="M140,280h20v20h-20Z" style="fill: rgb(35, 72, 157);"></path><path d="M160,280h20v20h-20Z" style="fill: rgb(35, 75, 158);"></path><path d="M180,280h20v20h-20Z" style="fill: rgb(35, 77, 159);"></path><path d="M200,280h20v20h-20Z" style="fill: rgb(34, 80, 161);"></path><path d="M220,280h20v20h-20Z" style="fill: rgb(34, 83, 162);"></path><path d="M240,280h20v20h-20Z" style="fill: rgb(34, 86, 163);"></path><path d="M260,280h20v20h-20Z" style="fill: rgb(34, 88, 165);"></path><path d="M280,280h20v20h-20Z" style="fill: rgb(34, 91, 166);"></path><path d="M300,280h20v20h-20Z" style="fill: rgb(33, 93, 167);"></path><path d="M320,280h20v20h-20Z" style="fill: rgb(33, 95, 168);"></path><path d="M0,300h20v20h-20Z" style="fill: rgb(28, 50, 134);"></path><path d="M20,300h20v20h-20Z" style="fill: rgb(29, 53, 137);"></path><path d="M40,300h20v20h-20Z" style="fill: rgb(30, 55, 140);"></path><path d="M60,300h20v20h-20Z" style="fill: rgb(31, 59, 143);"></path><path d="M80,300h20v20h-20Z" style="fill: rgb(32, 61, 146);"></path><path d="M100,300h20v20h-20Z" style="fill: rgb(33, 64, 149);"></path><path d="M120,300h20v20h-20Z" style="fill: rgb(34, 67, 152);"></path><path d="M140,300h20v20h-20Z" style="fill: rgb(34, 69, 154);"></path><path d="M160,300h20v20h-20Z" style="fill: rgb(35, 71, 156);"></path><path d="M180,300h20v20h-20Z" style="fill: rgb(35, 74, 157);"></path><path d="M200,300h20v20h-20Z" style="fill: rgb(35, 77, 159);"></path><path d="M220,300h20v20h-20Z" style="fill: rgb(34, 80, 160);"></path><path d="M240,300h20v20h-20Z" style="fill: rgb(34, 82, 162);"></path><path d="M260,300h20v20h-20Z" style="fill: rgb(34, 85, 163);"></path><path d="M280,300h20v20h-20Z" style="fill: rgb(34, 87, 164);"></path><path d="M300,300h20v20h-20Z" style="fill: rgb(34, 90, 165);"></path><path d="M320,300h20v20h-20Z" style="fill: rgb(34, 92, 166);"></path><path d="M0,320h20v20h-20Z" style="fill: rgb(27, 47, 131);"></path><path d="M20,320h20v20h-20Z" style="fill: rgb(28, 50, 134);"></path><path d="M40,320h20v20h-20Z" style="fill: rgb(29, 52, 136);"></path><path d="M60,320h20v20h-20Z" style="fill: rgb(30, 56, 140);"></path><path d="M80,320h20v20h-20Z" style="fill: rgb(31, 58, 143);"></path><path d="M100,320h20v20h-20Z" style="fill: rgb(32, 61, 146);"></path><path d="M120,320h20v20h-20Z" style="fill: rgb(33, 64, 149);"></path><path d="M140,320h20v20h-20Z" style="fill: rgb(34, 66, 151);"></path><path d="M160,320h20v20h-20Z" style="fill: rgb(34, 69, 154);"></path><path d="M180,320h20v20h-20Z" style="fill: rgb(35, 71, 156);"></path><path d="M200,320h20v20h-20Z" style="fill: rgb(35, 74, 157);"></path><path d="M220,320h20v20h-20Z" style="fill: rgb(35, 77, 159);"></path><path d="M240,320h20v20h-20Z" style="fill: rgb(34, 79, 160);"></path><path d="M260,320h20v20h-20Z" style="fill: rgb(34, 82, 162);"></path><path d="M280,320h20v20h-20Z" style="fill: rgb(34, 85, 163);"></path><path d="M300,320h20v20h-20Z" style="fill: rgb(34, 86, 164);"></path><path d="M320,320h20v20h-20Z" style="fill: rgb(34, 89, 165);"></path></g><g class="mark-group role-legend"><g transform="translate(358,0)"><path class="background" d="M0,0h85v216h-85Z" style="pointer-events: none; fill: none;"></path><g><g class="mark-group role-legend-entry"><g transform="translate(0,16)"><path class="background" d="M0,0h0v0h0Z" style="pointer-events: none; fill: none;"></path><g><g class="mark-rect role-legend-gradient" style="pointer-events: none;"><path d="M0,0h16v200h-16Z" style="fill: url(#gradient_0); stroke: #ddd; stroke-width: 0; opacity: 1;"></path></g><g class="mark-text role-legend-label" style="pointer-events: none;"><text text-anchor="start" transform="translate(18,198)" style="font-family: sans-serif; font-size: 10px; fill: #000; opacity: 1;">-8</text><text text-anchor="start" transform="translate(18,163)" style="font-family: sans-serif; font-size: 10px; fill: #000; opacity: 1;">-6</text><text text-anchor="start" transform="translate(18,123)" style="font-family: sans-serif; font-size: 10px; fill: #000; opacity: 1;">-4</text><text text-anchor="start" transform="translate(18,83)" style="font-family: sans-serif; font-size: 10px; fill: #000; opacity: 1;">-2</text><text text-anchor="start" transform="translate(18,42.99999999999999)" style="font-family: sans-serif; font-size: 10px; fill: #000; opacity: 1;">0</text><text text-anchor="start" transform="translate(18,8)" style="font-family: sans-serif; font-size: 10px; fill: #000; opacity: 1;">2</text></g></g><path class="foreground" d="" style="pointer-events: none; display: none; fill: none;"></path></g></g><g class="mark-text role-legend-title" style="pointer-events: none;"><text text-anchor="start" transform="translate(0,9)" style="font-family: sans-serif; font-size: 11px; font-weight: bold; fill: #000; opacity: 1;">Distance to goal</text></g></g><path class="foreground" d="" style="pointer-events: none; display: none; fill: none;"></path></g></g><g class="mark-group role-axis"><g transform="translate(0.5,340.5)"><path class="background" d="M0,0h0v0h0Z" style="pointer-events: none; fill: none;"></path><g><g class="mark-rule role-axis-tick" style="pointer-events: none;"><line transform="translate(10,0)" x2="0" y2="5" style="fill: none; stroke: #888; stroke-width: 1; opacity: 1;"></line><line transform="translate(30,0)" x2="0" y2="5" style="fill: none; stroke: #888; stroke-width: 1; opacity: 1;"></line><line transform="translate(50,0)" x2="0" y2="5" style="fill: none; stroke: #888; stroke-width: 1; opacity: 1;"></line><line transform="translate(70,0)" x2="0" y2="5" style="fill: none; stroke: #888; stroke-width: 1; opacity: 1;"></line><line transform="translate(90,0)" x2="0" y2="5" style="fill: none; stroke: #888; stroke-width: 1; opacity: 1;"></line><line transform="translate(110,0)" x2="0" y2="5" style="fill: none; stroke: #888; stroke-width: 1; opacity: 1;"></line><line transform="translate(130,0)" x2="0" y2="5" style="fill: none; stroke: #888; stroke-width: 1; opacity: 1;"></line><line transform="translate(150,0)" x2="0" y2="5" style="fill: none; stroke: #888; stroke-width: 1; opacity: 1;"></line><line transform="translate(170,0)" x2="0" y2="5" style="fill: none; stroke: #888; stroke-width: 1; opacity: 1;"></line><line transform="translate(190,0)" x2="0" y2="5" style="fill: none; stroke: #888; stroke-width: 1; opacity: 1;"></line><line transform="translate(210,0)" x2="0" y2="5" style="fill: none; stroke: #888; stroke-width: 1; opacity: 1;"></line><line transform="translate(230,0)" x2="0" y2="5" style="fill: none; stroke: #888; stroke-width: 1; opacity: 1;"></line><line transform="translate(250,0)" x2="0" y2="5" style="fill: none; stroke: #888; stroke-width: 1; opacity: 1;"></line><line transform="translate(270,0)" x2="0" y2="5" style="fill: none; stroke: #888; stroke-width: 1; opacity: 1;"></line><line transform="translate(290,0)" x2="0" y2="5" style="fill: none; stroke: #888; stroke-width: 1; opacity: 1;"></line><line transform="translate(310,0)" x2="0" y2="5" style="fill: none; stroke: #888; stroke-width: 1; opacity: 1;"></line><line transform="translate(330,0)" x2="0" y2="5" style="fill: none; stroke: #888; stroke-width: 1; opacity: 1;"></line></g><g class="mark-text role-axis-label" style="pointer-events: none;"><text text-anchor="end" transform="translate(9.5,7) rotate(270) translate(0,3)" style="font-family: sans-serif; font-size: 10px; fill: #000; opacity: 1;">-8</text><text text-anchor="end" transform="translate(29.5,7) rotate(270) translate(0,3)" style="font-family: sans-serif; font-size: 10px; fill: #000; opacity: 1;">-7</text><text text-anchor="end" transform="translate(49.5,7) rotate(270) translate(0,3)" style="font-family: sans-serif; font-size: 10px; fill: #000; opacity: 1;">-6</text><text text-anchor="end" transform="translate(69.5,7) rotate(270) translate(0,3)" style="font-family: sans-serif; font-size: 10px; fill: #000; opacity: 1;">-5</text><text text-anchor="end" transform="translate(89.5,7) rotate(270) translate(0,3)" style="font-family: sans-serif; font-size: 10px; fill: #000; opacity: 1;">-4</text><text text-anchor="end" transform="translate(109.5,7) rotate(270) translate(0,3)" style="font-family: sans-serif; font-size: 10px; fill: #000; opacity: 1;">-3</text><text text-anchor="end" transform="translate(129.5,7) rotate(270) translate(0,3)" style="font-family: sans-serif; font-size: 10px; fill: #000; opacity: 1;">-2</text><text text-anchor="end" transform="translate(149.5,7) rotate(270) translate(0,3)" style="font-family: sans-serif; font-size: 10px; fill: #000; opacity: 1;">-1</text><text text-anchor="end" transform="translate(169.5,7) rotate(270) translate(0,3)" style="font-family: sans-serif; font-size: 10px; fill: #000; opacity: 1;">0</text><text text-anchor="end" transform="translate(189.5,7) rotate(270) translate(0,3)" style="font-family: sans-serif; font-size: 10px; fill: #000; opacity: 1;">1</text><text text-anchor="end" transform="translate(209.5,7) rotate(270) translate(0,3)" style="font-family: sans-serif; font-size: 10px; fill: #000; opacity: 1;">2</text><text text-anchor="end" transform="translate(229.5,7) rotate(270) translate(0,3)" style="font-family: sans-serif; font-size: 10px; fill: #000; opacity: 1;">3</text><text text-anchor="end" transform="translate(249.5,7) rotate(270) translate(0,3)" style="font-family: sans-serif; font-size: 10px; fill: #000; opacity: 1;">4</text><text text-anchor="end" transform="translate(269.5,7) rotate(270) translate(0,3)" style="font-family: sans-serif; font-size: 10px; fill: #000; opacity: 1;">5</text><text text-anchor="end" transform="translate(289.5,7) rotate(270) translate(0,3)" style="font-family: sans-serif; font-size: 10px; fill: #000; opacity: 1;">6</text><text text-anchor="end" transform="translate(309.5,7) rotate(270) translate(0,3)" style="font-family: sans-serif; font-size: 10px; fill: #000; opacity: 1;">7</text><text text-anchor="end" transform="translate(329.5,7) rotate(270) translate(0,3)" style="font-family: sans-serif; font-size: 10px; fill: #000; opacity: 1;">8</text></g><g class="mark-rule role-axis-domain" style="pointer-events: none;"><line transform="translate(0,0)" x2="340" y2="0" style="fill: none; stroke: #888; stroke-width: 1; opacity: 1;"></line></g><g class="mark-text role-axis-title" style="pointer-events: none;"><text text-anchor="middle" transform="translate(170,28.8916015625)" style="font-family: sans-serif; font-size: 11px; font-weight: bold; fill: #000; opacity: 1;">x</text></g></g><path class="foreground" d="" style="pointer-events: none; display: none; fill: none;"></path></g></g><g class="mark-group role-axis"><g transform="translate(0.5,0.5)"><path class="background" d="M0,0h0v0h0Z" style="pointer-events: none; fill: none;"></path><g><g class="mark-rule role-axis-tick" style="pointer-events: none;"><line transform="translate(0,10)" x2="-5" y2="0" style="fill: none; stroke: #888; stroke-width: 1; opacity: 1;"></line><line transform="translate(0,30)" x2="-5" y2="0" style="fill: none; stroke: #888; stroke-width: 1; opacity: 1;"></line><line transform="translate(0,50)" x2="-5" y2="0" style="fill: none; stroke: #888; stroke-width: 1; opacity: 1;"></line><line transform="translate(0,70)" x2="-5" y2="0" style="fill: none; stroke: #888; stroke-width: 1; opacity: 1;"></line><line transform="translate(0,90)" x2="-5" y2="0" style="fill: none; stroke: #888; stroke-width: 1; opacity: 1;"></line><line transform="translate(0,110)" x2="-5" y2="0" style="fill: none; stroke: #888; stroke-width: 1; opacity: 1;"></line><line transform="translate(0,130)" x2="-5" y2="0" style="fill: none; stroke: #888; stroke-width: 1; opacity: 1;"></line><line transform="translate(0,150)" x2="-5" y2="0" style="fill: none; stroke: #888; stroke-width: 1; opacity: 1;"></line><line transform="translate(0,170)" x2="-5" y2="0" style="fill: none; stroke: #888; stroke-width: 1; opacity: 1;"></line><line transform="translate(0,190)" x2="-5" y2="0" style="fill: none; stroke: #888; stroke-width: 1; opacity: 1;"></line><line transform="translate(0,210)" x2="-5" y2="0" style="fill: none; stroke: #888; stroke-width: 1; opacity: 1;"></line><line transform="translate(0,230)" x2="-5" y2="0" style="fill: none; stroke: #888; stroke-width: 1; opacity: 1;"></line><line transform="translate(0,250)" x2="-5" y2="0" style="fill: none; stroke: #888; stroke-width: 1; opacity: 1;"></line><line transform="translate(0,270)" x2="-5" y2="0" style="fill: none; stroke: #888; stroke-width: 1; opacity: 1;"></line><line transform="translate(0,290)" x2="-5" y2="0" style="fill: none; stroke: #888; stroke-width: 1; opacity: 1;"></line><line transform="translate(0,310)" x2="-5" y2="0" style="fill: none; stroke: #888; stroke-width: 1; opacity: 1;"></line><line transform="translate(0,330)" x2="-5" y2="0" style="fill: none; stroke: #888; stroke-width: 1; opacity: 1;"></line></g><g class="mark-text role-axis-label" style="pointer-events: none;"><text text-anchor="end" transform="translate(-7,12.5)" style="font-family: sans-serif; font-size: 10px; fill: #000; opacity: 1;">-8</text><text text-anchor="end" transform="translate(-7,32.5)" style="font-family: sans-serif; font-size: 10px; fill: #000; opacity: 1;">-7</text><text text-anchor="end" transform="translate(-7,52.5)" style="font-family: sans-serif; font-size: 10px; fill: #000; opacity: 1;">-6</text><text text-anchor="end" transform="translate(-7,72.5)" style="font-family: sans-serif; font-size: 10px; fill: #000; opacity: 1;">-5</text><text text-anchor="end" transform="translate(-7,92.5)" style="font-family: sans-serif; font-size: 10px; fill: #000; opacity: 1;">-4</text><text text-anchor="end" transform="translate(-7,112.5)" style="font-family: sans-serif; font-size: 10px; fill: #000; opacity: 1;">-3</text><text text-anchor="end" transform="translate(-7,132.5)" style="font-family: sans-serif; font-size: 10px; fill: #000; opacity: 1;">-2</text><text text-anchor="end" transform="translate(-7,152.5)" style="font-family: sans-serif; font-size: 10px; fill: #000; opacity: 1;">-1</text><text text-anchor="end" transform="translate(-7,172.5)" style="font-family: sans-serif; font-size: 10px; fill: #000; opacity: 1;">0</text><text text-anchor="end" transform="translate(-7,192.5)" style="font-family: sans-serif; font-size: 10px; fill: #000; opacity: 1;">1</text><text text-anchor="end" transform="translate(-7,212.5)" style="font-family: sans-serif; font-size: 10px; fill: #000; opacity: 1;">2</text><text text-anchor="end" transform="translate(-7,232.5)" style="font-family: sans-serif; font-size: 10px; fill: #000; opacity: 1;">3</text><text text-anchor="end" transform="translate(-7,252.5)" style="font-family: sans-serif; font-size: 10px; fill: #000; opacity: 1;">4</text><text text-anchor="end" transform="translate(-7,272.5)" style="font-family: sans-serif; font-size: 10px; fill: #000; opacity: 1;">5</text><text text-anchor="end" transform="translate(-7,292.5)" style="font-family: sans-serif; font-size: 10px; fill: #000; opacity: 1;">6</text><text text-anchor="end" transform="translate(-7,312.5)" style="font-family: sans-serif; font-size: 10px; fill: #000; opacity: 1;">7</text><text text-anchor="end" transform="translate(-7,332.5)" style="font-family: sans-serif; font-size: 10px; fill: #000; opacity: 1;">8</text></g><g class="mark-rule role-axis-domain" style="pointer-events: none;"><line transform="translate(0,0)" x2="0" y2="340" style="fill: none; stroke: #888; stroke-width: 1; opacity: 1;"></line></g><g class="mark-text role-axis-title" style="pointer-events: none;"><text text-anchor="middle" transform="translate(-19.8916015625,170) rotate(-90) translate(0,-2)" style="font-family: sans-serif; font-size: 11px; font-weight: bold; fill: #000; opacity: 1;">y</text></g></g><path class="foreground" d="" style="pointer-events: none; display: none; fill: none;"></path></g></g></g><path class="foreground" d="" style="display: none; fill: none;"></path></g></g></g></svg>